<?xml version="1.0" encoding="utf-8"?>
<!-- Generator: Adobe Illustrator 19.1.0, SVG Export Plug-In . SVG Version: 6.00 Build 0)  -->
<svg version="1.1" id="Layer_1" xmlns="http://www.w3.org/2000/svg" xmlns:xlink="http://www.w3.org/1999/xlink" x="0px" y="0px"
	 viewBox="0 0 492.7 355.9" enable-background="new 0 0 492.7 355.9" xml:space="preserve">
<g>
	<path fill="#ED2176" d="M220.4,242.5c9.1,5.6,18.9,10,29.5,11.6c27.4,4.1,50.8-4,69.9-24.1c1.7-1.8,2.6-2,4.6-0.4
		c11.6,9.5,23.3,18.8,35.1,28.1c2.2,1.7,3.7,3.2,1.8,5.9c0.7,1.1-0.3,1.7-0.8,2.4c-14,21-27.9,42.1-42.1,63
		c-0.8,1.1-1.5,2.4-2.8,3.1c-8,3.3-16.3,5-24.8,6.6c-11.6,2.2-23.4,2.5-35.2,2.3c-1-0.5-1.8-1.3-2.4-2.3c-16-24-32-48-47.9-71.9
		c-0.2-0.3-0.4-0.6-0.5-1c-0.1-0.3-0.1-0.5-0.1-0.8c1.8-3.3,4.1-6.2,6-9.3c2.4-3.6,4.8-7.3,7.3-10.9
		C218.7,243.7,219,242.5,220.4,242.5z"/>
	<path fill="#FECF1C" d="M353.4,43c2.1,0.9,3.9,2.3,5.6,3.8c-1.3,1.6-3.2,0.9-4.8,1.1c-1.2,0.1-2.4-0.1-3.6-0.1
		c-17.1,0.2-34.2,0.1-51.3,0c-2.9,0-5.8,0.1-8.7,0c-1.3-0.1-2.6,0.2-3.8,0c-1.1-0.1-2.2,0-3.4,0c-2.5,0.2-5-0.1-7.6,0
		c-1.7,0.1-3.5,0.1-5.2,0c-6.5-0.1-13,0.3-19.5,0c-5.2,0.2-10.5-0.1-15.7,0c-9.6,0.1-19.3,0-28.9,0c-0.7,0-1.5,0-2.2,0
		c-11.5,0.2-22.9,0.1-34.4,0c-1.1,0-2.3,0.1-3-1.1C181.2,36.1,197,28.3,214,22.9c19.1-6.1,38.8-8.4,58.7-7.2
		c25.3,1.5,49.1,8.6,71.1,21.2c0.3,0.2,0.6,0.5,0.8,0.7c1.8,1.2,3.1,2.8,4.2,4.7c0.9,1.7,1.8,3.2,3.7,0.9
		C352.8,43,353.1,43,353.4,43z"/>
	<path fill="#40BA95" d="M124,262.6c-4.9-7.1-8.4-14.9-11.7-22.7c-2.5-5.8-4.5-11.8-6.1-17.9c2.4-1.9,5.6-1.6,8.3-2.8
		c1.8-0.8,3.7-1.2,5.3-2.4c1.7-1.3,3.4-1,5.3-0.3c3.4,1.4,6.7,1.6,9.8-1c1.6-1.3,4-1.6,5-3.8c0.4-0.3,0.9-0.6,1.4-0.8
		c0.7-0.4,1.5-0.8,2.2-1.1c1.7-0.6,3.1-1.3,2.1-3.6c-0.5-1.1,0.4-2.1,1-3.1c0.1-0.2,0.3-0.4,0.5-0.6c1.8-0.8,2.9-2.8,5.2-3
		c0.5,0,0.5-0.6,0.4-1.1c-0.8-3.8-0.8-3.8,2.6-5.5c0.3-0.2,0.6-0.5,0.9-0.7c1.4,0,1.7,1.2,2.4,2.1c1.5,2,2.7,4.2,4.3,6.2
		c5.4,8.1,10.9,16.2,16.3,24.3c0.8,1.8,2.6,3.1,2.7,5.3c-2.5,1-3.6,3.6-2.2,6.2c1.2,2.2,1.1,4.7,0.9,6.7c-0.3,2.7,0.9,4.2,2.2,6
		c0.7,0.9,1.6,1.5,1.4,2.9c-0.1,1,0.4,2.2,1.4,1.9c0.9-0.3,2.9-0.7,2.5-2.1c-0.8-3.2,1.7-4.7,3-6.8c2.7,0.4,2.9,3.2,4.4,4.8
		c0.3,0.6,0.6,1.2,0.4,1.9c-1.2,1.3-0.3,3.2-1.5,4.5c-1.1,0.9-0.9,2.1-0.9,3.4c0,0.9-0.5,1.6-1.4,2c-0.8,0.3-1.2-0.2-1.5-0.8
		c-0.7-1.3,0,0.3-0.2,0.1c-1,1.9-2.7,2.3-3.8,0.6c-1.3-1.9-3-2.1-4.9-1.7c-1.6,0.3-3.2-0.1-4.7-0.5c-1.3-0.3-2.4-0.4-3.1,1.1
		c-1,2.2-2.5,1.8-3.7,0.5c-1.2-1.2-2.1-1-3.5-0.6c-2,0.5-4.2,0.1-6.2-0.1c-3.2-0.2-6.4-1-9.7-0.8c-2.2,0.1-3.8-1.9-5.8-2.7
		c-1.4-0.6-2.7-1.1-4.3-0.8c-1.4,0.3-2.8,0.5-3.8-1.2c-0.2,1.6-1.5,3.1,1.4,3.7c1.3,0.3,3.6,1.9,2.9,4.5c-0.3,0.1-0.5,0.1-0.8,0.1
		c-3.5-1.1-7-2.4-10.7-0.1c-0.8,0.5-1.9,0.9-2.9,0C125.7,261.3,125,263,124,262.6z"/>
	<path fill="#FBF2CB" d="M205.2,265.4c8,11.9,16,23.8,24,35.7c8.9,13.2,17.7,26.5,26.5,39.7c-9.4,0-18.5-1.5-27.7-3.4
		c-13.3-2.8-26-7.4-38.2-13.5c-5.9-2.9-11.8-6-17-10.2c-0.6-1.1,0.2-1.7,0.7-2.5c1.5-2.2,3-4.4,4.5-6.7c1.9-2.8,3.8-5.5,5.5-8.5
		c0.3-0.5,0.5-0.9,0.8-1.3c6-8.9,11.9-17.9,18.1-26.8C203.2,267,203.6,265.6,205.2,265.4z"/>
	<path fill="#1D164A" d="M202.1,130.9c-6.2,8.6-11.1,17.8-13.7,28.2c-1.9,7.4-2.6,14.9-2.5,22.4c-0.5,0.6-1.2,0.4-1.8,0.2
		c-1.6-0.4-2.4-0.1-3.1,1.7c-0.8,2.3-3.4,3.2-4.8,5.3c-0.7,1-3,0.5-4-0.8c-1-1.3-2.1-1.7-3.5-1.6c-0.5,0-1.1-0.1-1.2-0.5
		c-1-3.7-4-1.9-5.6-1.5c-2.4,0.5-4.7,0-6.7-0.6c-2.3-0.7-4.8-1.5-6.9-3c-1.1-0.5-1.6-1.5-2.2-2.5c-2.7-4.1-5.5-8.2-8.2-12.3
		c-0.6-0.9-1.2-1.7-1.3-2.7c-0.2-1.7-1.6-2.7-2.3-4.1c-0.8-1.6-1.1-3,0.7-4.1c0.8-0.5,1.2-1.4,1.8-2.2c1.9-2.4,3.5-2.2,5.1,0.4
		c0.3,0.4,1.4,0.4,2,0.2c0.7-0.1,1.2-0.9,0.8-1.5c-0.7-1-1.4-1.9-0.3-2.9c1-1,2.3-0.4,3.5-0.4c0.6,0,1.1,0.3,1.6,0.5
		c0.8,0.4,1.2,0.1,1.4-0.7c0.5-1.9,1.8-3.2,3.1-4.6c0.7-0.7,1.3-1.4,1.4-2.4c0.4-2.6,1.2-4.9,2.9-6.9c0.9-1.1,0.1-2.3,0.3-3.5
		c1-5.4,4.8-7.5,9.6-8.5c1.3-0.3,2.8-0.1,3-2.2c0.1-0.8,1.3-1.3,2-0.4c1.5,1.8,3.8,3.2,4,5.9c0.4,2.8,2.1,4.9,4.1,6.8
		c3.2,3.2,4.4,8.6,2.6,12.8c-0.7,1.7-1.4,3.4-1.4,5.4c0.9-0.2,1.4-0.9,1.3-1.6c-0.4-3.8,2.2-5.9,4.7-7.7c2.5-1.8,4.5-3.8,6-6.5
		c1.2-2.2,3.9-3,5.4-4.9C200.9,130.2,201.6,130.3,202.1,130.9z"/>
	<path fill="#ED2176" d="M381.8,94.4c-7.5,6.2-15,12.4-22.6,18.6c-9.6,7.8-19.2,15.6-28.8,23.4c-1,0.8-1.7,1.8-2.8,0
		c-5.4-8.6-12.6-15.6-20.7-21.6c-1.2-1.1-0.5-2.2,0.2-3.2c3.1-5.1,6.6-9.9,9.9-14.9c1.5-2.3,3-4.5,4.5-6.8c1-1.6,1.9-3.5,3.9-4.2
		c17.1-0.2,34.1-0.3,51.1,0C379.2,88.1,381.6,90.6,381.8,94.4z"/>
	<path fill="#F68B35" d="M315.6,332c2.9-4.3,5.7-8.7,8.6-13c12.4-18.5,24.7-37,37.1-55.5c1.4-2.7,2.7-2.3,5-0.5
		c6.9,5.8,14,11.3,21,16.9c1.1,0.9,1.8,1.4,0.5,3c-19.4,23-43.4,39.3-71.7,49.3C316,332.2,315.8,332,315.6,332z"/>
	<path fill="#1E184E" d="M288.9,105.5c-6.7-1.9-13.4-3.5-20.5-4.1c-12.9-1-25.1,1.4-36.8,6.5c-9.4,4.1-17.6,10-24.7,17.4
		c-1.9-0.9-2.1-1.5-1-2.9c1-1.2,1.9-2.3,2.6-3.7c1.4-2.9,0.7-5.2-2.2-6.4c-1.1-0.5-1.8-0.8-1.2-2.2c0.5-1.1,0.1-2-0.9-2.9
		c-1.5-1.4-0.7-2.9,0.4-4.2c1.1-1.4,2.1-1.3,3.3-0.2c0.7,0.7,1.6,1,2.5,1.1c3.8,0.4,7.6,1.2,11.5,1.3c1.8,0,3,1.4,4.6,2
		c0.4-0.9,0-1.8-0.4-2.3c-1.2-1.5-1.3-2.5,0.5-3.8c1.6-1.2,0.4-2.7-0.8-3.8c-2.5-2.4-2.5-4,0.3-6.1c0.5-0.4,1.2-0.7,1.2-1.5
		c0-1-1-0.9-1.6-1.3c-1.4-0.8-2.9-0.6-4.4-0.9c-0.5-0.1-1.2-0.2-1.1-1c0.1-0.5,0.6-0.6,1.1-0.8c2.5-0.3,5.1-0.1,7.6-0.1
		c21.6,0,43.2,0,64.8,0c1.4,0,2.8-0.1,4.2,0.1c0.9,0.2,1.6,0.7,1.1,1.7c-1.1,2.1-1,4,0.3,5.9c0.4,0.5,0.3,1.2,0,1.9
		c-1.2,0.9-1.5-0.7-2.8-1.3c1.3,1,1.8,2.2,1.1,2.7c-1.6,1.1-0.5,2.2-0.4,3.4c0.1,0.9-0.4,1.5-1.2,1.9c-2,0.1-3.5,0.9-4.1,3
		C291.3,106.9,289.8,104.9,288.9,105.5z"/>
	<path fill="#36B590" d="M136.9,162.9c3.9,5.9,7.6,11.9,11.8,17.6c0.6,0.8,1.7,1.3,1.3,2.6c-0.9,0.3-1,0.9-0.9,1.7
		c0.3,2.3-1.1,4.3-0.6,6.7c0.2,1.2-1.8,2.6-2.7,4.2c1.4-0.9,2.4-0.5,3.1,0.9c0,0.3,0,0.5-0.1,0.8c-0.8,0.9-1.8,1.6-2.7,2.5
		c-0.4,0.4-1,1-1.4,0.8c-3-1.4-2.4,0.4-1.7,2c0.6,1.5-0.4,2.1-1.4,2.7c-0.9,0.5-1,1.4,0,1.5c1.6,0.2,1.5,1,0.9,1.9
		c-0.6,1-1.6,1.7-2.8,1c-0.7-0.4-1-1.8-2.2-0.6c-0.2,0.2-0.9-0.3-1.2-0.5c-1.5-1.1-2.6-2.1-4.8-1c-1.6,0.7-2.1-1.5-2.5-2.7
		c-0.5-1.3,0-2.2,1.6-2.1c0.2,0.1,0.4,0.4,0.6,0.5c-0.1-0.2-0.4-0.3-0.6-0.5c-0.8-0.6-1.3,0-1.6,0.5c-0.5,0.9-1.1,1.4-1.6,1.4
		c0.5,0,1.6,0.2,1.4,1.5c-0.2,1.3-0.9,2.2-2.5,2c-1.4-2.1-3.9-1.4-5.8-1.7c-1.2-0.2-2.4,0-3.6-0.7c-0.5-0.3-0.9,0-1.2,0.4
		c0.6,0.3,1.2,0,1.8,0.2c0.7,0.2,1.6,0.3,1.8,1.1c0.2,0.9-0.8,1.2-1.4,1.5c-1.1,0.4-1.7,1.4-2.4,2.2c-0.3,0.2-0.7,0.3-0.9,0.6
		c-0.9,1-1.4,4-3,0.5c-2.1,0.5-3.9-1.3-6-1c-0.7,0.1-1.5,0.1-2.1-0.5c-1-2.3-1.1-4.9-1.5-7.4c0-2.2,0.4-4.1,3.3-3.8
		c0.8,0.1,1.3-0.7,1.6-1.4c0.7-1.7,1.8-1.7,3.1-0.6c1.1,0.9,1.9,0.9,2.8-0.2c0.9-1.1,2.3-1.2,3.6-1.4c2.1-0.1,2.9-2.7,5-2.6
		c3.3-0.7,5.7-2.6,6.3-5.9c0.4-1.9,1-3.2,2.4-3.8c-2.6,1.7-3.9,1.3-5.1-1.7c-0.2-0.6-0.2-1.3-1.1-1.3c-0.8,0.1-0.7,0.7-0.8,1.2
		c-0.1,0.6-0.3,1.1-0.5,1.6c-1.6,3.9-2.5,4.3-6.3,2.7c-0.3-0.1-0.7-0.2-1.1-0.2c-0.7-0.2-1.2-0.6-1.4-1.3c-0.1-1.3,0.5-1.8,1.8-1.5
		c0.2,0,0.5,0.1,0.7,0.2c0.5-0.1,1.7,0.9,1.2-0.8c-0.1-0.6,0-1.2,0.1-1.8c0-0.4,0.2-0.8,0.1-1.1c-0.3-0.8-1.3-1.5-0.3-2.5
		c0.8-0.9,1.8-0.7,2.9-0.4c2.3,0.7,3.2,0,3.3-2.4c0-0.7,0-1.3-0.2-1.9c-0.5-1.3-1-2.5,0.4-3.5c1.5-1.1,3-0.8,4.4,0
		c0.8,0.5,1.7,1.1,1.8,2.2c-0.2-1.2-0.7-2.4-0.4-3.7c0.1-0.6-0.4-1.4,0.3-1.8c0.8-0.4,1.4,0.2,1.9,0.7c0.3,0.3,0.4,0.6,0.9,0.7
		c0.6-0.8-0.6-2.1,0.5-2.8c0.9-0.5,1.9-0.6,2.9-0.4c0.6,0.3,0,1,0.5,1.4c-0.1-0.4,0-0.9-0.3-1.2c-0.3-0.3-0.3-0.7-0.2-1
		C136.4,162.9,136.6,162.8,136.9,162.9z"/>
	<path fill="#1D1343" d="M220.2,86.4c1.9,1.2,4.5-0.1,6.4,1.5c0.5,0.5,1.9-0.3,1.9,1c0,1.2-0.7,2.6-1.7,2.7
		c-2.1,0.2-1.4,2.2-2.2,3.1c-0.4,0.4,0.2,0.9,0.9,1.3c3.3,1.7,3.5,3.9,0.6,6.1c-0.7,0.5-0.6,0.8-0.2,1.3c1.3,1.7,1.3,1.7,1.8,4.6
		c-1.5,0.4-2.3-0.9-3.4-1.4c-1.3-0.6-2.7-2.2-4.1,0c-0.6,0.8-1.1,0.1-1.5-0.5c-0.5-0.8-0.8-1.6-2.1-1.4c-3.5,0.7-6.8,0.3-9.7-2.1
		c-1.2-1-1.5,0.9-2.2,1.4c-1,0.9-0.8,2,0.3,2.9c1.5,1.2,1.7,3.1,0.5,4.3c3.7,0,5.9,4.5,3.9,7.9c-0.7,1.2-1.5,2.5-2.5,3.3
		c-1.5,1.2-1,1.9,0.2,2.8c-1.6,1.8-3.2,3.7-4.8,5.5c-0.7,0-1.5,0-2.2,0c-0.5-1.1-0.3-2.2,0.4-2.9c1.8-1.9,2.1-4.6,3.6-6.6
		c1-1.2,0.8-2.4-0.3-3.5c-0.6-0.6-1.2-1.2-1.5-2c-1.2-3.4-4.1-4.2-7.1-4.4c-2.8-0.1-5.1-1.5-7.7-2.3c-1.1-0.3-1.2-1.3-1.1-2.3
		c0.2-1.3,0.7-2.5,1.3-3.7c1-1.3,0.4-1.9-1-2.1c-0.2-0.2-0.5-0.4-0.5-0.7c0.3-3.4,0.4-6.8,1.5-10c0.9-1.3,2.6-2.2,1.7-4.2
		c-0.1-0.2,0.5-0.4,0.9-0.6c9.2-0.3,18.5-0.1,27.7-0.1C218.8,85.6,219.6,85.7,220.2,86.4z"/>
	<path fill="#191546" d="M110,123.2c1.1-5.1,3.5-9.7,5.7-14.5c2.3-5,4.8-9.9,7.8-14.5c0.8-0.5,1.5-1.1,2.5-0.8
		c0.8,1.2,2.2,0.5,3.3,1c1,0.4,0.6-1,1.3-1.1c-0.3-0.6-0.9-0.7-1.4-0.7c-1.1,0-1.5,1.5-2.7,1.2c-0.8-0.8-0.9-1.9-0.9-3
		c0.8-1.7,1.9-3.2,3.1-4.6c1.4-0.9,2.9-0.8,4.4-0.5c1.8,0.7,1.8,2.3,1.8,3.8c0,1.4,0.4,1.9,1.8,1.7c0.7-0.1,1.3,0.1,1.7,0.7
		c0.3,0.4,0.5,0.7,0.8,0c0.2-0.5,1.1-0.5,1-1.2c-0.1-0.6-0.5-0.8-1-0.7c-1.3,0.1-2.6-0.2-2.8-1.6c-0.2-1.2,0.6-2.1,1.7-2.6
		c2.6-0.4,5.1-0.3,7.7-0.1c2.8,0.7,4.2,3.3,6.4,4.8c1,0.7,1.1,2.1,0.9,3.3c-0.6,1-1.4,1.5-2.5,1.7c-1.3-0.5-2.7,0.1-4.1-0.9
		c-1.5-1.1-3,0.7-3.4,3.8c0.6-0.3,0.2-0.9,0.4-1.3c0.3-0.6,0.7-0.9,1.3-0.7c0.6,0.2,0.8,0.7,1.2,1.1c1.2,1.2,2.4,2.3,3.6,3.5
		c-2.9,3.9-3.8,4.1-7.4,2.2c-2-1.1-3.6-0.4-3,1.5c1.4,4.4-0.6,7.7-3,10.9c-0.7,0.5-1.5-0.1-2.2,0.2c0.6,2.3-1.8,5.4-4.2,5.3
		c1.5,1.7,2.5-1.1,3.9-0.5c1.2,2.5,0.7,3.6-1.9,3.5c-0.8,0-1.5-0.2-2.2,0.3c-1.2,0.9-2.3,0.5-3.3-0.3c-0.5-0.4-0.9-1-1.6-1
		c-0.8-0.1-1.6,0-2,0.7c-0.5,0.9,0.6,1,1,1.4c0.3,0.3-0.1-0.1,0.2,0.2c3.8,3,3.9,4.4-0.5,6.4c-2,0.9-3.1,3.5-5.8,2.9
		c-1.3-0.3-1.7-1.5-2.6-2.3C112,130,111.7,126.2,110,123.2z"/>
	<path fill="#337E3E" d="M166.9,46.8c8.2,0.6,16.4,0.1,24.6,0.2c4.3,0.1,8.6,0.1,12.9,0.1c0.6,0.8,1.5,1.1,2.5,1.5
		c0.9,0.3,2.7,0,2.1,1.8c-0.4,1.3-1.7,1.8-3,1.3c-1.9-0.7-3.2-0.1-4,1.7c-0.7,0.5-1.4,0.3-2.1,0c-1.7-0.8-3-0.6-3.8,1.4
		c-0.6,1.4-2,0.8-3.1,1c0.9,0,1.8-0.1,2.7,0c1.3,1.6,4.5,2.4,2.4,5.5c1.9,1.7-0.7,2.9-0.5,4.5c0.1,1.4-0.6,2.6-2.7,1.9
		c-2.1-0.7-1.7,1.7-2.6,2.6c-0.9,1,0.7,1.1,1.2,1.5c0.7,0.5,1.1,1.3,0.4,1.8c-2.3,1.9-0.8,4.1-0.4,6c0.7,2.7,0,4.3-3,5.3
		c-0.8-0.4-1-1.1-1-1.9c0-1-0.7-1.7-1.2-2.4c-0.6-0.8-2.4-0.6-2.2-1.8c0.3-1.3,0.2-2.8,1-4c0.8-1.1,1-2.2-0.3-3.2
		c-0.2-0.2-0.5-0.5-0.4-0.7c1.5-2.9-0.9-7,2.7-9.2c0.5-0.3,0.6-0.7,0.2-1.1c-1.2-1.3-1.6-2.9-2.3-4.5c-0.4-1-1-1.5-2.2-1.1
		c-0.9,0.3-1.8,0.5-2.7,0.5c0.9,0.7,1.5,3.4,0.7,4c-1.4,1-2.9,1.3-4.2-0.4c-1.1-1-1.9-2.1-2-3.8c-0.1-2-2.1-3.3-4.1-3.2
		c-0.7,0.1-0.8,0.4-0.9,1.1c-0.2,2.2,1.1,4.3,0.7,6.6c-0.1,0.4,0.4,0.9,0.9,1c0.9,0.2,1.4-0.5,1.7-1.2c1-2.4,2.3-2,3.7-0.4
		c1.1,2.4-1.2,4.4-0.7,6.8c0.1,0.3-0.5,0.8-1,0.8c-2.7,0.1-4.9,2.3-7.8,2c-1.4-0.1-2.7,0.7-4.1,0.9c-0.3,0-0.5,0.1-0.8,0.1
		c-1,0.1-2-0.4-2.9,0.2c-0.2,0.1-0.5,0.2-0.7,0.3c-1.6,0.1-2.7,1.3-3.9,2c-1,0.5-2.1,0.9-1.9-1c0.1-0.6,0.2-1-0.4-1.4
		c-1.7-1-0.8-2.1,0.3-2.8c1.2-0.9,1.3-1.9,1-3.2c-0.6-2.6-0.5-2.6,2.1-3.2c-3.4,0.8-3.8,1.2-4.8,4.5c-0.8,2.7-6.8,7.1-9.6,7.1
		c-0.9,0-1.5-0.2-1.3-1.2c0.1-0.6,0.2-1.3-0.1-1.9c1.6-2.1,3.4-3.9,5.3-5.6c1.2-0.1,1.3,1,1.7,1.9c1.2-1.5,1.3-3.4,2.4-4.8
		c0.9-1.1,3.1-0.9,3.3-2c0.2-1.7,1.1-2.7,2-3.9C160.2,51.8,163.4,49.1,166.9,46.8z"/>
	<path fill="#B63526" d="M377.1,86.5c-0.6-0.1-1.3-0.2-1.9-0.2c-16.3,0-32.6,0-48.9,0c-0.7,0-1.3,0.1-2,0.1c-0.9,0.8-2,0.9-3.1,0.9
		c-5.9,0-11.7,0.1-17.6-0.1c-0.5-0.1-1-0.2-1.5-0.5c-0.3-0.2-0.4-0.5-0.3-0.9c0.4-0.4,0.9-0.6,1.4-0.7c1.4-0.1,2.7,0,4.1-0.2
		c5.9,0,11.8-0.1,17.7,0c15.6,0.2,31.3,0,46.9,0c0.8,0,1.8,0.4,2.3-0.6c0.3-0.8-0.5-1.3-0.9-2c-6.8-10.5-13.8-20.8-20.7-31.2
		c-0.7-1.1-1.6-2.1-1.9-3.4c-0.1-0.3,0-0.6,0.2-0.9c2.7-0.3,5.5,0.3,8.2-0.3c12.6,9.1,23.7,19.6,32.9,32.2c-0.4,1-1.2,1-2.1,1.1
		c-0.8,0.1-1.3,0.7-1.4,1.7c1.8-0.8,3.5-2.1,5.3-0.4c1.9,2.4,2.7,1.6-2,5.2C386.9,87.7,382,87.9,377.1,86.5z"/>
	<path fill="#1CA17B" d="M115.4,131.7c0.8,0.9,1.5,1.7,2.3,2.6c0.9,0.7,1.8,1.5,2,2.8c0.9,2.8,1.3,5.4-0.6,8
		c-0.5,0.6,0.4,1.2,0.7,1.7c1.1,1.5,2.9,2.3,4.1,3.8c0.6,0.7,1.9,0.9,0.9,2c-0.8,0.9-2.1,2.5-3.2,1.3c-1.5-1.5-3.5-1.1-4.5-1.8
		c3.1,1.5,4.2,2.8,3.4,4.4c-1,2.3-3.9,3.9-5.6,3.3c-0.7,1.7-1.6,3.2,0.4,4.9c0.9,0.8,1,2.9,1.6,4.3c-0.5,3.2-0.8,3.5-3.4,2.9
		c-1.6-0.7-3.1-1.7-4.6-2.7c-0.1,2.3-2.3,3.5-4.6,2.5c-2.8-1.2-2.8-1.2-2.8,2c0,1.1,0.3,2.3-1.3,2.7c-0.4-14.5,1.9-28.7,6-42.6
		c1.8,1.7,4.4,0.4,6.4,1.6c0.8,0.5,1.8-0.3,2-1.4C115,133.2,114.7,132.3,115.4,131.7z"/>
	<path fill="#1C9D74" d="M184.2,296.3c-1.6,3-3.6,5.8-5.6,8.5c-1.4,0.2-1.4-1-1.6-1.8c-0.3-1.1-0.2-2.3-0.6-3.5
		c0,0.8,0.4,1.6-0.1,2.2c-0.5,0.8-0.5,2.4-1.9,2c-1.2-0.3-1-1.6-0.9-2.9c-1.5,2.7-4.4,1.8-6.6,2.7c-1.1,0.5-4.6-1.8-5.1-3
		c-0.4-1.2,0.3-1.7,1.3-2.1c0.3-0.1,0.6,0.5,0.8,0c0,0-0.3-0.2-0.4-0.4c-0.3-0.3-0.7-0.4-0.9,0c-0.4,0.6-0.8,1.3-1.1,1.9
		c-0.6,1.2-1.1,2.6-2.6,3.2c-9-7-16.7-15.3-23.7-24.2c-2.4-3-5-6-6.8-9.5c0.3-0.9-0.1-1.7-0.1-2.5c0-0.3,0.2-0.5,0.3-0.7
		c1.2-0.7,2.3-0.7,3.3,0.3c1.6,1.8,3.5,3.5,3.6,6.1c0,0.7,0.1,0.7,0.6,0.6c0.4,0,1,0,1,0.3c0.2,2.3,2.6,2.6,3.6,4
		c-0.2-1-0.1-2,1.1-2.7c0.5-0.3,1.4-0.3,1.3,0.4c-0.1,2.3,1.6,3.7,2.6,5.4c0.4,0.7,0.2,1.2-0.2,2c1.3-1.2,2.2-2.5,2.7-4.1
		c0.6-2.2,3-1.8,4.6-2.3c1.1-0.4,1.6,1.1,1.5,2.4c-0.1,0.5,0.3,0,0.5,0c1.7-0.2,3,0.5,3.4,2.2c0.2,0.8,0.5,1.3,1.3,1.7
		c0.6,0.3,1.3,0.6,1,1.4c-0.3,0.8-1.1,0.9-1.9,1c-0.8,0.2-1.3-0.8-2-0.7c1.5,1.7,2.1,3.8,2.3,5.9c0.1,1-0.6,2.4-2.2,2.4
		c-1.4,0-0.8-1.1-0.9-1.4c0,1.9,0.4,2.3,3.1,1.2c1.9-0.8,3.2-0.4,4.6,0.9c0.7,0.7,1.4,1.2,2.3,1.6c0.8,0.4,1.6,1.2,2.6,0.6
		c0.9-0.6,0.4-1.5,0.4-2.3c-0.1-2.3,3.6-5.8,5.4-5.1c0.4,0.2,1.2,0.4,1,0.8c-1.2,2.3,0.9,2.2,1.9,2.6c1.2,0.5,2,1.8,3.7,1.2
		c1.3-0.5,2.7,0,2.2,1.7C182.7,295.7,184.2,295.5,184.2,296.3z"/>
	<path fill="#191648" d="M178.5,225c-5.7-7.9-11.1-16.1-16.4-24.3c1.8-2.2,4.6-2.8,6.8-1.1c-0.6-1.4-1.9-2.1-1.7-3.7
		c0.4-2.5,0.7-2.9,3.3-2.5c1.2,0.2,2.2-0.3,3.1-1c1.7-1.3,3.3-2.4,5.6-1.7c1.2,0.3,2.1-0.7,3.1-1.2c2.6-1.3,4-0.5,4,2.3
		c0,1.1,0.9,1.4,1.2,2.1c0.3,1.3,0.7,2.6,1,4c-2.1,4.7-3.5,9.6-3.9,14.8c-0.4,4.4-2.4,8.4-2.9,12.8c-0.2,1.4-0.9,1.8-2.1,0.7
		C179.2,225.9,179.1,225.3,178.5,225z"/>
	<path fill="#C7215D" d="M302.7,86.4c7.2,0,14.4,0,21.6,0c-2.2,4.3-5.1,8.1-7.8,12.1c-3.1,4.6-6.1,9.3-9.2,14
		c-0.5,0.7-0.9,1.4-0.4,2.3c-4.3-2.8-8.9-5.2-13.5-7.5c-0.4-0.5-1.6-0.3-1.3-1.5c0.3-0.9,0.7-1.7,1.6-1.7c1.2,0,2.3-0.6,3.6-0.5
		c-0.8-0.5-2-0.7-1.7-2c0.5-0.5,1.1-0.9,1-1.8c-0.1-1.1-0.2-2.3,1.3-2.5c1.6-0.2,0.7-1.3,0.9-2c0.6-1.9-1.4-2.9-1.5-4.8
		c0-1.8,0.5-3,1.4-4.2c0.2-0.1,0.5-0.2,0.7-0.1C300.6,87,301.6,87.2,302.7,86.4z"/>
	<path fill="#387E3D" d="M164.4,69c0.2,0,0.4,0,0.6,0c0.3,0.3,0.6,0.4,1,0.5c1.1,0.4,1.8,1.1,1.5,2.3c-0.3,1.2-1.3,0.7-2.1,0.7
		c-0.6,0-1.1,0.1-1.9,0.6c1.4,0.4,2.1,1.4,2.4,2.6c0.2,1.1,0.7,2.5-0.7,2.9c-1.5,0.5-2.3-0.7-2.7-2.2c-0.5,0.7-1.1,1.6-1.4,2.6
		c0.5,0,0.7-0.6,0.9-0.6c2.9,0.9,6.1-1.1,8.8,0.5c1.1,0.6,0.8,2.5,2.2,3.2c0.7,0.4,1.2,1.6,1.8,2.4c0.8,1,0.2,1.5-0.8,1.8
		c-8.5,0.3-17,0.3-25.5,0c-3.7-0.1-7.4-0.3-11.1-0.3c-0.3,0.1-0.6,0.3-1,0.4c-1.6,0.4-3.1-0.6-4.7-0.4c-1.5-0.5-0.8-1.5-0.4-2.2
		c0.7-1.4,1.3-2.8,2.1-4.2c0.4-0.6,0.9-1.2,1.3-1.8c1.2,0.8,2.2,2,4,2c-2.2-0.3-2-1.8-2-3.2c0-1.5,0.6-2.2,2.1-1.6
		c1.6,0.7,2.5,0,3.2-1.2c0.9-1.5,2.1-2.5,4.1-2.3c0.7,0.1,1.6-0.3,2.3-0.8c2.6-2,4.5-1.6,6.3,1.1c0.5,0.8,1,0.8,1.8,0.5
		c1.8-0.8,3.6-1.5,5.1-2.8l0,0C162.5,68.7,163.7,70.1,164.4,69z"/>
	<path fill="#24AE87" d="M100.4,176.4c1.2-1.3,0.5-2.8,0.4-4.3c0-1.8,1-2.3,2.3-1.7c1.5,0.7,2.7,1.5,4.2,0.2
		c0.1-0.1,0.6,0.3,0.8,0.5c1.2-1.1-1.8-1.2-0.3-2.5c1.4-1.2,1.7,0.5,2.6,0.8c0.2,0.1,0.3,0.2,0.5,0.3c0.9,0.6,1.9,1.1,2.8,1.7
		c-2.5,1.7-5.2,3.2-6.6,6.2c-0.9,1.9-3.2,0.9-4.8,1.3c-0.1,0.4,0,0.6,0.1,0.7c2.8,0.7,3.3,2.4,2.2,4.9c-0.1,0.3-0.4,0.7,0.4,0.9
		c2.8,0.8,4.1,2.9,4.5,5.6c0.1,1.1,1,1.8,1.3,2.7c0.2,0.3,0.6-0.2,0.3,0c0,0-0.1,0-0.1-0.1c-1.4-4-0.8-5.7,2.8-7.3
		c0.5-0.2,1.1-0.3,1.5-0.8c0.8-0.5,1.3-0.2,2,0.4c1.7,1.7,2.9,1.1,3.8-0.9c0.8-1.6,2.2-3.1,0.9-5.2c2.4-0.2,3.7,0.1,3.9,2.8
		c0.2,2.2,2.2,1.2,3.4,0.9c0.6-0.2,0.9-0.9,2.3-0.6c-3.1,1.7-2.6,5.1-4.3,7.3c-1.4,1.8-2.8,4.1-5.7,3.8c-0.5-1,0.4-1.4,0.9-2.3
		c-2,1.9-4,3.5-5.9,5.1c-1.4,0.2-2.9,0.2-3.7,1.9c-0.8,1.6-2.2,0.9-2.9-0.1c-1.4-1.9-1.8-1-2.6,0.5c-0.3,0.5-0.4,1.8-1.3,1.6
		c-2.7-0.7-3.5,0.8-4.1,2.9C100.7,194.5,99.9,185.5,100.4,176.4z"/>
	<path fill="#16123A" d="M178.5,225c1.2-0.3,1.2,1.5,2.3,1.3c1.4-6.6,3.6-13.1,4-19.8c0.2-3.3,2.9-5.1,2.8-8.1
		c0-0.2,0.6-0.4,0.9-0.6c0.6,2.1,1.2,4.2,1.8,6.2c-1.5,2.2,0.5,3.2,1.6,4.5c0.2,0.4,0.4,0.8,0.6,1.2c0.1,0.3,0.2,0.6,0,0.8
		c-3.3,2.6-0.9,4.9,0.4,7.1c0.7,1.2,1,2.1,0.7,3.6c-0.4,1.9,0.2,3.9,1.4,5.6c1.7,2.4,1.3,4.6-0.3,6.9c-1.2,1.8-1.8,3.8-1.8,6
		c0,1.7-0.4,3.3-1.8,4.4c-1.6-0.4-2-2-3-3.1c-2.2-3.6-5.1-6.9-6.6-10.9C180.5,228.4,179.5,226.7,178.5,225z"/>
	<path fill="#12133C" d="M187.5,193.9c-1.1-0.7-2.8-0.9-1.4-3c0.6-0.9-1.5-2-2.8-1.2c-1.8,1.1-3.3,2.5-5.8,1.4
		c-0.7-0.3-2.2,0.9-3.2,1.8c-1.7,1.5-3.5,2.4-5.7,0.3c0.7,1.6-2.4,3.8,1.2,5.1c1.2,0.5-0.8,1.6-1.1,2.8c-1.2-2.3-3.3-2.3-6.4-0.4
		c-2.4-2.5-3.8-5.7-5.9-8.5c-1.4-0.3-1.6-1.7-2.4-2.5c-1.4-2.2-3.3-4-4-6.6c0.1-1.1-1.1-1.6-1.1-2.7c2,0.7,4,1.3,5.9,2.3
		c0.9,0.4,1.4,1.1,2.3,0.1c0.5-0.6,1.3-0.1,1.6,0.5c0.3,0.6,1.1,0.9,1.4,0.6c1.9-1.9,4.4,0.1,6.3-1.1c0.7-0.5,1.5,0.1,2,0.6
		c0.8,0.8-0.5,0.6-0.6,1c-0.4,1.2,0.3,1.1,1.1,1c1.4,0,2.9-0.6,3.7,1.7c0.5,1.6,3.3,1.3,4.2-0.4c0.5-0.9,1.1-1.7,2.1-2.1
		c0.6-0.3,1.6-0.9,1.6-1.4c-0.1-4.6,2.7-2.4,4.6-2.1c0.3,0,0.6,0.1,0.8,0.1C186.4,185.7,186.9,189.8,187.5,193.9z"/>
	<path fill="#191648" d="M191,244c1.9-2.6,1-5.7,1.9-8.6c0.6-1.7,2.4-2.7,2.4-4.8c0-0.9,0.2-1.9-0.4-2.5c-1.8-1.7-1.3-4.1-2.3-6
		c0-0.1-0.1-0.2-0.1-0.3c-0.5-4.1-0.5-4.1-2.8-8c-0.5-0.9-0.3-1.4,0.5-1.8c1-0.6,1.8-1.3,2.4-2.3c3.7,7.4,8.1,14.3,13.6,20.6
		c-3.3,5.6-5.6,11.6-9.1,17c-0.6,0.9-1,2-2.2,2.5c-1.5-1.6-2.3-3.8-4-5.3c-0.1-0.1-0.1-0.1-0.2-0.2C190.8,244.2,190.8,244,191,244z"
		/>
	<path fill="#111124" d="M195,249.8c2.3-4,4.6-8.1,7-12.1c0.8-1.3,0.7-2.9,1.3-4.2c1.1-2.4,1.1-2.6,2.9-3.2c1.2,1.2,2.3,2.3,3.5,3.5
		c0.4,3.7-1.7,6.7-3,9.9c-0.6,1.6-0.4,2.8,0.2,4.2c1,2.3,2.5,4.3,3.8,6.5c0.3,0.5,0.8,0.8,0.5,1.5c-1.9,3.1-3.8,6.2-6.1,9.1
		c-1-0.2-1.6-1-2.2-1.7c-2.1-3.2-4.2-6.3-6.3-9.5c-0.5-0.7-1.2-1.4-1-2.5C195.4,250.9,195.2,250.3,195,249.8z"/>
	<path fill="#1E1C52" d="M211.2,255.9c-2.8-2.8-4.6-6.3-5.8-10c-0.5-1.4,0.8-3.7,1.8-5.3c0.9-1.5,2.1-2.7,1.4-4.8
		c-0.3-0.7,0.4-1.6,1.2-2.1c3.6,2.9,7.1,5.8,10.7,8.6C217.3,246.9,214.3,251.4,211.2,255.9z"/>
	<path fill="#3AB282" d="M158.8,303.2c0.8-2,2.8-3.4,3-5.8c0.1-0.9,1-0.8,1.5-0.5c0.7,0.5,1.4,1.1,1.6,1.9c0.1,0.5-0.8,0.9-1.5,0.3
		c-0.6-0.5-1,0.1-1.3,0.5c-0.5,0.7,0.2,1,0.6,1.2c1.6,0.8,2.9,3.6,5.2,1.1c2.2,1.4,3.4-0.4,4.9-1.5c0.4-0.3,1.1-0.3,1.6,0.1
		c0.9,0.8-0.5,0.7-0.5,1.1c0,0.6,0.2,1.2,0.3,1.8c2.2-1.3,0.8-4.3,2.8-5.7c0.2,2.6-0.1,5,1.5,7.1c-1.9,3-3.8,5.9-5.7,8.9
		C167.9,310.6,163.2,307.2,158.8,303.2z"/>
	<path fill="#84913A" d="M161.7,69.5c0.3,2-1.8,1.6-2.6,2.5c-0.7,0.8-2.3,0.3-3.3,1.2c-0.6,0.5-1.2-0.3-1.6-0.8
		c-1.8-2.7-3.2-2.9-5.6-1c-0.7,0.6-1.7,1.1-2.6,0.8c-1.7-0.6-2.3,0.4-3.1,1.5c-1.1,1.8-2.1,4-4.7,1.7c-0.3-0.3-1,0.2-0.9,0.3
		c0.8,1-0.3,2.5,1,3.4c0.8,0.5,2,0.9,1.1,2.6c-0.9-2.2-4.4-0.8-4.6-3.8c2.3-3.2,4.8-6.2,7.6-9c2.3,0.3,0.6,1.7,0.7,2.3
		c4.6,0.7,6.2-3.5,9.3-5.4c0.6-0.4,0.4-0.9,0.4-1.5c0.1-2.1,1.3-3.6,3.3-3.7c1.4,0,2.8-2.5,4.3-0.4c-0.3,1.2-1.2,0.6-1.7,0.6
		c-2.4,0-2.8,1-1.9,3c0.7,1.5,0.7,3-1.4,3.5c-0.6,0.1-1,0.5-1,1.2c0,1.1,0.8,0.3,1.2,0.4c1.8,0.8-0.1,1.9,0.2,3
		C157.9,71.5,159,68.6,161.7,69.5z"/>
	<path fill="#097E7D" d="M103.7,210.8c2.5-0.1,5.1-0.8,7.1,1.4c2.1-1.9,1.6,0.3,1.8,1.2c1.6-0.2,0.4-3.5,2.9-2.6
		c0.6,1.6,3,1.4,3.3,3.2c0,0.7-0.5,1.3-0.4,1.9c0.4,2.2-1.3,2.3-2.6,2.4c-3.5,0.3-6.9,0.6-10.4,0.3
		C104.4,216.1,103.9,213.5,103.7,210.8z"/>
	<path fill="#16496F" d="M105.4,218.7c1.8-1.8,4-0.4,6-0.7c1.4-0.2,2.9-0.6,4.4-0.3c3,0.5,1.1-2.6,2.5-3.4c0.3-0.5,0.5-0.9,1.2-1
		c2.2,0.4,4.4,0.8,6.1,2.4c4.7,1.6,8.4-0.4,11.8-3.4c1.6-1.4,1.7-1.3,2.9-0.3c-0.9,1.7-2.2,3.1-4.2,3.5c-0.5,0.1-1.3,0.4-1.5,0.7
		c-0.8,2.5-3,1.8-4.6,2c-1.7,0.2-3.6,0.6-5.3-0.9c-1.3-1.1-3.4-1.4-4.9,0c-2.4,2.3-5.7,2.5-8.5,3.6c-1.6,0.7-3.5,0.7-5.3,1.1
		C106.1,220.9,105.2,219.9,105.4,218.7z"/>
	<path fill="#196E5E" d="M115.4,131.7c-0.6,1.3,1.5,2.9-0.8,4.1c-1.1,0.6-1.9,0.9-3,0.2c-0.8-0.6-1.6-1.3-2.9-0.2
		c-0.6,0.5-1.5-1.3-2.4-1.9c0.8-3.7,1.8-7.3,3.6-10.6c1.3,2,3.6,3.4,3.1,6.3C113,130.1,114.6,130.9,115.4,131.7z"/>
	<path fill="#BC2343" d="M377.1,86.5c4.9,0,9.7,0,14.6,0c-3.2,2.8-6.5,5.5-10,8C380.9,91.4,378.3,89.3,377.1,86.5z"/>
	<path fill="#27AD83" d="M128.4,266.6c0,0.2,0,0.3,0,0.5c0.2,1.1-0.5,1-1.2,1c-1.2-1.8-2.7-3.4-3.3-5.5c1.1-0.8,1.7-3.5,3.6-0.6
		c0.4,0.6,2.2-0.4,3.2-1c3.4-1.9,6.4-0.5,9.4,0.9c0.4,1-0.5,1.6-1.1,1.5c-2.2-0.3-4.4,1.4-6.5-0.2c-0.6-0.4-1.4,0.1-2.1,0.4
		c-0.8,0.3-1.5,1.2-2.6,0.6C127.7,265.2,128.6,265.8,128.4,266.6z"/>
	<path fill="#8F953D" d="M157.1,54.5c0.3,1.5-3,2.9-0.3,4.7c0.2,0.1-0.6,0.7-1.2,0.5c-2.5-0.4-3.9,0.9-4.1,3.2c-0.1,1.2-2,1.6-0.9,3
		c-0.4,0.1-0.9,0.2-1.3,0.2c-0.6,0-1.2-0.3-0.9-1c0.4-0.9-0.1-1.4-0.7-1.9C150.5,60,153.8,57.2,157.1,54.5z"/>
	<path fill="#934125" d="M353.4,43c-2.9,3.3-2.9,3.3-5.4-0.7c-1-1.7-2.2-3.2-3.3-4.8C347.9,38.9,350.8,40.7,353.4,43z"/>
	<path fill="#822859" d="M295.7,101.7c0.6,1.2,2,1.2,3.2,2.2c-1.9-0.1-2.8,1.4-4.8,0.9c-1.5-0.4-1.6,1.4-0.6,2.6
		c-1.7-0.3-3.1-1-4.6-1.8c0-0.1,0.1-0.2,0.1-0.2c2.1,0.1,2.5-1.7,3.5-2.9C293.3,101.2,294.5,101.2,295.7,101.7z"/>
	<path fill="#612515" d="M393.7,81.3c-0.1,0.2-0.1,0.3-0.2,0.5c-1.5-1.4-2.8-0.6-4.1,0.4c-0.6,0.5-1.1,1.2-1.8,0.2
		c-0.6-0.8,0.2-1.3,0.3-1.8c0.6-2.8,3-0.4,3.9-1.6C392.6,79.6,393.4,80.3,393.7,81.3z"/>
	<path fill="#979A43" d="M133.5,79.7c0.4,2.4-1.9,4-2,6.2c-0.8,0.2-1.7,0.5-2.4-0.2C130.2,83.5,131.7,81.5,133.5,79.7z"/>
	<path fill="#191648" d="M192,208.6c-1.3-0.3-2.4-1-3-2.2c-0.8-1.5-0.2-2.2,1.4-2.2C191.1,205.5,191.9,206.9,192,208.6z"/>
	<path fill="#9F3C5D" d="M125.5,91c0.6,0.8,1.3,1.6,0.6,2.7l0,0c-1-0.1-1.7,1-2.7,0.6C124.1,93.1,124.5,91.9,125.5,91z"/>
	<path fill="#2D402A" d="M129.1,85.7c0.8,0.1,1.6,0.1,2.4,0.2c1.5,0,3.1,0.1,4.6,0.1c-0.7,1.6-1.7,0.9-2.7,0.4c-1.6,0-3.2,0-4.8,0
		C128.8,86.2,128.9,86,129.1,85.7z"/>
	<path fill="#188966" d="M127.3,268.1c0.4-0.3,0.8-0.6,1.2-1c0.6,0.8,2,1.7-0.1,2.4C128,269,127.6,268.5,127.3,268.1z"/>
	<path fill="#0C5244" d="M203.5,263.1c0.5,0.6,1.1,1.3,1.6,1.9c0,0.1,0,0.3,0,0.4c-6.5,9.6-13,19.2-19.5,28.8
		c-0.3,0.4-0.6,0.7-0.9,1c-1,0.2-2.5,1-1.4-1.1c0.5-0.9,0.5-2,1-2.9c0.4-0.8,0.6-1.9,1.9-1.7c-0.5-1-1.5-0.6-2.2-0.8
		c-0.7-0.1-1.2-0.6-1.3-1.3c-0.1-0.8,0.6-1,1.3-1.3c1.8-0.6,3.9,0.2,5.7-1.5c-2.3,0.6-4.5,1.3-6.5,0c0.9-1.9-1.7-3.3-0.8-5.2
		c-0.2,0.5-0.7,0.8-1.1,1.2c-0.2,0.1-0.5,0.1-0.8,0.1c-1.6-0.5-2.4,0.9-3.5,1.7c-0.2,0.2-0.4,0.3-0.6,0.5c-1.3,0.6-2.5,0.7-3.9-0.1
		c-1.3-0.8-2.9-1.6-4,0.9c-0.6,1.3-1.8,0.5-1.8-0.6c0-1.9-1.2-2.8-2.1-4c-0.2-0.2-0.2-0.6-0.5-0.6c-1.2,0.1-3,0.5-2.7-1.2
		c0.5-3-2.8-6.2,0.6-8.9c2.6-0.2,5.1-0.2,7.6,1.1c2.7,1.5,5.5,0,8.1-0.7c1.6-0.4,3.2-1.2,4.3-2.7c0.9-1.1,2.4-1.4,3.9-1
		c1.4,0.1,2.7,1,4.1,1c0.3,0.1,0.5,0.2,0.7,0.3c2,0.1,3.8-0.7,4.9-2.3c1.2-1.9,3.5-1.8,5.1-2.9C201.7,260.6,202.6,262.4,203.5,263.1
		z"/>
	<path fill="#339947" d="M251.2,47.1c6.6,0,13.1,0,19.7,0c-1.1,2.2-3,0.3-4.3,0.8c0.3,0-0.1,0.1-0.1,0c4.2-0.7,4.1,2.3,4.2,4.9
		c0,0.8-0.8,1.2-1.5,1.5c-0.8,0.3-2.2-1.1-2.3,1.2c-0.1,2,0.7,2.5,2.1,3c0.2,0.1,0.3,0.2,0.5,0.1c-1.6-2.5-1-4,2.3-4.2
		c2.6-0.1,4.1-1.4,5.8-2.8c1.1-0.3,1.4,0.8,2.1,1.1c1.2,0.4,2.6,1.1,2.4,2.4c-0.2,1.4-1.9,0.5-3.1,1c0.9,0.8,1.7,1.5,0.4,2.7
		c-1.3,1.2-0.1,1.7,0.9,1.6c2.9-0.4,3.6,2.5,5.6,3.6c0.4,0.2,0.5,0.9,0,1.2c-2,1.7-0.6,2.8,0.7,3.9c3,0.7,4.5,2.5,4.6,5.8
		c0.1,3,0.7,5.9,2,8.6c0.8,1.6,0.4,2.5-1.7,2.5c-20.3-0.1-40.6,0-60.9-0.1c-0.4-1.4,0.7-1.3,1.5-1.5c1.1-0.1,2.3-0.1,3.4,0
		c3.9,0.4,7.2-0.2,9.5-3.8c0.5-0.9,1.5-1.3,2.6-1.5c2.9-0.4,3.8,0.4,3.7,3.4c0.7-0.7,0.9-1.6,1.5-2.5c-1.6-0.3-2.5-1.6-3.8-2.3
		c-1.6-0.8-2.9-1.8-1.8-3.7c1-1.6,2.6-2.3,4.6-1.6c2.5,0.9,4.2,0.3,5.6-1.7c-0.4,0.8-1.1,1.4-2,1.1c-2.3-0.7-4.4,0.2-6.6,0.5
		c-2.1,0.4-3.3-0.4-4-2.2c-0.7-1.9-1.8-3.4-3.6-4.4c-1.4-0.8-1.8-2.3-1-3.9c0.5-0.9,1-1.8,0.1-2.8c-0.9-1.1-1.7-0.8-2.7-0.3
		c-0.5,0.3-1.1,0.3-1.6-0.2c-0.5-0.6-0.2-1.2,0.2-1.8c0.3-0.5,0.8-0.8,1.2-1.2c2-1.9,4.1-3.5,6-5.5c1.2-1.4,4.1-1.3,5.4-0.1
		c1.1,1,1,3.5-0.2,4.9c-0.7,0.8-1.4,1.6-2.2,2.2c-2.5,1.9-2.6,1.8-0.6,5c0.9-2.2,2.3-2.6,3.8-0.7c0.6,0.7,1.1,0.7,1.6,0
		c1.4-1.9,3.4-1.7,5.3-1.8c0.7,0,1.8,0.5,1.7-0.7c0-1-1-0.5-1.6-0.4c-2.4,0.3-3-1.7-3.4-3.3c-0.3-1.3-0.5-2.3-2.1-2.4
		c-0.8,0-1.7-1.1-0.9-1.5C252.4,50.2,250.6,48.4,251.2,47.1z"/>
	<path fill="#CBB32F" d="M325.3,85.9c-6.1,0-12.3,0-18.4,0c-0.2-0.2-0.5-0.2-0.7-0.3c-0.9-0.5-2.3,0.5-2.7-0.9c-0.3-1.3,1-1.7,2-1.9
		c1.5-0.3-0.8-2.4,1.2-2.3c1.1,0.1,2,1,3.2,0.8c0.5-0.1,0.7-0.2,0.6-0.9c-0.7-0.4-1.8,1.1-2,0.2c-0.3-1.9-2.5-2.1-2.8-3.8
		c-0.1-0.3-0.1-0.6,0-0.8c0.9-2.5,0.6-3.1-2-3.5c-0.8-0.1-1.5-0.4-1.8-1.1c-0.4-1.1,0.6-1.4,1.1-2c0.2-0.1,0.5-0.3,0.7-0.3
		c1.7-0.3,3.1-0.9,1.8-2.9c-1.3-2,1.2-2.4,1.5-3.7c0.1-0.6,1.7-1.6-0.4-1.4c-0.1-2-4.6-0.6-2.9-3.8c0-0.1-0.3-0.2-0.4-0.3
		c-3.5-2.8-3.5-3-0.5-6.7c-0.3-0.2-0.4,0.1-0.6,0.2c-0.9,0.7-0.7,3.1-2.4,2.2c-1-0.6-0.8-2.6-1.8-3.7c-0.4-0.5,0.6-1.2,1.1-1.7
		c17.3,0,34.6,0,51.9,0.1c0,0.1,0,0.3-0.1,0.4c-0.2,2-1.6,3.4-2.6,4.9c-4.8,6.9-9.1,14.1-13.9,21C331.3,77.6,329,82.3,325.3,85.9z"
		/>
	<path fill="#348B42" d="M232.6,85.3c-0.8,0.1-1.6-0.2-2.2,0.5c-0.9,0.7-2,0.4-3,0.4c-11.8,0-23.5,0-35.3,0c-1.6,0-3.2,0.1-4.7,0.7
		c-0.5,0.1-1.1,0.1-1.5-0.2c-0.7-1.3,0.2-1.7,1.2-1.9c1.3-0.3,2.6-0.4,3.8,0c0.5-0.3,1.5-0.3,1.3-1.2c-0.5-1.9,0.9-1.2,2.5-1.4
		c-2.9-2.3-1.1-5.7-3.1-8.1c0.6-0.2,1.3-0.3,1.8-0.5c0.3-0.1,0.7-0.5,0.7-0.8c0-0.5-0.5-0.9-1-0.6c-1.4,0.7-1.6-0.8-1.9-1.4
		c-0.3-0.8,0.1-1.6,1.2-1.6c0.3,0,0.5-0.1,0.5-0.5c0.2-2.1,1.6-2.6,4-1.3c-2.1-0.9,2.5-2.8-0.9-3.4c0.7-1,2-0.8,2.8-1.6
		c-0.7-0.1-1.3-0.2-2.2-0.4c3.9-2.7-0.5-4-0.8-6c0.1-0.1,0.2-0.2,0.2-0.3c1.9-1.3,4.2-0.9,6.2-1.8c0.1,0,0.1-0.2,0.1-0.2
		c0-0.1-0.1-0.1-0.2-0.2c0,0-0.2-0.2-0.2-0.2c0-2.3,1.2-3.1,3.4-2.5c1.7,0.5,1.7,0.5,3.4-0.9c-1.9-0.4-3.9-0.5-4.5-2.7
		c10.3,0,20.7,0,31,0.1c1.5,0.3,2.8,1.3,4.5,0.4c0.8-0.4,1.6,0.4,1.7,1.4c0.1,0.9-0.2,1.7-1.3,2.1c-2.9,1.2-5.9,2-8.6,3.6
		c-0.3,0.2-0.7,0.5-1,0.5c-2.1-0.6-3.9-0.3-5.7,1c-1.1,0.8-1.3-1.8-3.1-1.2c1.8,0.8,2.1,2.1,2,3.6c-0.1,0.9,0.4,1.3,1.1,1.7
		c2.8,1.8,3.2,4.5,0.9,7.1c3.1,0,4.2,1.7,4.2,4.4c0,1,0.6,1.5,1.4,1.9c1.1,0.5,1,1.5,0.8,2.4c-0.2,1.2-1.2,0.9-2.1,0.9
		c1.4,1.5,2.1,3.4,4.5,3.6c0.9,0.1,1.6,1.3,1.5,2.5c-0.1,1-1,1.3-1.8,1.5C233.8,84.8,233.1,84.7,232.6,85.3z"/>
	<path fill="#1E9045" d="M232.6,85.3c0.1-0.8,0.6-1,1.3-1.1c0.8-0.2,2.2-0.2,1.7-1.6c-0.3-0.9-0.9-2.1-2.2-1.7
		c-1.4,0.4-2.4,0.6-2-1.5c0.1-0.6-0.6-0.8-1.1-1.1c-0.7-0.5-2.1-0.7-1.2-2c0.8-1.2,1.6,0,2.7,0.5c-0.3-1.2,1-2.8-1.4-2.7
		c-1.3,0-0.8-1.2-0.8-1.7c0-2.7-0.9-4.5-4-4.3c-0.5,0-1,0.1-1.2-0.4c-0.2-0.6,0.3-0.8,0.8-0.9c1.2-0.4,2.1-1.1,1.7-2.4
		c-0.4-1.4-0.4-3.2-2.4-3.6c-1.2-0.2-2.2-0.3-1.2-2c0.3-0.5,0.9-2.6-1.1-2.7c-1.2-0.1-1-0.6-0.9-1.4c0.3-1.2,1-1.1,1.9-0.9
		c1.2,0.3,1,1.4,1.5,2.1c1.3-0.7,2.5-1.7,3.6-3.1c0.7,2.9,2,2.3,3.7,1.2c2.6-1.6,5.5-2.7,8.5-3.4c0.8-0.2,0.8-1,0.7-1.4
		c-0.1-0.6-0.8-1.5-1.3-0.9c-2.2,2.8-3-0.6-4.5-0.9c5.2,0,10.5,0,15.7-0.1c0,0.2,0,0.4,0.1,0.5c1.8,1.8,2.6,3.4-0.9,3.8
		c0.3,1.3,1,0.7,1.6,0.7c1.6-0.1,2.2,1,2.2,2.2c0,2.3,1.2,3.5,3.4,3c0.6-0.1,1.2-0.3,1.4,0.3c0.2,0.7,0.8,1.3,0.4,2.1
		c-0.4,0.6-1.1,1.1-1.6,0.9c-3.4-1.3-5.6,0.2-7.4,3.1c-1.1-1.1-0.8-3.3-3.1-2.9c-0.5,0.5,0.9,2.3-1,2.4c-1.4,0.1-1.6-1.2-1.9-2.1
		c-0.6-1.7-2.3-3.7,1.5-4.4c1-0.2,3.3-1.7,3-4.1c-0.1-1,0.4-1.9-1.1-2.4c-1.4-0.5-3.1-0.9-3.9,0.4c-1.6,2.4-4.1,3.7-6.1,5.7
		c-0.6,0.6-1.6,1-1.4,2.1c0.6,0.4,0.9,0,1.3-0.2c0.8-0.4,1.4-2,2.4-0.3c0.7,1.1,2.6,1.6,1.2,3.7c-1.1,1.6-1.8,3.3,1.3,4.3
		c0.9,0.3,2.6,1.9,2.8,3.9c0.1,1.5,0.9,2.4,3.2,2.1c2.1-0.3,4.3-1.9,6.7-0.5c1.5,0.9,2.1-2,3.8-1.5c-1,2.8-3.5,3.6-6,4.3
		c-0.9,0.3-1-0.3-1.5-0.7c-1.7-1.5-3.1-0.1-4,1c-0.9,1.1-0.2,2,1.3,2.5c1.8,0.6,2.7,3.3,5.7,2c-1,1.7-2.6,2.5-2.4,4.3
		c0.1,0.9-0.8,0.8-1.5,0.6c-0.5-0.2-1-0.5-0.7-1.2c0.3-0.8,1.7-1.9,0.1-2.5c-1.3-0.5-3.3-0.9-4.2,0.7
		C242.7,86.3,237.5,85.4,232.6,85.3z"/>
	<path fill="#B4AD35" d="M303.5,69.5c-0.1,0.8-1.4,0.9-1.1,1.6c0.5,1.2,1.4,0,2,0.2c2,0.9,3.1,2.6,3.9,4.4c-0.6,0.9-1.9-0.9-2,0.5
		c-0.1,1.1,0.5,1.5,1.9,1.5c1.8-0.1-1.3,2,1,2.3c0.3-0.2,0.9-0.7,1.8-1.5c-0.3,1.4,1.2,2.7,0.2,3.4c-1.6,1-3.1-0.9-5-1
		c-0.5,0.7,2.2,1.3,0.1,2.2c-0.8,0.4-2.2-0.1-2.5,1.5c0.9,0.6,2.5-0.1,3.1,1.2c-1.3,0-2.6,0-4,0c-1.1-0.2-2.1-2-3.5-0.4
		c-2.3,1-2.9-0.7-3.2-2.3c-0.5-2.4,1.8-1.7,3-2.3c0.3-1.2-0.8-0.8-1.2-1.1c-0.8-1.5-0.5-3.8-3-4c-0.4-0.5-0.5-1.4-0.1-1.5
		c2.9-1.2,0.3-5.1,3.1-6.2c0.2-0.3,1.1,0.7,0.9-0.4c-0.2-1.1-1.1-2.1-0.9-3.8c-1.4,1.2-2.5,2.6-4.2,1.8c-1.7-0.4-1.9-1.9-1.4-2.9
		c1.1-2,0.2-3.6-0.6-5.2c-0.6-1.5-1.7-0.7-2.6-0.6c-0.8,0.1-1.5-0.1-2-0.8c-0.5-0.7-0.1-1.5,0.3-1.7c1.9-0.9,1.3-2.7,1.1-3.9
		c-0.3-1.6,0.5-2.4,1.2-3.5c3,0,6,0,9,0c0.3,0.8-1.9,2,0.7,2.4c1.9,0.3-1.1,2,0.6,3c0.4-1,0.7-2.1,1.3-2.9c0.4-0.5,1.3-1.4,2.1-0.5
		c0.3,0.4,0.7,1.3-0.5,2c-1.8,1-2.9,2.6-0.8,4.6c0.4,0.4,0.5,1,1.2,0.4c0.7-0.5,1,0.1,1.3,0.5c0.5,0.7,0.1,1-0.5,1.2
		c-0.4,0.1-0.6,0.3-0.5,0.8c0.3,1.7,2-1.5,2.4,0.7c0.2,1,0.8,2.5,2,0.6c0.3-0.4,0.8-0.6,1.2-0.1c0.4,0.5-0.1,0.9-0.5,1.1
		c-1.5,0.9-0.7,3.6-3,3.9c-0.3,0,0.1,0.6,0.3,0.9C307.5,68.5,306.9,69.4,303.5,69.5c-0.1-1.3,1.6-0.6,1.7-1.5
		c-0.8,0.3-1.9,1.7-1.9-0.6c1-1.9,0-2.5-1.8-2.8c0.3,1.3,2,1.2,2.1,2.4C302.9,67.8,303,68.6,303.5,69.5z"/>
	<path fill="#18763C" d="M285.5,69.6c-1.6-1.7-2.7-3.3,0.1-4.7c-0.8-1.8-3.3-1.5-3.6-3.7c-0.1-0.6-0.6-0.1-0.9,0
		c-1.7,1-3-0.4-3.5-1.3c-0.7-1.3,1.3-1.3,2.1-2.2c-1.4-0.2-1.7-1.3-1.8-2.4c1.2-0.7,2.3,0.7,3.6,0c-0.5-2-3.2-1.5-3.9-3.2
		c-0.7-0.5-1.4-1.2-2.4-1.3c-0.8,0-1.6-0.3-1.5-1.2c0.1-0.8,1-1,1.7-1.1c0.6-0.1,1.1,0.2,1.6,0.3c0.3,0.2,0.2-0.5,0.1-0.1
		c0,0.1-0.1,0.1-0.3,0c-0.7-0.2-1.6-0.3-0.9-1.4c2.6,0,5.1,0,7.7,0c0.4,0.5,0.5,1.2,0.8,1.7c0.5,1.5,0.3,3.1,2.2,4.1
		c1.2,0.6,1.5,2-0.5,2.5c-1.7,0.4-1.9,1.2-0.8,2.5c0.7,0.9,1.1,1.8,0.7,3.1c-0.3,0.9,0.6,0.7,1,0.8c1.1,0.3,2.2-0.1,3.2-0.5
		c0.9,0,2.1,0.3,1.2,1.2c-0.9,1,0.1,1.7-0.2,2.4c-0.9,1.2-2,2.3,0.1,3.4c0.6,0.6,0.9,1.4,0.5,2.2c-1,1.1-1.8,0.5-2.6-0.3
		C288.2,69.2,286.9,69,285.5,69.6z"/>
	<path fill="#1E9045" d="M276,47.1c0.1,1.5,1.7,0.6,2.3,1.3c-1.2,1.3-3.1-0.4-4.3,1.4c1.3,0.6,3.8-0.5,3.6,2.2
		c-1,1.7-1.9,3.7-4.5,2.9c-1.9-0.6-2.5,2-4.2,1.5c-0.2,1,0.6,1.3,1.1,1.7c0.7,0.5,1.1,1.2,0.6,1.9c-0.6,0.8-1.1-0.1-1.6-0.4
		c-1.2-1-2.8-1-4.4-1.8c1.2-0.7,2.9-1.4,1-2.9c-0.3-0.2-0.4-0.8,0-0.9c0.7-0.3,1.5-1,2.3-0.4c1,0.8,1.6,0.2,2-0.5
		c0.7-1.2-0.3-1-1-1.3c-0.5-0.2-0.5-0.7-0.1-1.1c0.4-0.4,1.9-0.6,0.7-1.5c-0.8-0.7-2.1-1.3-3.2-0.4c-0.4,0.3-0.4,1.2-1.1,0.5
		c-0.2-0.2-0.4-0.7-0.4-1c0-0.8,0.7-0.6,1.3-0.7c1.5-0.2,3.2,0.5,4.6-0.5C272.5,47.1,274.2,47.1,276,47.1z"/>
	<path fill="#4B9D46" d="M287.3,62.2c-2.2,0-2.2,0-1.6-1.8c0.2-0.7-0.2-1.2-0.6-1.8c-2.1-3.2-1.9-3.6,2.5-4.1
		c-2.1-1.6-4.2-3-3.7-5.8c0.3-1,1.5-1.8,1.9-1.2c1.2,1.5,1-0.3,1.5-0.4c0.9,0.6,1.8-0.3,2.8,0c0.1,0.5,1.1,1.1-0.2,1.3
		c-0.6,0.1-0.7,1-0.7,1c2.5,0-1.6,3.8,1.9,3.2c-0.4,1.1-1.6,0.8-2.2,1.4c-0.5,0.5-1.5,1.2-1,2c0.4,0.6,1.3,0.5,2,0.1
		c1.2-0.6,2.4-1.2,2.5,1.1c-0.3,0.9-1.4,1.2-1.8,2.1c-0.4,0.6-0.9,1.1-1.6,0.9c-1.4-0.5,0.4-1.7-0.5-2.4
		C288.7,59.4,287.6,60.7,287.3,62.2z"/>
	<path fill="#B4AD35" d="M287.2,47.1c-0.1,0.9-0.3,1.7-0.6,3.6c-0.5-2.7-1.3-3.5-2.8-2c-0.9-0.5-0.2-1.1-0.1-1.6
		C284.9,47.1,286,47.1,287.2,47.1z"/>
	<path fill="#188966" d="M128.4,266.6c-0.6-0.7-1.5-1.2-1.2-2.3c0.1-0.3,0-1,0.3-0.8c1.6,1.5,2.3-1,3.3-0.7c0.9,0.3,2.8-2.1,2.9,0.8
		c0,0,0.5,0.1,0.5,0.1c1.5-2.3,3.8-0.1,5.5-0.9c0.3-0.1,0.5-0.6,0.7-0.8c0.2,0,0.4,0,0.6,0c1.9,1.8,4,1.3,6,0.2c1-0.6,2-0.7,2.9,0
		c1.3,1,2.6,1,3.9,0.1c1.3-0.8,2.4-1.1,3.3,0.5c0.6,1,1.2,0.8,1.6-0.1c0.3-0.6,0.5-1.4,1.3-1.2c0.8,0.2,1.4,1.1,1.2,1.7
		c-0.7,2,2.5,2.1,1.8,4c-1,0.4-2.1-0.1-3.1,0.2c-1.4,0.3-2.9,1.2-3.5-0.2c0.5,0.6,0.4,1.7-1,2.2c-1.9,0.7-3.6,1.7-5,3.3
		c-0.1,0.2-0.5,0-0.6,0.3c0.4-0.1,0.7-0.1,1.1,0c0.2,0.1,0.4,0.3,0.5,0.5c0.6,1.1,1.5,0,2.2,0.3c0.8,0.1,1.7,0,2.5-0.2
		c2.1-0.5,3.9,0.7,4.4,2.7c0.6,2.6,2.5,5.1,4.8,6.2c0.8,0.4,0.8,1,0.7,1.6c-0.1,0.9-0.4,1.7-1.4,1.9c-0.8,0.2-1.7-0.2-2.3,0.1
		c1.1,2.4,0.7,5,1.3,7.4c-1.7-2.3-3.8,0.2-5.7-0.3c-0.8-0.2-2.1,0.9-2.3-0.5c-0.2-1.2-0.8-3,1.1-3.7c0.6,1-0.3,2-0.1,3.4
		c3.7-2.5-0.1-5.2,0.8-7.4c-1-0.3-1.6,0.8-2.5,0.3c1.1-3.4,4-0.2,5.8-1.8c-1.7-0.6-2.7-1.2-3.1-3.3c-0.4-1.9-2.9-1.3-4.5-0.1
		c-0.3-1.1,0.4-1.1,0.8-1.3c1.2-0.6,0.1-1.4,0-1.8c-0.3-1.1-0.9,0-1.4,0c-3.6,0.3-3.4,4.3-5.7,5.9c-0.8,0.5-1.2,1.5-2.6,0.7
		c3.7-2.3,0.1-3.7-0.7-5.4c-0.5-1-1.8-1.7-0.2-3.2c-1.6,0.8-2.6,1.4-1.2,2.8c0.3,0.3,0.7,0.7,0.3,1.2c-0.1,0.2-0.7,0.3-0.7,0.3
		c-1-1.7-3.3-1.8-4.3-3.6c-0.5-1-0.4-2.6-2.3-1.5c-0.5,0.3-1.1-0.2-0.9-0.9C135,270,131.8,266.2,128.4,266.6z"/>
	<path fill="#27AD83" d="M162.8,267.1c-2.1-0.9-2.9-2.6-2.8-4.8c0-0.2-0.3-0.4-0.8-0.7c1,1.9-0.3,2.3-1.4,2.7
		c-1.5,0.5-1.2-0.6-1.5-1.5c-0.3-0.9-1.1-1-2-0.2c-1.5,1.3-3,2.1-4.8,0.1c-0.4-0.5-2-1.2-2.5,0.6c-0.2,0.9-0.8,0.5-1.3,0.4
		c-0.5-0.1-1.4-0.6-1.6-0.4c-2.2,2.2-2.5-0.1-3.3-1.3c-0.5-1.8-1.8-3.2-3.1-4c-1.5-0.9-2.4-1.1-2.4-3c0-1.1,0.9-1.6,1.5-2.7
		c0.8,2.7,2.5,2.5,4.7,2.1c2.8-0.5,4.7,1.9,7.1,2.9c0.9,0.4,1.5,0.6,2.6,0.6c2.8-0.1,5.6,0.3,8.3,0.7c1.4,0.2,3.2-0.2,4.1,0.1
		c2.1,0.8,3.5-0.6,5.2-0.6c0.8,0,0.9,0.8,1.3,1.3c1,1,2.2,2.7,2.9-0.3c0.3-1.1,1.3-2,2.3-1.5c2.9,1.4,6,0.4,8.9,0.8
		c1.2,0.2,1.9,0.3,2.2,1.5c0.3,1.2,1.3,1.7,2.4,1.2c0.9-0.3,1.2-1.1,0.4-2c-0.4-0.4-0.2-0.7,0.2-0.9c0.6-0.3,0.7,0.2,1,0.7
		c0.3,0.6,0.3,1.8,1.3,1.5c0.7-0.2,1.3-1,0.8-2.2c-0.4-0.9,0-2.4,1.4-2.9c0.4,0.2,0.8,0.5,1,0.9c0.7,1.9-1.8,9.4-3.4,10.5
		c-0.3,0.2-0.7,0.1-1-0.2l0,0c-1.1,0.2-1-1.9-2.4-1.2c-2.5-0.2-4.9-1.5-7.4,0c-0.6,0.3-1,0.1-1.2-0.6c-0.8-2.1-2-1-2.5,0
		c-0.9,2-2.5,2.7-4.4,3c-1.2,0.2-2.4,1.1-2.7-1.2c-0.1-1-2.8-0.5-3-2.4c-1.2,0.6-0.9,1.6-1.4,2.3
		C164.9,267.2,164.3,268.6,162.8,267.1z"/>
	<path fill="#0C9D85" d="M140.4,212c-2.3-1.5-3.2,1.3-3.9,2.1c-3.4,3.3-7.2,3.2-11.3,2.3c-1.1-1.4,0.7-1.5,1-2.3
		c-2.1-1.3-2.2-2.1-0.2-5.9c0.1-0.1,0.2-0.1,0.3-0.2c1.2-0.1,2.1-0.7,2-1.8c-0.1-1.7-1.9-0.5-2.8-1.3c1.6-0.6,3-1.2,4-2.7
		c1.2-1.6,1.2-0.1,1.2,0.7h0c-3.1,0.6-0.6,2.3-0.5,3.3c0.2,1.4,1.2,1.2,2.3,0.4c1.2-1,2.6-1.9,3.1,0.8c0.1,0.3,1.8,0.3,2.2,1.4
		c1.4-0.5-0.6-1.5,0.4-1.8c0.9-0.3,0.9,0.6,1.2,1.2c1.5,2.9,2.2,0.6,3.4-0.7c-3.1,2.4-1.6-2.1-3.6-1.7c2.8-0.7,4-1.8,2.6-4.5
		c-0.8-1.6,0.4-2.6,1.7-1.9c2.1,1.2,2.7-0.4,3.7-1.3c0.5-0.5,1.1-0.8,1.8-0.7c1.4,0.8,0.9,1.8,0.4,2.8c-0.6,1.1-1.6,1.8-2.2,2.9l0,0
		c-0.5,0.7-1.5,1.3-1.4,2c0.2,3.3-1.9,4.9-4.2,6.5C141.2,211.9,140.8,212,140.4,212z"/>
	<path fill="#0B9B6D" d="M181.5,230.1c2.4,3.5,4.7,7,7.1,10.4c0.3,1.6,1.5,2.7,2.4,4l0.1,0c-0.2,1.5-1.1,2.8-2.1,3.8
		c-0.8,0.8-1,1.4-0.3,2.4c0.9,1.3,0.2,2-1,2.5c-0.3,0.1-0.7-0.1-1,0.3c-0.4,0.7-0.6,2.4-1.7,1.2c-0.7-0.7-2.9-1.2-1.6-3.2
		c0.4-0.6-0.1-0.9-0.4-1.4c-1.7-2.2-5-3.8-2.8-7.5c-1.4-2.3,0.2-5.5-2.1-7.7c-1.4-1.3,0.7-1.9,0.7-3.1c0-1,1-2,0.3-3.1
		C180.5,228.5,180.1,230.7,181.5,230.1z"/>
	<path fill="#116F53" d="M190.4,266.5c1.4-1.2,3.2-1.9,2.6-4.5c-0.2-1,0.3-2.5,0.9-3.4c0.9-1.3,0.4-2.2-0.1-3.3
		c0.9-0.9,0.5-2.1,0.5-3.2c0-1.1,0.6-0.9,1.2-0.8c2.9,3.7,5.4,7.7,7.9,11.7c-0.7-0.4-1.4-0.8-2.2-1.2c-0.7-0.3-1.5-0.7-0.8,0.6
		c0.1,0.1,0,0.3-0.1,0.5c-3.6-1.2-4.3,3.3-7.2,3.7c-0.3,0-0.6-0.1-1,0.2C191.2,268.3,191.2,268.3,190.4,266.5z"/>
	<path fill="#16496F" d="M147,203c0.2-1.2,0.7-2.2,1.6-3c0.8-0.7,0.9-1.7,0.3-2.6c0-0.2-0.1-0.4-0.2-0.6c1.4-2.9,2.5-6,5.7-7.5
		c0.6,1,1.3,2,1.9,3c-0.4,0.7-0.2,1.6-1.7,1.6c-2.1,0-2.6,1.8-1.6,3.7c0.9,1.5,1.3,2.6-1.4,2.8C149.9,200.4,149.1,202.9,147,203z"/>
	<path fill="#16496F" d="M141.4,211.4c2.3-2,3.3-4.8,4.4-7.6c0.2-0.4,0.9-0.6,1.3-0.9c-0.1,1.5-2.1,2.7-0.1,4.6c0.8,0.8-1,2-2.1,2.3
		C143.6,210.3,142.5,210.7,141.4,211.4z"/>
	<path fill="#0E6A56" d="M163.3,293.6c-0.9-1.8-2.1-3.3-0.9-5.7c0.7-1.3-1.5-0.5-2.1-1c0.4-1.3,1.6-1.8,2.4-1.5
		c2.4,0.8,2.4-0.6,2.5-2.4c-1.2,0.2-2.9,1.4-2.9-1.3c0-0.9-1.6-1.9-2.5-2.8c-0.5-0.6-1.4-1.2-0.4-2.1c0.3-0.3,0.4-0.9,0.1-0.8
		c-1.7,0.5-1.2-3.4-3.2-1.7c-1.1,0.9-2.1,0.4-3.1,0.3c-0.6-0.9-1.6-0.1-2.2-0.5c0-0.2,0-0.3,0-0.5c0.9-2.5,3.2-2.8,5.2-3.3
		c1.5-0.4,2.9-0.9,4.2-1.7c0.7-0.3,1.5-1,1.9,0.4c-1.3,1.7-1.4,3.5-0.3,5.4c0.3,0.4,0.4,1.1,0.5,1.6c0.1,0.8-1.4,1.6-0.1,2.4
		c1.1,0.6,1.4-0.9,2.6-1.1c-0.2,2.7,3.9,3.5,2.2,7c1.5-0.6,1.1-1.4,1.3-1.9c0.3-1.1,0.7-1.5,2-0.9c2,0.9,4,2.5,6.4,1.2
		c0.2,0.4,0,0.7-0.1,1.1c0.4-0.4,0.3-0.8,0.1-1.1c0.3-1.6,1.9-1.8,3-2.7c0.5-0.4,0.9,0.4,1,1c-0.4,0.3-0.6,0.8-0.7,1.3
		c0.2-0.4,0.2-0.9,0.7-1.3c0.5-0.4,0.9-1,1.5-1.3c0.7-0.3,0.9-2,1.8-1.1c1,1-0.6,1.1-1.1,1.6c-0.4,0.5-0.5,1.2,0.1,1.4
		c1.4,0.7,2.2,1.3,0.7,2.8c-0.5,0.5,0.5,0.3,0.8,0.4c1.9,1.1,4-1.1,5.8,0.3c-0.8,3.1-3.6,1.3-5.4,2c-0.5,0.2-1.6-0.3-1.5,0.7
		c0.1,1,1,1,1.7,0.5c1.6-1,1.3,1.6,2.6,1.2c0.2,0.7-0.6,1.2-0.8,1.1c-1.9-0.9-1.3,1.4-2.3,1.7c1,1.3-0.1,1.7-0.9,2.4
		c-0.3,0.3-0.2,0.4,1.1,0.8c-0.2,0.4-0.4,0.7-0.6,1.1c-0.8-0.2-1.6-0.5-2.3-0.7c0.3-0.8,1.7-1.5,0.4-2.3c-0.7-0.5-1.6-0.6-2,0.6
		c-0.1,0.5-0.3,0.9-0.9,0.2c-1.2-1.3-2.4-2.6-4.5-2.4c-0.6,0.1-1.1-0.3-1.2-0.9c-0.3-1,0.5-1.4,1.2-1.9c-1.8-1-2.5-0.2-3.3,1.3
		c-0.6,1.2-3.3,1.4-1.7,3.8c0.3,0.5,0.1,1.6-1,2.3c-0.9,0.5-1.6,0.7-2.2,0.1C165.6,295.3,163.7,295.3,163.3,293.6z"/>
	<path fill="#11133E" d="M119.3,137.1c-0.5-0.9-1.1-1.9-1.6-2.8c3-1.3,5.6-3.3,8.3-5c0.6-0.4,0.2-0.8-0.1-1.1
		c-1.1-1-1.8-2.4-3.4-2.8c-0.6-0.2-1.4-0.1-1.3-1.1c0.1-0.7,0.6-1.3,1.2-1.5c1.4-0.3,2.9-1.6,4.1,0.6c0.5,1,1.7,1.9,2.9,0.2
		c0.4-0.6,1.1-0.6,1.8-0.4c2.7,0.6,3,0.4,2.4-2.4c0.9-1.6,0.7-3.8,2.2-5.1c0.2-1.4,0.6-2.6,1.9-3.7c1.6-1.3,1.6-3.6,0.8-5.6
		c-0.6-1.3-0.5-2.5,0.2-3.7c0.7-1.2,2.1-1.6,2.8-0.8c3.1,3.5,5.5,1.5,7.8-0.9c-0.3-0.4-0.6-1-0.2-1.2c1.6-1.1,1.1-2.9,1.6-4.4
		c0.4-1,1.5-1,2.1-1.7c1.6,0.2,1.5,1.5,1.4,2.5c-0.1,1-0.2,2,0.3,3.3c2.7-1.7,5.8-0.6,8.8-1.3c-1.2-0.5-1.9-1.5-2.9-2.1
		c-0.8-0.4-1.4-1.1-0.9-2c0.5-0.9,1.3-1.2,2.4-1c1.8,0.5,2.9-0.3,3.1-2.2c0-0.5,0.3-0.8,0.5-1.3c0.2-0.3-0.1,0-0.1,0
		c-0.9,0.4-1.6-0.3-2.4-0.5c-0.9-0.2-2.1-0.2-2-1.5c0.1-1.4,1.2-1.5,2.3-1.6c3.2,0,6.5,0,9.7,0c0.8,0,1.1,0.4,0.5,1
		c-1.2,1.2-0.9,2.6-0.4,3.9c1.9,4.9-0.3,8.5-3.5,11.9c-0.5,0.6-1,1.1-1,1.9c0,0.5,0,1.1-0.4,1.3c-3.1,1.5-2.2,4.8-3.4,7.2
		c-1.2,2.4,0.6,5,2.8,4.2c3.2-1.2,5.4,0,7.5,2.1c0.3,0.3,0.8,0.5,1.1,0.8c1.4,1.1,2.3,2.4,2,4.3c-0.2,0.6-0.3,1.2-1.2,1.1
		c-0.3-2.5-3-3.4-3.9-5.5c-0.2-0.4-0.6-0.4-0.9-0.2c-0.5,0.2-0.4,0.5-0.2,0.9c1,1.8-0.3,1.9-1.5,1.9c-2.2,0-4.2,0.8-6.2,1.7
		c-3.4,1.4-5,4.7-4.3,8.5c0.1,0.5,0,0.9-0.3,1.3c-1.9,2-3,4.4-3.2,7.2c-0.1,1-0.7,1.8-1.5,2.6c-1.3,1.5-3.3,2.5-3,5.1
		c0.1,0.9-1.4,1.6-2.1,0.9c-0.9-0.9-1.6-0.9-2.7-0.9c-1-0.1-2.1-0.8-2.6,0.6c-0.5,1.3,0.8,1.1,1.5,1.4c0.5,0.2,0.6,1.1,0.2,1.1
		c-1.5,0-1,2.7-2.3,1.9c-1.6-1-2.6-0.3-3.4,0.7c-0.7-0.5-0.5-0.8-0.4-1.1c0.3-0.7,2.4-0.6,1-1.9c-0.9-0.8-2.4-0.7-3.3,0.3
		c-1.2,1.2-1.5,3-3.4,3.8c-1,0.5,0.2,1.9,0.6,3c0.5,1.3,2.6,1.9,1.8,3.8l-0.2,0l-0.2,0c-0.8-0.2-1.2-0.8-1.6-1.5
		c-5.1-7.7-10.5-15.1-15.1-23.1C119.6,138,119.3,137.6,119.3,137.1z"/>
	<path fill="#121237" d="M176.8,125.8c0.5-0.2,0.6-0.7,0.6-1.1c2.7-3.2,3.5,0.7,5.4,1.4c-2.5-2-0.8-4.6-1.2-7c-0.2-1,1.2-1,2-1.1
		c1.6-0.1,2.2-0.6,2.6-2.5c0.5-2.5,0.6-4.5-1.3-6.4c-0.1-0.1-0.3-0.3-0.3-0.5c0.1-4.5-1.6-9,0.3-13.5c0.2-0.5,0.4-1,0.5-1.6
		c0.5-2.9,0.6-2.9-2.3-2.8c-0.5,0-1,0.2-1.4,0c-2.8-1.4-3.8,0.4-4.9,2.4c0.2,0.3,0.3,0.4,0.5,0.4c0.9,0.2,2.4-0.2,2.5,1.2
		c0.1,1.2-1.3,1.1-2.1,1.4c-2.8,0.8-3,3.1-3.1,5.4c-0.1,1.9,0.3,3.8-1.7,5.3c-1.2,0.9,0.1,2.7,0.8,3.1c2.2,1.4,1,2.3-0.3,3
		c-2,1.2-1.7,1.8,0.1,3.1c1.4,1,3.6,2.1,2.2,4.7c-1.1,0-1.7-0.8-2.3-1.5c-1.5-1.6-3-2.4-5.2-1.1c-1.3,0.7-3.6,0.7-3.9-0.7
		c-0.4-1.4-2.2-3.2-0.1-4.9c0.4-0.3,0.8-1,0.7-1.5c-0.6-2.3-0.2-4,2.3-4.8c0.4-0.1,0.7-0.7,0.5-1.2c-0.7-1.8,0.2-2.6,1.8-3.1
		c0.3-0.1,0.6-0.2,0.7-0.4c1.2-3.3,4-6.3,2.1-10.3c-0.9-1.8-1.7-3.9,1.2-4.9c0.8-0.5,1.7-0.2,2.5-0.7c3.3-0.1,6.7-0.9,10,0.6
		c0.3,0,0.7,0,1,0c0.3-0.2,0.6-0.2,0.8,0c1.4,1.4,1.9,2.9,0.4,4.6c-0.4,3.4-1.5,6.7-1.1,10.1c0.8,0.5,1.5,1.1,1.1,2.3
		c-0.3,0.9-0.7,1.7-1,2.6c-0.4,1.6-0.6,2.4,1.7,3.3c3.5,1.3,7.2,1.5,10.7,2.6c1,0.3,1.7,0.8,2.1,1.7c0.9,1.9,2.2,3.6,3.6,5.2
		c1.5,1.7-0.7,2.9-1.3,4.3c-1.1,2.7-3,5.1-4,7.9c-1.2,1.1-1.2,3.6-3.7,3.1c-0.1,0-0.4,0.2-0.4,0.3c-1.5,5.3-6.6,7.2-9.8,10.8
		c-0.9,0.9-1.8,2-1.2,3.9c0.7,2.1-1.7,2.5-3,3.5c-0.4-3.7,2.1-6.7,2.3-10c0.2-3.5-0.6-6.9-3.5-9.6
		C178.7,131.1,176.5,129,176.8,125.8z"/>
	<path fill="#91205A" d="M149.7,168.8c0.2,1.1-0.7,1.1-1.2,1.2c-1.1,0.2-1.4-0.9-1.6-1.5c-0.2-0.6,0.7-1.4,1.3-1.4
		C149.3,167,149.2,168.3,149.7,168.8z"/>
	<path fill="#11133E" d="M154.7,153.9c-1.1,0.2-0.9,1.7-1.9,1.8c-0.1,0-0.5-0.7-0.4-1C152.8,153.9,153.4,153.2,154.7,153.9z"/>
	<path fill="#2D402A" d="M187.6,86.4c-0.2,0-0.4-0.1-0.7-0.1c4.2-1,8.5-0.3,12.7-0.4c10.3-0.2,20.5-0.1,30.8-0.2
		c16.2,0,32.4,0.1,48.5,0.1c4.7,0,9.3,0,14,0c-0.4-3.4-3.2-6-2-9.5c-2.4-0.5-0.3-1.9-0.5-2.9c-0.6-2.7-3-3-4.9-4
		c1.5-2.2,3.2-0.8,4.4,0.2c0.6,0.5,1.1,0.9,1.8,1c2.7,1.3,1.9,3.5,1.4,5.5c-0.4,1.5-0.5,2.8,1.4,3.2c0.3,0.5,0.1,1,0,1.5
		c-0.5,3.8,0.9,4.9,5.5,4.4c0.7-0.1,1.4-0.1,1.9,0.6c-0.1,0.1-0.1,0.2-0.2,0.3c-0.6,0.7-1.3,0.6-2,0.1c-0.2,0-0.5,0-0.7,0
		c-26.2,0-52.5,0-78.7,0.1c-10.3,0-20.6,0-31,0C188.7,86.9,188.1,86.8,187.6,86.4z"/>
	<path fill="#85205B" d="M299,95.4c0.4,0.7,1.7,0.8,1.5,1.7c-0.2,1-1.4,0.9-2,0.9c-1.7-0.2-1,1.4-1.7,1.9c0.5-1.1-3.7-2.2,0.2-3.5
		c1.4-0.5-1.3-1.7-1.6-2.8C297.5,92.2,297.7,94.8,299,95.4z"/>
	<path fill="#24AE87" d="M119.3,137.1c5.7,8.6,11.5,17.2,17.2,25.8c-0.1,0.4-0.1,0.8-0.2,1.2l0,0c-0.9-0.3-1.3,1-2.3,0.6
		c-0.9-0.4-1.2,0.2-0.7,0.9c1,1.3,0.4,2.6-0.6,3c-1.1,0.5-0.7-1.2-1.3-1.7c-0.4-0.4-0.8-0.7-1.3-1.2c0.1,2.5,0.2,4.8,0.3,7.1
		c-1.4,0.2-1.1-0.7-1.2-1.4c-0.4-2-3.3-3.2-5-2.1c-0.8,0.5-1.7,1.1-0.7,2.2c0.9,0.9,0.6,2.2,0.7,3.2c0.3,2.8-1.6,4.1-4,2.9
		c-0.9-0.4-1.8-0.8-2.6,0c-1,1.1,0.7,1,0.8,1.6c0.1,0.6-0.1,1.3-0.2,1.9c-1.4,0.8-1.4,0.8-2-0.5c-0.3,0.9,1.4,2.1-0.2,3.2
		c-0.6,0.2-1.6-0.8-1.8,0.6c-2.3,0.5-2.3-1.4-2.6-2.7c-0.3-1.2,0-2.3-1.8-2.7c-1.3-0.3-0.9-1.5-0.1-1.9c2.2-1.2,4.2-2.7,6.8-3.3
		c0.9-0.2,1.6,0,2.2,0.7c0.7,0.8,0.7-0.8,1.3-0.4c0.3-0.6-0.3-0.1-0.4-0.4c-0.1-0.1-0.3-0.3-0.3-0.4c0.8-2.6-1.3-3.1-2.8-4.2
		c-1.7-1.4-0.8-4.3-3.2-5.5c-0.9-0.4,0.5-4.9,1.6-5.2c0.2-0.1,0.6-0.1,0.7,0.1c0.6,0.5,1,2.8,1.8,0.6c0.6-1.7,6.2-3.2,0.8-5.9
		c-1-0.5-2.6-0.8-2.7-2.8c1.5,0.8,2.8,2.1,4.5,1.2c0.5-0.2,0.8,0,0.9,0.3c1.4,3.6,2.6,0.5,3.9,0c-2.7-1.8-4.7-4.1-6.9-6.3
		c-0.5-0.6-0.1-1.4,0.6-1.6c0.9-0.2,0.7-0.6,1-1.2C120.5,140.7,119.2,139,119.3,137.1z"/>
	<path fill="#05847B" d="M116.6,169.2c1.3,1,2.8,0.5,4.2,0.2c0.3,1.1-0.6,1.5-1,2.1c1.4-0.2-1.6,2.7,1.2,1.6c1-0.4,1.1,0.8,1.1,1.5
		c0,0.8-0.6,0.8-1.2,0.4c-1.2-0.7-2.4,1.1-4-0.4c-1-0.9-3.4,1.5-5,2.4c-0.7,0.4-2.3-0.2-2.3,1.6c2.2-0.4,3.1,0.2,2.5,2.7
		c-0.2,1.1,0.1,2.9,2,3.2c0,0.7,0.4,1.1,1.1,1.1c0,0.5-0.2,1-0.7,1.1c-3.2,0.6-3.5,2.9-3.4,5.5c0,0.5-0.3,0.9,0.3,1.1
		c0.6,0.2,1.9,0,1,1.2c-0.8,1-1.7-0.1-2.5-0.3c0.6-1.5-2.1-1.8-1.3-4c0.6-1.4-2-3-3.3-4.3c-0.9-0.9-0.7,1.1-1.8,0.8
		c0-1.9,0.1-3.8,1.4-5.8c-2.6,0.2-4-0.6-4.2-3c0.7-0.7,1.3,0,1.8,0.2c3.4,1.1,4.3-1.7,5.6-3.6c1.4-2,3.2-2.7,5.4-3.1
		C116.5,172.8,115.9,170.2,116.6,169.2z"/>
	<path fill="#0C9D85" d="M119.4,213.6c-0.4,0.2-0.7,0.4-1.1,0.6c-0.1-0.5-0.1-1.1-0.7-1.1c-2,0.3-2.1-0.9-2.2-2.3
		c-0.4-2.8,2.7-1.7,3.4-3.3c-1.2-1.3-3.2,0.1-4.6-1c0.5-0.4,1.3-0.8,1.4-1.2c0.2-2,1-1.1,1.6-0.4c1.1,1,2.1,2.1,3.4,0.2
		c0.5-0.7,0.9-0.2,1.1,0.4c0.3,1,0.9,1.1,1.7,0.6c1.9-1.1,2.4,0.2,2.8,1.7l-0.1,0.1c-0.2,0.3-0.1-0.1-0.2,0.2
		C125.1,211.7,122.3,212.7,119.4,213.6z"/>
	<path fill="#0A9981" d="M154.4,189.2c-1.9,2.5-3.8,5-5.7,7.5c-0.9-0.3-1.7-1.8-2.8-0.2c-0.3,0.5-0.6,0.3-0.8-0.1
		c-0.2-0.4-0.4-0.8,0-1.3c0.6-0.8,1.3-1.6,1.8-2.4c0.3-0.6,2.4-1.3,0.2-2.2c-0.5-0.2,0.1-0.5,0.2-0.8c0.8-1.5,1.2-3.1,1.1-4.8
		c-0.1-1.1-0.3-2.2,1.4-1.8C151.9,184.8,152.7,187.3,154.4,189.2z"/>
	<path fill="#007F7E" d="M116.7,196.7c-0.3-0.6-1.5-0.2-1.5-1c0-0.9,1-0.7,1.5-0.5c1.2,0.4,2.2-0.4,2.4-1c0.8-2.2,3-2.5,4.7-4.1
		c-0.2,1.8-1.6,2.6-2.1,3.8C119.6,193.9,119.1,197.1,116.7,196.7z"/>
	<path fill="#0C9D85" d="M139.9,202.8c0.1,2.3-1.2,2-1.9,2.1c-0.4,0-2.2,0.3-1.5-1.2c0.2-0.6-0.3-2.2,0.6-1.6
		C138,202.8,139.7,202,139.9,202.8z"/>
	<path fill="#05847B" d="M116.1,183.8c0.2-1.2,0.3-2.4-0.7-3.3c-0.6-0.6-0.8-1.3-0.1-1.6c1.1-0.6,1.1,0.6,1.3,1.1
		c0.4,0.7,0.3,1.9,1.7,1c-0.1,0.6-0.3,1.1-0.4,1.7C117.6,183.5,117.3,184.5,116.1,183.8L116.1,183.8z"/>
	<path fill="#24AE87" d="M136.3,164.1c0.5,0.7,1.1,1.5,1.7,2.3C135.5,166.1,135.4,165.9,136.3,164.1L136.3,164.1z"/>
	<path fill="#24AE87" d="M126.5,176.8c-0.3,0.6-0.9,1-1.6,1c-0.5,0-0.5-0.5-0.3-0.9c0.2-0.6,0.7-0.9,1.3-0.9
		C126.4,176,126.6,176.3,126.5,176.8z"/>
	<path fill="#24AE87" d="M116.1,183.8c0.9,0.1,1.2-0.8,1.8-1.1c0.4,0.2,1.5-0.2,1,0.6C118.3,184,117.2,185,116.1,183.8z"/>
	<path fill="#0C9D85" d="M130.7,202.9c0.6-0.3,1.4-0.9,1.9,0.1c0.4,0.7-0.4,0.9-0.9,1.1C130.4,204.6,130.8,203.6,130.7,202.9
		L130.7,202.9z"/>
	<path fill="#11133E" d="M187.6,86.4c0.6,0,1.1,0,1.7,0c0.3,0.8,5,0.8,0.4,2.5c-0.8,0.3-0.2,2-1.6,2C189.2,89.3,188,87.9,187.6,86.4
		z"/>
	<path fill="#11133E" d="M188.1,103.3c-0.4-0.8-0.8-1.5-1.1-2.3c0.7,0.2,1.5-0.9,2-0.1C189.5,101.9,188.8,102.6,188.1,103.3z"/>
	<path fill="#411344" d="M162.2,86.4c-1.1,1.5-0.9,1.1,0.4,1.9c2,1.3,3.3,0.7,5-1.1c-0.3,1.6-1.8,2-1.7,2.7c0.3,2.1-0.3,3.2-2.2,4.4
		c-1,0.6-0.6,1.3-1.6,0.2c-0.4-0.5-0.6-1.3-1.5-0.7c-0.4,0.2-0.9,0.6-0.9,0.9c-0.1,0.8,0.8,1,1.4,1.2c1.1,0.2,1.3,2,3,1.3
		c0.5-0.2-0.7,1.2-0.7,1.9c0,0.6,0,1.4-1.1,0.8c-2.9-1.4-5.7-0.6-8.2,0.9c-2.1-2,0.5-5-1.4-7.1c-0.3-0.9-0.3-1.9-0.8-2.6
		c-0.9-1.3-2.1-2.3-4.2-0.7c2.5-2.6-0.3-2.9-1.2-3.9C151.7,85.9,156.9,85.9,162.2,86.4z"/>
	<path fill="#891C4D" d="M150.6,95.4c0.5,1.6,1.8,3.4-1,4.3c-0.2,0.1-0.2,0.8-0.3,1.3c-2.7-0.3-3.4-2.8-5.1-4.3
		c-0.8,0.5-0.4,1.3-0.6,2c-0.1,0.6-0.5,0.9-1.2,0.9c-0.3,0-0.7,0-0.7-0.1c-0.3-0.7,0.2-1,0.7-1.2c0.5-0.1,0.3-0.5,0.3-0.9
		c0.2-3,1-3.7,4-3.7c0.6,0,0.8,0.1,0.9,0.6c0.2,0.8,0.2,1.6,1.2,0.3C149.6,93.5,150.2,94.6,150.6,95.4z"/>
	<path fill="#781D53" d="M133.4,86.4c0.9-0.1,1.8-0.3,2.7-0.4c0.3,0,0.7,0,1,0c0.2,0.1,0.4,0.2,0.6,0.3c-1.2,2.7-1,3.2,1.9,2.7
		c2.1-0.4,0.6,1.9,2,2c0.3,0-0.5,1-1.2,0.9c-2.1-0.2,0,1.8-1.4,2.1c-1-0.7-1.1-3.5-3.6-1.8c-0.6,0.4-2-1.5-1.7-2
		C134.8,88.8,133.5,87.7,133.4,86.4z"/>
	<path fill="#2D402A" d="M137.7,86.4c-0.2-0.1-0.4-0.2-0.6-0.3c9.2-0.1,18.4-0.1,27.6-0.2c3.5,0,6.9-0.1,10.4-0.1
		c0.5-0.2,0.7,0.1,0.7,0.5c-0.8,0-1.5,0.1-2.3,0.1c-3.8,0-7.5,0-11.3,0c-5.3,0-10.5,0-15.8,0C143.5,86.4,140.6,86.4,137.7,86.4z"/>
	<path fill="#791B4D" d="M135.8,115.7c-0.8,1.7-0.4,3.9-2.2,5.1c-1.4,1.1-2.7,2.1-4.6,1c-0.5-0.3-1.1-0.2-1-0.9
		c0.1-0.7,0.8-0.8,1.3-0.6c2.6,1.1,2.5-2.6,4.5-2.5c0-0.2,0-0.7,0-0.7c-1.5-0.3-1.5-1.5-0.7-2.1
		C133.9,114.1,134.8,115.4,135.8,115.7z"/>
	<path fill="#8B1E52" d="M131,109.2c2.6,1.1,2.5-2.4,4.5-1.9c0-0.7,0.8-1.4,0.8-0.9c0,1.3,2.4,2.2,0.6,3.7
		C134.4,112.2,134,112.2,131,109.2z"/>
	<path fill="#B62057" d="M126.2,93.7c0.8,0,1-0.6,1.5-1.1c0.7-0.7,1.6-1.6,2.6-0.7c0.3,0.3,2.8,1.1,0.4,2.2
		c-0.3,0.1,1.6,1.7-0.1,1.7c-1.5,0-3-1.1-4.5-1.6C126.1,94,126.1,93.9,126.2,93.7L126.2,93.7z"/>
	<path fill="#811C51" d="M131,112.7c-0.3,0.7-0.2,1.7-1.2,1.7c-0.6,0-2.1,1.2-1.4-0.9c0.2-0.5-0.5-0.3-0.8-0.2
		c-1.1,0.3-1.8-0.2-1.6-1.3c0.2-1.2,1.4-1.1,2.1-0.7C128.9,112,130.6,111.1,131,112.7z"/>
	<path fill="#225C2E" d="M175.8,86.3c-0.2-0.2-0.4-0.4-0.7-0.5c-0.7-1.2-2.4-1.6-2.6-3.4c-0.1-1-1.7-0.1-2.5-0.7
		c-0.2-1,1.5-0.9,1.1-2c-1.9,0.8-3.7-2.1-5.7-0.3c-0.3,0.2,0,1,0,1.5c-1.5-0.1-1.4-2.3-3-2c-0.8,0.2-0.3,1.2-0.7,1.7
		c-1.1-0.3-1.7-1.7-1.4-2c1.2-1,1.2-2.7,2.5-3.6c0.4-0.3,0.7,0,1,0.2c0.4,0.3,0.7,0.7,0.2,1.2c-0.5,0.4-1.2,0.8-0.1,1.3
		c0.5,0.2,0.9,0.9,1.4,0.4c0.3-0.3,0.3-1.1,0.2-1.6c-0.3-1.7-0.9-3.2-3.2-3c0.7-1.5,2-1.5,3-2c0.7-0.3,1.4,1.3,1.8,0
		c0.4-1-0.7-1.3-1.4-1.8c-0.3-0.2-0.5-0.6-0.7-0.9c2.1-0.6,4.3-1.1,6.5-1.3c2-0.2,3.7-2.1,5.9-1.7c0.2,0,0.6-0.5,0.5-0.5
		c-1.9-2.6,1.7-4.3,1-6.6l0,0c0.2,0.1,0.3,0.2,0.5,0.2c1.3,0.4,3,0.9,3.5-0.4c0.2-0.7,0.6-3.2-2-3.2c1.7-1.2,3.7-0.7,5.1-1.8
		c0.7-0.6,1.2,0.2,1.4,0.8c0.9,1.9,1.4,3.9,2.8,5.6c0.6,0.7,1.1,1.6-0.5,2.2c-1.5,0.6-2.1,3.7-1.2,5.1c0.6,1-0.1,1.5-0.7,2.1
		c-0.8,0.8-1.2,1.5,0.3,1.9c0.8,0.2,1.3,1.1,0.8,1.8c-1.4,1.8-0.9,4.2-2.3,5.9c2,0,3.8,2,3.8,4.1c0,0.5,0.3,1.1,0.4,1.6
		c-1,0.6-2.1,0.6-3.1,0.6c-0.8,0-1.7-0.2-1.8,1C182.5,86.3,179.1,86.3,175.8,86.3z"/>
	<path fill="#175229" d="M179.1,58.8c-1.3-0.2-2.9-1.4-3.2,1.3c-0.1,0.5-1.5,2.3-2.4,1.4c-0.6-0.6-2.7-1.2-1.3-3.5
		c0.6-1-0.8-3.5-0.7-5.4c0-0.4-0.6-0.7,0-1.2c0.9-0.6,1.8-0.6,2.6,0c1.2,0.9,3.7-0.2,3.7,2C177.7,55.5,178.4,57.1,179.1,58.8
		L179.1,58.8z"/>
	<path fill="#16401F" d="M168.4,59.1c0,1.8-2.4,3.7-4.2,3.7c-1.2,0-2.4-1.2-2.1-1.7c0.9-1.8,2.1-3.8,3.7-4.8
		C166.6,55.8,167.9,58,168.4,59.1z"/>
	<path fill="#348B42" d="M196,56c-1.4,0-2.7-0.1-4.3,0.6c0.6-1.3,1.4-1.1,2.2-1.1c0.7,0,1.6,0,1.7-0.6c0.9-3.8,3.1-2.8,5.5-1.7
		c0.3,0.1,0.7,0.1,1.1,0.1l0,0c0.6,1.5-0.4,1.5-1.4,1.4C199,54.4,197.4,54.9,196,56L196,56z"/>
	<path fill="#84913A" d="M164.4,69c-0.5,2.3-1.9,0.3-2.8,0.6C162.2,67.3,163.6,69.6,164.4,69z"/>
	<path fill="#FECF1C" d="M325.3,85.9c2.3-4.1,5.1-7.8,7.6-11.7c4.2-6.3,8.2-12.7,12.4-19c1.7-2.6,3.7-5.2,5.5-7.7
		c8.5,12.6,16.9,25.3,25.7,38.4C359.1,85.9,342.2,85.9,325.3,85.9z"/>
	<path fill="#CBB32F" d="M301.9,86c-0.8-0.1-1.5-0.1-2.3-0.2c-0.2-0.1-0.2-0.2-0.2-0.3c0.1-0.1,0.1-0.2,0.2-0.2
		c-0.2-0.5-0.5-0.9-0.8-1.6c1.7,0.4,3.4,0.3,4.2,2.1C302.6,85.9,302.2,86,301.9,86z"/>
	<path fill="#1E184E" d="M299.6,86.4c0.7,0,1.3-0.1,2-0.1c0.3,0,0.7,0.1,1,0.1C300.4,88,300.2,88,299.6,86.4z"/>
	<path fill="#085762" d="M106,139.6c2-1,2.4-1,2.9-0.2c0.3,0.6,0.1,1.1-0.3,1.5c-0.4,0.5-0.7,0.3-1.1-0.1
		C107,140.3,106.4,140,106,139.6z"/>
	<path fill="#24AE87" d="M115.8,145.4c1.1,0.8,2.3,0.9,2.2,2.2c0,0.3-0.5,0.9-0.6,0.8C116.4,148.1,115.9,147.3,115.8,145.4z"/>
	<path fill="#40BA95" d="M191,244.6c-1.4-0.9-2.6-2.1-2.4-4c0.8,1.1,1.7,2.2,2.5,3.4C191,244.2,191,244.4,191,244.6z"/>
	<path fill="#191648" d="M162.5,196.1c0.9-0.3,1.6-0.6,2.3-0.8c0.7-0.2,1.5-0.1,1.6,0.6c0.2,1.3-0.8,0.5-1.2,0.5
		C164.3,196.3,163.4,197.9,162.5,196.1z"/>
	<path fill="#097E7D" d="M119.4,213.6c-0.1-0.5-0.7-1.5-0.1-1.4c3.1,0.5,4.6-1.2,5.6-3.7c0.1-0.3,0.8-0.4,1.2-0.5
		c-0.5,2.4-1.9,4.9,1.7,6.3c-1.2,0.6-2.8,0.2-2.7,1.9C123.8,214.3,121.3,214.6,119.4,213.6z"/>
	<path fill="#127F62" d="M162.2,268.7c-0.7-0.8-1.2-0.1-1.8,0.1c-1.1-0.4-1-1.4-1.1-2.2c1.2-0.2,2.4-0.1,3.5,0.5
		c1.2,0.7,2.3-0.6,2.2-0.9c-0.5-1.5,1.1-2.2,1.4-3.6c0.2,2.6,4.1,1.7,3.9,4.6c0,0.1,0.3,0.4,0.3,0.4c1.6-1,4.4-0.1,4.9-1.9
		c0.9-3,2.7-2.9,4.9-2.9c0.4,1-0.8,1.3-0.5,2.3c2.7-2.4,5.4-0.8,8.1-0.3c-0.2,1.6-1.7,0.3-2.3,1.1c-1.2-0.6-2.6-0.5-3.2,0.6
		c-1.1,1.9-3.5,3.3-4.6,3.2c-3.2-0.3-6.3,2.9-9.6-0.2C166.9,268.3,164.3,269,162.2,268.7z"/>
	<path fill="#116F53" d="M185.9,266c0.5-0.9,1.8-0.2,2.3-1.1c0.4-0.2,0.8-0.4,1.3-0.5c0.4-0.1,1.1-0.1,1.2,0.2
		c0.4,0.8-0.6,0.7-0.8,1c-0.3,0.5,0.5,0.6,0.6,1C188.7,267.7,187.4,265.5,185.9,266z"/>
	<path fill="#1E9045" d="M251.4,65.5c0.9-0.9,1.1-2.3,2.4-2.3c0.5,0,0.7,0.6,0.6,1.1C254.1,65.8,253,65.6,251.4,65.5z"/>
	<path fill="#1E9045" d="M249.8,66c-0.4,0.5,0,1.6-1.1,1.6c-0.5,0-1.1-0.5-1.1-1.1c0-0.8,0.7-1.3,1.5-1.4
		C249.6,65,249.9,65.4,249.8,66z"/>
	<path fill="#2D763B" d="M223.6,80c-0.2-0.1-0.4-0.1-0.5-0.2c-2.6-3.7-4.2,1.1-6.4,0.7c-0.1,0.5-0.3,0.6-0.8,0.5
		c-2.2-0.8-4.5-5.6-3.8-7.7c0.2-0.5,0.7-0.5,1.1-0.7c1.4-1,3-1.9,1.4-4c-0.4-0.6-0.6-1.6,0.2-2c1.2-0.7,0.8,0.8,1.3,1.2
		c0.4,0.3,0.9,0.7,1.3,1.1c0.4,0.4,0.6,1.1,1.3,0.9c0.7-0.2,0.9-0.9,0.7-1.6c-0.2-0.7-0.2-1.4,0.8-1.4c0.7,0,1.2,0.5,1.3,1.3
		c0.2,1.1,0.2,2.2,0.4,3.3c0.3,1.1,0.3,2.3,2.1,2.2c1.1-0.1,2,0.6,1.4,2c-0.5,1.2-1.4,2.2-0.7,3.6C224.6,79.5,224.1,80,223.6,80z"/>
	<path fill="#337E3E" d="M196,56c0.4-0.6,1.2-1.1,1.3-1.7c0.1-1.6,0.7-1.1,1.6-0.6c1.2,0.7,2.5,1.4,3.3-0.5c0.6-0.1,1.2-0.3,2.1-0.5
		C202.1,56.1,198.7,55,196,56z"/>
	<path fill="#89A83F" d="M294.5,79.8c-2.5,0-2.7-0.5-2.1-2.8c0.6-2.1,1.3-4.4-0.7-6.2c0-0.8-0.1-1.6-0.6-2.3c0.6-0.8,2-0.6,2.1-2
		c0.2-0.4,0.5-0.6,0.9-0.7c1,0.1,2-0.1,3,0.2c1,0.4,2.1,1,1.4,2.4c-2.1,1.2-1.5,2.7-0.1,4.4c-2.2,0-3.1,1.2-3.3,3
		c0,0.1,0,0.2-0.1,0.4C294.5,77.3,295.7,78.7,294.5,79.8z"/>
	<path fill="#72A342" d="M299.5,85.3c0,0.2,0,0.3,0,0.5c-0.8,0-1.6,0.1-2.5,0.1c-3.3,0.1-4.5-2.1-3-5.3c1.7-0.2,1.9-1.1,1.3-2.4
		c-0.4-0.8-1.1-1.5-0.3-2.5l0,0c0.6,0,1.2-0.1,1.7,0.1c1.2,0.3,2.8,0.5,1.3,2.4c-0.3,0.4-0.1,1.1,0.4,1.5c0.7,0.3,0.9,1,1.2,1.6
		c0.6,0.8,0,1-0.5,0.9c-0.9-0.3-2.3-1.1-2.3,0.5c0,0.7,0.2,2.9,2.2,2.7C299.2,85.3,299.4,85.3,299.5,85.3z"/>
	<path fill="#69A544" d="M293.9,66.1c-0.2,0.2-0.4,0.4-0.5,0.6c-1.5,0.4-2.6,0.3-2.3-1.7c0-0.9-0.9-1.5,0-2.7
		c0.7-0.9-0.7-0.5-1.1-0.6c-1-1,0.4-1.9,0.1-2.8c-0.1-1.6,1.5-1.1,2.2-1.8c0.4,0.6,0.8,1.3,1.1,1.9c0.5,1,1.6,1.8-0.1,2.9
		c-0.6,0.4-1.1,2.3,0.7,3C294.3,65.4,294.3,65.8,293.9,66.1z"/>
	<path fill="#CBB32F" d="M293.9,66.1c0-0.4,0-0.7,0-1.1c1.1,0.1,2.3,0.5,2.8-1.2c0.2-0.8,1.1-0.8,1.9-0.6c1.3,0.4,0.1,0.9,0.1,1.4
		c0.2,1.6,1.1,2.8,2.6,4.1c-1.2-0.1-2-0.3-2.8-0.4C298.1,65.3,295.4,67,293.9,66.1z"/>
	<path fill="#CBB32F" d="M303.5,67.3c-0.6-1.4-3.1-1.1-2.7-3.5c1.1,0.7,2.8-0.5,3.5,1.3C304.7,66.1,304.9,67,303.5,67.3L303.5,67.3z
		"/>
	<path fill="#CBB32F" d="M303.5,67.3c1.1,2.6,1.4-0.5,2.3-0.3c0.3,1.8-1.5,1.7-2.3,2.5l0,0C302.4,68.8,301.6,68,303.5,67.3
		L303.5,67.3z"/>
	<path fill="#CBB32F" d="M302.2,63.4c-0.1-1.2,0.2-2.3-1.3-3.4C303.6,61,303.6,61.1,302.2,63.4z"/>
	<path fill="#CBB32F" d="M301.8,74.6c1.7,0.1,1.8,1.8,2.8,2.5C302.8,77.2,302.3,75.9,301.8,74.6L301.8,74.6z"/>
	<path fill="#CBB32F" d="M301.8,74.6c-0.4,1.4-1.2,2-2.5,0.7C300.1,74.8,300.6,73.6,301.8,74.6L301.8,74.6z"/>
	<path fill="#CBB32F" d="M301.5,71.9c-0.8,0-1.6,0.7-2.1-0.2c-0.1-0.3,0.2-1.1,0.4-1.2C301,70.1,300.8,71.6,301.5,71.9z"/>
	<path fill="#CBB32F" d="M299.6,81.3c-0.8-0.2-1.1-0.8-1.2-1.6c0.8-1,1.3-0.2,1.8,0.3C300.7,80.7,299.7,80.8,299.6,81.3z"/>
	<path fill="#B4AD35" d="M290,58.9c2,1-1.1,1.8-0.1,2.8c-0.8,0.8-1.6,1.3-2.7,0.5c-0.2-0.5-1.6-0.9-0.3-1.6c1-0.5,0.7-1.4,1-2.1
		c0.3-0.6-1.4-0.6-0.4-1.2c0.3-0.2,1-0.2,1.3,0.1c0.9,0.5,0,1.1-0.1,1.7c0,0.3-0.1,0.5-0.1,0.8C289.5,59.9,289.7,59.3,290,58.9z"/>
	<path fill="#B4AD35" d="M291.1,65c0.2,1.3,1.3,1.5,2.3,1.7c0.8,2.7-1.6,0.9-2.3,1.6c-1,0-2-0.3-2.5-1.3
		C290.1,67.2,289.6,64.9,291.1,65z"/>
	<path fill="#0C5244" d="M159.3,266.6c1.1,0.4,0.9,1.4,1.2,2.2c-0.8,0.7-2.3,1.1-0.9,3.2c-4-3-6.1,0-8.7,1.3
		c-0.9,0.1-1.8,0.3-2.7,0.4c2.1-1.5,3.3-4.2,6-4.8c3-0.7,1.9-1.4,0.3-2.4c-0.2-0.1-0.3-0.4-0.6-0.8
		C155.9,265.3,157.2,268.7,159.3,266.6z"/>
	<path fill="#1C9D74" d="M145.2,278.7c-1.1-0.6-1.7-1.3-1.6-2.3c0-0.4,0.7-0.7,1.1-0.5C145.6,276.6,145.4,277.5,145.2,278.7z"/>
	<path fill="#0C5244" d="M150.9,273.8c0.8-0.2,1.9-1.4,2.2,0.5c-0.8,0.2-1.5,0.4-2.3,0.5c-0.4,0.1-0.8-0.1-0.7-0.5
		C150.2,274.2,150.7,274,150.9,273.8z"/>
	<path fill="#1C9D74" d="M146.6,278c0.5,0.4,0.8,0.8,0.7,1.4c-0.1,0.4-0.2,1-0.9,0.8c-0.7-0.2-0.8-0.6-0.5-1.2
		C146,278.6,146,278.1,146.6,278z"/>
	<path fill="#0C5244" d="M176.9,282.3c1.1,1.7,1,1.8-1.5,2.3C175.4,283.5,176.6,283.2,176.9,282.3L176.9,282.3z"/>
	<path fill="#0C5244" d="M180.8,280.6c0,1.2-0.3,2.1-2.1,2.7C179.6,282.1,179.3,280.8,180.8,280.6L180.8,280.6z"/>
	<path fill="#12112A" d="M175.7,120.7c0.1-2.3-1.4-3.5-3.1-4.4c-0.8-0.4-1.9-0.4-1.8-1.7c0.1-1,0.7-1.6,1.7-2
		c0.7-0.2,1.7-0.4,1.9-1.5c-0.6-1-2.3,0-2.1-0.3c1.2-1.8-1-2.5-1-3.8c0-0.3,0.4-0.8,0.6-0.8c2.5-0.1,2.1-2.1,2-3.5
		c0-5.7,0.2-6.2,5.4-7.9c0-0.5-0.4-0.5-0.8-0.6c-1-0.2-2.7,0.9-3-0.5c-0.2-0.9,1.1-3.1,1.7-3c1.5,0,2.3-4,4.2-0.6
		c0.4,0.6,1.7,0,2.6-0.2c2.5-0.5,3.1,0.1,2.2,2.4c-2.1,5-0.9,10.3-1.3,15.4c0,0.6,0.6,1.3,1,1.9c1.2,1.6,1.4,2.8,1.1,5.2
		c-0.5,3.6-1.5,4.3-4.5,4c-0.1,0-0.4,0.2-0.4,0.3c0,0.4-0.1,0.9,0,1c2,1.3-2.1,4.1,1.2,5.1c0.6,0.2,1.5,0.2,1,1.2
		c-0.4,0.6-1.1,1.1-1.9,0.7c-0.6-0.3-1.3-0.7-1.5-1.2c-0.6-2.5-2.1-1.7-3.5-1.1C177.8,123,176.5,121.9,175.7,120.7z"/>
	<path fill="#CBB32F" d="M295,75.7c0,0.9,0,1.6,0.9,2.2c0.7,0.5,0,3.6-0.9,3.8c-0.6,0.1-0.9-0.5-1.1-1c0.2-0.3,0.3-0.6,0.5-0.8
		C295.3,78.5,292.8,76.8,295,75.7z"/>
	<path fill="#095770" d="M121.6,163.4c-0.1,0.7-0.7,0.9-1.3,1c-0.4,0-0.8-0.3-0.7-0.7c0.1-0.7,0.5-1.2,1.2-1.2
		C121.3,162.4,121.7,162.7,121.6,163.4z"/>
	<path fill="#11133E" d="M159,91.4c0.5,1.8,0,2.9-1,3.8c-0.1,0.1-0.6-0.2-0.6-0.4C157.3,93.5,157.9,92.6,159,91.4z"/>
</g>
<g>
	<path d="M484.8,208.1C328.4,240.4,167,240.4,10.6,208c6.4-30.8,12.8-61.6,19.1-92.3c143.8,29.8,292.2,29.8,436,0.1
		C472.1,146.5,478.5,177.3,484.8,208.1z"/>
	<g>
		<path fill="#FFFFFF" d="M87.8,187.9c0.3-0.2,0.8-0.1,1,0.1c1.7,2.2,3.4,4.3,5.2,6.4c0.3,0.3,0.2,0.7-0.1,0.8
			c-5.3,3.7-12.3,5.5-19.6,4.4c-14.6-2.2-24.8-14.1-22-29.3c2.6-14.6,15-23.5,29.8-21.2c7,1.1,12.9,4.6,16.8,9.7
			c0.3,0.3,0.2,0.7-0.1,0.8c-2.2,1.6-4.4,3.2-6.5,4.8c-0.3,0.2-0.8,0.1-1-0.1c-2.5-3.2-6.2-5.5-10.5-6.1
			c-9.7-1.5-16.8,4.7-18.4,13.9c-1.7,9.9,4.5,17.2,13.5,18.5C80.1,191.3,84.4,190.2,87.8,187.9z"/>
		<path fill="#FFFFFF" d="M154.8,183.4c-1,12.6-10.9,24.8-28.4,23c-17.8-1.9-24.7-15.9-23.1-28.4c1.7-12.6,11.6-24.1,28.4-22.3
			C148.4,157.4,155.8,170.7,154.8,183.4z M144.7,182.7c0.7-8.3-3.7-17-13.9-18.1c-10.3-1.1-16.4,6.5-17.4,14.7
			c-1,8.2,3.3,17,13.9,18.2C137.9,198.6,144,190.9,144.7,182.7z"/>
		<path fill="#FFFFFF" d="M207.3,210.9c0,0.3-0.3,0.6-0.8,0.5c-2.9-0.1-5.8-0.2-8.7-0.3c-0.2,0-0.5-0.1-0.6-0.2
			c-7.6-11.4-15.1-22.8-22.2-34.3c-0.7,10.9-1.4,21.8-2.1,32.7c0,0.3-0.3,0.5-0.7,0.5c-2.9-0.2-5.8-0.4-8.7-0.6
			c-0.5,0-0.7-0.3-0.6-0.6c1.2-16.2,2.4-32.3,3.6-48.5c0-0.3,0.3-0.6,0.7-0.5c2.8,0.2,5.6,0.4,8.4,0.6c0.1,0,0.4,0.1,0.5,0.2
			c7.1,11.6,14.4,23.1,21.9,34.6c0.5-11,1-22,1.5-33c0-0.3,0.3-0.6,0.8-0.5c2.7,0.1,5.4,0.2,8.2,0.3c0.4,0,0.7,0.3,0.7,0.6
			C208.4,178.5,207.9,194.7,207.3,210.9z"/>
		<path fill="#FFFFFF" d="M246.6,170.8c0,0.3-0.3,0.5-0.7,0.5c-3.3,0-6.5,0-9.8-0.1c-0.1,13.4-0.3,26.8-0.4,40.2
			c0,0.3-0.2,0.6-0.7,0.6c-2.9,0-5.7-0.1-8.6-0.1c-0.5,0-0.7-0.3-0.7-0.6c0.3-13.4,0.5-26.8,0.8-40.2c-3.3-0.1-6.5-0.1-9.8-0.2
			c-0.4,0-0.7-0.2-0.7-0.5c0.1-2.5,0.1-4.9,0.2-7.4c0-0.3,0.3-0.6,0.7-0.5c9.7,0.3,19.3,0.4,29,0.4c0.4,0,0.7,0.3,0.7,0.6
			C246.6,165.9,246.6,168.4,246.6,170.8z"/>
		<path fill="#FFFFFF" d="M268.8,191.9c-1.9,0-3.7,0.1-5.6,0.1c0.1,6.5,0.2,13,0.3,19.5c0,0.3-0.3,0.6-0.8,0.6
			c-2.9,0-5.8,0.1-8.7,0.1c-0.4,0-0.7-0.3-0.7-0.6c-0.1-16.2-0.2-32.4-0.2-48.6c0-0.3,0.3-0.6,0.7-0.6c5.5,0,11-0.1,16.5-0.2
			c2.9,0,17.3-0.3,17.8,14.3c0.3,7.6-4,11.7-9.2,13.6c3.5,6.9,7.3,13.6,10.9,20.5c0.2,0.4,0,0.8-0.6,0.8c-3.2,0.1-6.4,0.2-9.5,0.3
			c-0.2,0-0.6-0.2-0.7-0.3C275.5,204.9,272.1,198.4,268.8,191.9z M263.1,182.9c2.5,0,5.1-0.1,7.6-0.1c2.2,0,7.7-0.5,7.6-5.9
			c-0.2-5.5-6.3-5.6-7.8-5.6c-2.5,0.1-5,0.1-7.5,0.1C263,175.2,263,179,263.1,182.9z"/>
		<path fill="#FFFFFF" d="M304.5,210.4c-0.1,0.2-0.4,0.4-0.7,0.4c-3.1,0.2-6.3,0.3-9.4,0.4c-0.6,0-0.9-0.3-0.7-0.8
			c6.3-16.9,12.2-33.9,17.9-50.9c0.2-0.5,1.1-0.6,1.3-0.1c7.6,16.2,15.5,32.4,23.7,48.5c0.3,0.4,0,0.8-0.5,0.8
			c-3.1,0.2-6.3,0.5-9.4,0.7c-0.2,0-0.5-0.1-0.6-0.3c-0.9-1.7-1.7-3.4-2.6-5.1"/>
		<path fill="#FFFFFF" d="M347.4,157.9c12.3-1.1,29.8-0.2,32.4,21.4c2.6,20.9-14.7,26.9-27.9,28c-2.9,0.3-5.7,0.5-8.6,0.8
			c-0.5,0-0.8-0.2-0.8-0.5c-1.3-16.1-2.7-32.3-4-48.4c0-0.3,0.2-0.6,0.7-0.6C341.9,158.4,344.7,158.2,347.4,157.9z M351.9,198.5
			c6.4-0.3,19.8-2.8,18.1-18c-1.5-13.1-10-15.4-21-13.9C349.9,177.3,350.9,187.9,351.9,198.5z"/>
		<path fill="#FFFFFF" d="M439,170.9c2.2,12.5-4.3,26.8-21.7,29.4c-17.7,2.6-27.9-9.2-29.5-21.7c-1.5-12.6,5.2-26.3,22-28.7
			C426.2,147.3,436.8,158.3,439,170.9z M429,172.7c-1.4-8.2-7.9-15.5-18-14c-10.3,1.5-14.3,10.4-13.2,18.6
			c1.1,8.2,7.4,15.6,18.1,14.1C426.4,189.8,430.4,180.8,429,172.7z"/>
	</g>
</g>
<g>
</g>
<g>
</g>
<g>
</g>
<g>
</g>
<g>
</g>
<g>
</g>
</svg>
