<?xml version="1.0" encoding="utf-8"?>
<!-- Generator: Adobe Illustrator 18.1.1, SVG Export Plug-In . SVG Version: 6.00 Build 0)  -->
<svg version="1.1" id="Layer_1" xmlns="http://www.w3.org/2000/svg" xmlns:xlink="http://www.w3.org/1999/xlink" x="0px" y="0px"
	 viewBox="0 0 200 144" enable-background="new 0 0 200 144" xml:space="preserve">
<g>
	<path fill="#EC2176" d="M88.6,94.4c3.5,2.2,7.2,3.8,11.3,4.4c10.5,1.6,19.4-1.5,26.7-9.2c0.7-0.7,1-0.8,1.7-0.1
		c4.4,3.6,8.9,7.2,13.4,10.7c0.8,0.6,1.4,1.2,0.7,2.3c0.3,0.4-0.1,0.6-0.3,0.9c-5.4,8-10.6,16.1-16.1,24.1c-0.3,0.4-0.6,0.9-1.1,1.2
		c-3,1.3-6.2,1.9-9.5,2.5c-4.4,0.8-8.9,0.9-13.4,0.9c-0.4-0.2-0.7-0.5-0.9-0.9c-6.1-9.2-12.2-18.3-18.3-27.5
		c-0.1-0.1-0.2-0.2-0.2-0.4c0-0.1,0-0.2,0-0.3c0.7-1.2,1.6-2.3,2.3-3.6c0.9-1.4,1.8-2.8,2.8-4.2C88,94.9,88.1,94.4,88.6,94.4z"/>
	<path fill="#FFCF1B" d="M139.4,18.2c0.8,0.4,1.5,0.9,2.2,1.4c-0.5,0.6-1.2,0.4-1.8,0.4c-0.4,0-0.9,0-1.4,0
		c-6.5,0.1-13.1,0.1-19.6,0c-1.1,0-2.2,0-3.3,0c-0.5,0-1,0.1-1.5,0c-0.4,0-0.9,0-1.3,0c-1,0.1-1.9,0-2.9,0c-0.7,0-1.3,0-2,0
		c-2.5,0-5,0.1-7.4,0c-2,0.1-4,0-6,0c-3.7,0-7.4,0-11,0c-0.3,0-0.6,0-0.9,0c-4.4,0.1-8.8,0-13.1,0c-0.4,0-0.9,0-1.1-0.4
		c5.5-4.1,11.5-7,18-9.1c7.3-2.3,14.8-3.2,22.4-2.8c9.7,0.6,18.7,3.3,27.2,8.1c0.1,0.1,0.2,0.2,0.3,0.3c0.7,0.5,1.2,1.1,1.6,1.8
		c0.4,0.6,0.7,1.2,1.4,0.4C139.2,18.2,139.3,18.2,139.4,18.2z"/>
	<path fill="#40BA94" d="M51.8,102.1c-1.9-2.7-3.2-5.7-4.5-8.7c-0.9-2.2-1.7-4.5-2.3-6.8c0.9-0.7,2.1-0.6,3.2-1.1
		c0.7-0.3,1.4-0.4,2-0.9c0.6-0.5,1.3-0.4,2-0.1c1.3,0.5,2.5,0.6,3.7-0.4c0.6-0.5,1.5-0.6,1.9-1.4c0.2-0.1,0.4-0.2,0.5-0.3
		c0.3-0.2,0.6-0.3,0.9-0.4c0.7-0.2,1.2-0.5,0.8-1.4c-0.2-0.4,0.1-0.8,0.4-1.2c0.1-0.1,0.1-0.2,0.2-0.2c0.7-0.3,1.1-1.1,2-1.1
		c0.2,0,0.2-0.2,0.1-0.4c-0.3-1.5-0.3-1.5,1-2.1c0.1-0.1,0.2-0.2,0.3-0.3c0.5,0,0.7,0.5,0.9,0.8c0.6,0.8,1,1.6,1.6,2.4
		c2.1,3.1,4.1,6.2,6.2,9.3c0.3,0.7,1,1.2,1,2c-1,0.4-1.4,1.4-0.8,2.3c0.5,0.8,0.4,1.8,0.3,2.6c-0.1,1,0.3,1.6,0.8,2.3
		c0.3,0.3,0.6,0.6,0.5,1.1c0,0.4,0.2,0.9,0.5,0.7c0.4-0.1,1.1-0.3,0.9-0.8c-0.3-1.2,0.6-1.8,1.1-2.6c1,0.2,1.1,1.2,1.7,1.8
		c0.1,0.2,0.2,0.4,0.1,0.7c-0.4,0.5-0.1,1.2-0.6,1.7c-0.4,0.3-0.3,0.8-0.4,1.3c0,0.3-0.2,0.6-0.5,0.7c-0.3,0.1-0.5-0.1-0.6-0.3
		c-0.2-0.5,0,0.1-0.1,0c-0.4,0.7-1,0.9-1.5,0.2c-0.5-0.7-1.1-0.8-1.9-0.7c-0.6,0.1-1.2,0-1.8-0.2c-0.5-0.1-0.9-0.1-1.2,0.4
		c-0.4,0.9-1,0.7-1.4,0.2c-0.4-0.5-0.8-0.4-1.3-0.2c-0.8,0.2-1.6,0-2.4,0c-1.2-0.1-2.5-0.4-3.7-0.3c-0.8,0-1.4-0.7-2.2-1
		c-0.5-0.2-1-0.4-1.6-0.3c-0.5,0.1-1.1,0.2-1.5-0.5c-0.1,0.6-0.6,1.2,0.5,1.4c0.5,0.1,1.4,0.7,1.1,1.7c-0.1,0-0.2,0-0.3,0
		c-1.4-0.4-2.7-0.9-4.1,0c-0.3,0.2-0.7,0.3-1.1,0C52.5,101.5,52.2,102.2,51.8,102.1z"/>
	<path fill="#FAF1CB" d="M82.8,103.1c3.1,4.5,6.1,9.1,9.2,13.6c3.4,5.1,6.8,10.1,10.1,15.2c-3.6,0-7.1-0.6-10.6-1.3
		c-5.1-1.1-9.9-2.8-14.6-5.1c-2.3-1.1-4.5-2.3-6.5-3.9c-0.2-0.4,0.1-0.7,0.3-0.9c0.6-0.8,1.1-1.7,1.7-2.5c0.7-1.1,1.5-2.1,2.1-3.2
		c0.1-0.2,0.2-0.3,0.3-0.5c2.3-3.4,4.5-6.8,6.9-10.2C82.1,103.7,82.2,103.2,82.8,103.1z"/>
	<path fill="#1C164B" d="M81.7,51.8c-2.4,3.3-4.2,6.8-5.2,10.8c-0.7,2.8-1,5.7-1,8.6c-0.2,0.2-0.5,0.2-0.7,0.1
		c-0.6-0.2-0.9-0.1-1.2,0.6c-0.3,0.9-1.3,1.2-1.8,2c-0.3,0.4-1.2,0.2-1.5-0.3c-0.4-0.5-0.8-0.7-1.3-0.6c-0.2,0-0.4,0-0.5-0.2
		c-0.4-1.4-1.5-0.7-2.1-0.6c-0.9,0.2-1.8,0-2.6-0.2c-0.9-0.2-1.8-0.6-2.6-1.1c-0.4-0.2-0.6-0.6-0.8-0.9c-1-1.6-2.1-3.1-3.1-4.7
		c-0.2-0.3-0.4-0.6-0.5-1c-0.1-0.6-0.6-1-0.9-1.6c-0.3-0.6-0.4-1.1,0.3-1.6c0.3-0.2,0.5-0.5,0.7-0.8c0.7-0.9,1.3-0.8,2,0.2
		c0.1,0.2,0.5,0.1,0.8,0.1c0.3-0.1,0.5-0.3,0.3-0.6c-0.3-0.4-0.5-0.7-0.1-1.1c0.4-0.4,0.9-0.2,1.3-0.1c0.2,0,0.4,0.1,0.6,0.2
		c0.3,0.1,0.5,0,0.6-0.3c0.2-0.7,0.7-1.2,1.2-1.8c0.3-0.3,0.5-0.5,0.6-0.9c0.1-1,0.5-1.9,1.1-2.6c0.3-0.4,0-0.9,0.1-1.4
		c0.4-2,1.8-2.9,3.7-3.3c0.5-0.1,1.1,0,1.1-0.8c0-0.3,0.5-0.5,0.8-0.1c0.6,0.7,1.5,1.2,1.5,2.2c0.2,1.1,0.8,1.9,1.6,2.6
		c1.2,1.2,1.7,3.3,1,4.9c-0.3,0.7-0.5,1.3-0.5,2.1c0.3-0.1,0.5-0.3,0.5-0.6c-0.1-1.4,0.8-2.2,1.8-2.9c1-0.7,1.7-1.4,2.3-2.5
		c0.4-0.8,1.5-1.1,2.1-1.9C81.2,51.5,81.4,51.5,81.7,51.8z"/>
	<path fill="#EC2176" d="M150.2,37.9c-2.9,2.4-5.7,4.7-8.6,7.1c-3.7,3-7.3,5.9-11,8.9c-0.4,0.3-0.6,0.7-1.1,0
		c-2.1-3.3-4.8-5.9-7.9-8.2c-0.5-0.4-0.2-0.8,0.1-1.2c1.2-2,2.5-3.8,3.8-5.7c0.6-0.9,1.1-1.7,1.7-2.6c0.4-0.6,0.7-1.3,1.5-1.6
		c6.5-0.1,13-0.1,19.5,0C149.2,35.4,150.2,36.4,150.2,37.9z"/>
	<path fill="#F58A35" d="M125,128.5c1.1-1.7,2.2-3.3,3.3-5c4.7-7.1,9.4-14.1,14.2-21.2c0.5-1,1-0.9,1.9-0.2c2.6,2.2,5.3,4.3,8,6.4
		c0.4,0.3,0.7,0.5,0.2,1.1c-7.4,8.8-16.6,15-27.4,18.8C125.1,128.6,125,128.6,125,128.5z"/>
	<path fill="#1E184E" d="M114.8,42.1c-2.6-0.7-5.1-1.4-7.8-1.6c-4.9-0.4-9.6,0.5-14,2.5c-3.6,1.6-6.7,3.8-9.4,6.7
		c-0.7-0.3-0.8-0.6-0.4-1.1c0.4-0.4,0.7-0.9,1-1.4c0.5-1.1,0.3-2-0.8-2.5c-0.4-0.2-0.7-0.3-0.5-0.8c0.2-0.4,0-0.8-0.3-1.1
		c-0.6-0.5-0.3-1.1,0.1-1.6c0.4-0.5,0.8-0.5,1.3-0.1c0.3,0.3,0.6,0.4,1,0.4c1.5,0.1,2.9,0.5,4.4,0.5c0.7,0,1.1,0.6,1.8,0.8
		c0.1-0.3,0-0.7-0.2-0.9c-0.5-0.6-0.5-1,0.2-1.5c0.6-0.5,0.1-1-0.3-1.4c-1-0.9-0.9-1.5,0.1-2.3c0.2-0.2,0.5-0.3,0.5-0.6
		c0-0.4-0.4-0.4-0.6-0.5c-0.5-0.3-1.1-0.2-1.7-0.3c-0.2,0-0.5-0.1-0.4-0.4c0-0.2,0.2-0.2,0.4-0.3c1-0.1,1.9,0,2.9,0
		c8.2,0,16.5,0,24.7,0c0.5,0,1.1,0,1.6,0c0.3,0.1,0.6,0.3,0.4,0.7c-0.4,0.8-0.4,1.5,0.1,2.3c0.1,0.2,0.1,0.5,0,0.7
		c-0.5,0.3-0.6-0.3-1.1-0.5c0.5,0.4,0.7,0.8,0.4,1c-0.6,0.4-0.2,0.9-0.1,1.3c0,0.4-0.1,0.6-0.5,0.7c-0.8,0-1.3,0.3-1.6,1.1
		C115.7,42.6,115.1,41.9,114.8,42.1z"/>
	<path fill="#35B590" d="M56.7,64c1.5,2.3,2.9,4.5,4.5,6.7c0.2,0.3,0.7,0.5,0.5,1c-0.3,0.1-0.4,0.4-0.3,0.7c0.1,0.9-0.4,1.6-0.2,2.6
		c0.1,0.5-0.7,1-1,1.6c0.5-0.3,0.9-0.2,1.2,0.3c0,0.1,0,0.2,0,0.3c-0.3,0.3-0.7,0.6-1,0.9c-0.2,0.1-0.4,0.4-0.5,0.3
		c-1.2-0.5-0.9,0.1-0.7,0.8c0.2,0.6-0.1,0.8-0.5,1c-0.3,0.2-0.4,0.5,0,0.6c0.6,0.1,0.6,0.4,0.4,0.7c-0.2,0.4-0.6,0.6-1.1,0.4
		c-0.3-0.1-0.4-0.7-0.8-0.2c-0.1,0.1-0.3-0.1-0.5-0.2c-0.6-0.4-1-0.8-1.9-0.4c-0.6,0.3-0.8-0.6-1-1c-0.2-0.5,0-0.8,0.6-0.8
		c0.1,0.1,0.1,0.1,0.2,0.2c0-0.1-0.1-0.1-0.2-0.2c-0.3-0.2-0.5,0-0.6,0.2c-0.2,0.3-0.4,0.5-0.6,0.5c0.2,0,0.6,0.1,0.5,0.6
		c-0.1,0.5-0.4,0.8-0.9,0.8c-0.5-0.8-1.5-0.5-2.2-0.7c-0.4-0.1-0.9,0-1.4-0.3c-0.2-0.1-0.3,0-0.5,0.2c0.2,0.1,0.5,0,0.7,0.1
		c0.3,0.1,0.6,0.1,0.7,0.4c0.1,0.4-0.3,0.5-0.5,0.6c-0.4,0.2-0.6,0.5-0.9,0.8c-0.1,0.1-0.3,0.1-0.4,0.2c-0.3,0.4-0.5,1.5-1.2,0.2
		c-0.8,0.2-1.5-0.5-2.3-0.4c-0.3,0-0.6,0-0.8-0.2c-0.4-0.9-0.4-1.9-0.6-2.8c0-0.8,0.1-1.6,1.3-1.4c0.3,0,0.5-0.3,0.6-0.5
		c0.3-0.7,0.7-0.6,1.2-0.2c0.4,0.4,0.7,0.3,1.1-0.1c0.3-0.4,0.9-0.5,1.4-0.5c0.8,0,1.1-1,1.9-1c1.3-0.3,2.2-1,2.4-2.2
		c0.1-0.7,0.4-1.2,0.9-1.4c-1,0.6-1.5,0.5-1.9-0.7c-0.1-0.2-0.1-0.5-0.4-0.5c-0.3,0-0.3,0.3-0.3,0.5c0,0.2-0.1,0.4-0.2,0.6
		c-0.6,1.5-1,1.6-2.4,1c-0.1-0.1-0.3-0.1-0.4-0.1c-0.3-0.1-0.5-0.2-0.5-0.5c0-0.5,0.2-0.7,0.7-0.6c0.1,0,0.2,0,0.3,0.1
		c0.2,0,0.7,0.3,0.5-0.3c0-0.2,0-0.5,0-0.7c0-0.1,0.1-0.3,0-0.4c-0.1-0.3-0.5-0.6-0.1-0.9c0.3-0.3,0.7-0.3,1.1-0.1
		c0.9,0.3,1.2,0,1.3-0.9c0-0.2,0-0.5-0.1-0.7c-0.2-0.5-0.4-0.9,0.2-1.3c0.6-0.4,1.1-0.3,1.7,0c0.3,0.2,0.6,0.4,0.7,0.8
		c-0.1-0.5-0.3-0.9-0.1-1.4c0.1-0.2-0.2-0.5,0.1-0.7c0.3-0.2,0.5,0.1,0.7,0.3c0.1,0.1,0.2,0.2,0.3,0.3c0.2-0.3-0.2-0.8,0.2-1.1
		c0.3-0.2,0.7-0.2,1.1-0.2c0.2,0.1,0,0.4,0.2,0.5c0-0.2,0-0.3-0.1-0.5c-0.1-0.1-0.1-0.3-0.1-0.4C56.6,64,56.6,64,56.7,64z"/>
	<path fill="#1D1243" d="M88.6,34.8c0.7,0.4,1.7,0,2.4,0.6c0.2,0.2,0.7-0.1,0.7,0.4c0,0.4-0.3,1-0.7,1c-0.8,0.1-0.5,0.8-0.9,1.2
		c-0.1,0.2,0.1,0.3,0.3,0.5c1.2,0.7,1.3,1.5,0.2,2.3c-0.2,0.2-0.2,0.3-0.1,0.5c0.5,0.7,0.5,0.7,0.7,1.8c-0.6,0.1-0.9-0.4-1.3-0.5
		c-0.5-0.2-1-0.8-1.6,0c-0.2,0.3-0.4,0-0.6-0.2c-0.2-0.3-0.3-0.6-0.8-0.5c-1.4,0.3-2.6,0.1-3.7-0.8c-0.5-0.4-0.6,0.3-0.8,0.6
		c-0.4,0.4-0.3,0.7,0.1,1.1c0.6,0.5,0.6,1.2,0.2,1.7c1.4,0,2.2,1.7,1.5,3c-0.3,0.5-0.6,0.9-1,1.3c-0.6,0.5-0.4,0.7,0.1,1.1
		c-0.6,0.7-1.2,1.4-1.8,2.1c-0.3,0-0.6,0-0.8,0c-0.2-0.4-0.1-0.8,0.2-1.1c0.7-0.7,0.8-1.7,1.4-2.5c0.4-0.5,0.3-0.9-0.1-1.3
		c-0.2-0.2-0.5-0.5-0.6-0.8c-0.5-1.3-1.6-1.6-2.7-1.7c-1.1-0.1-2-0.6-2.9-0.9c-0.4-0.1-0.5-0.5-0.4-0.9c0.1-0.5,0.3-1,0.5-1.4
		c0.4-0.5,0.2-0.7-0.4-0.8c-0.1-0.1-0.2-0.2-0.2-0.3c0.1-1.3,0.2-2.6,0.6-3.8c0.4-0.5,1-0.8,0.6-1.6c0-0.1,0.2-0.2,0.3-0.2
		c3.5-0.1,7.1,0,10.6,0C88,34.5,88.3,34.5,88.6,34.8z"/>
	<path fill="#191546" d="M46.5,48.8c0.4-2,1.3-3.7,2.2-5.5c0.9-1.9,1.8-3.8,3-5.5c0.3-0.2,0.6-0.4,1-0.3c0.3,0.5,0.9,0.2,1.3,0.4
		c0.4,0.2,0.2-0.4,0.5-0.4c-0.1-0.2-0.3-0.3-0.5-0.3c-0.4,0-0.6,0.6-1,0.5c-0.3-0.3-0.3-0.7-0.4-1.1c0.3-0.6,0.7-1.2,1.2-1.8
		c0.5-0.3,1.1-0.3,1.7-0.2C56,34.9,56,35.5,56,36c0,0.5,0.1,0.7,0.7,0.7c0.3,0,0.5,0.1,0.7,0.3c0.1,0.2,0.2,0.3,0.3,0
		c0.1-0.2,0.4-0.2,0.4-0.5c0-0.2-0.2-0.3-0.4-0.3c-0.5,0-1-0.1-1.1-0.6c-0.1-0.5,0.2-0.8,0.6-1c1-0.1,1.9-0.1,2.9,0
		c1.1,0.3,1.6,1.3,2.4,1.8c0.4,0.3,0.4,0.8,0.3,1.3c-0.2,0.4-0.5,0.6-1,0.6c-0.5-0.2-1,0-1.6-0.4c-0.6-0.4-1.2,0.3-1.3,1.4
		c0.2-0.1,0.1-0.3,0.1-0.5c0.1-0.2,0.3-0.3,0.5-0.3c0.2,0.1,0.3,0.3,0.5,0.4c0.5,0.4,0.9,0.9,1.4,1.4c-1.1,1.5-1.4,1.6-2.8,0.8
		c-0.8-0.4-1.4-0.1-1.2,0.6c0.5,1.7-0.2,2.9-1.1,4.2c-0.3,0.2-0.6,0-0.8,0.1c0.2,0.9-0.7,2.1-1.6,2c0.6,0.6,1-0.4,1.5-0.2
		c0.5,1,0.3,1.4-0.7,1.3c-0.3,0-0.6-0.1-0.8,0.1c-0.5,0.3-0.9,0.2-1.3-0.1c-0.2-0.2-0.4-0.4-0.6-0.4c-0.3,0-0.6,0-0.8,0.3
		c-0.2,0.3,0.2,0.4,0.4,0.5c0.1,0.1,0,0,0.1,0.1c1.5,1.1,1.5,1.7-0.2,2.4c-0.8,0.3-1.2,1.3-2.2,1.1c-0.5-0.1-0.7-0.6-1-0.9
		C47.3,51.5,47.1,50,46.5,48.8z"/>
	<path fill="#337E3E" d="M68.2,19.7c3.1,0.2,6.3,0,9.4,0.1c1.6,0,3.3,0,4.9,0c0.2,0.3,0.6,0.4,0.9,0.6c0.3,0.1,1,0,0.8,0.7
		c-0.2,0.5-0.6,0.7-1.1,0.5c-0.7-0.3-1.2,0-1.5,0.7c-0.3,0.2-0.5,0.1-0.8,0c-0.7-0.3-1.1-0.2-1.4,0.5c-0.2,0.5-0.8,0.3-1.2,0.4
		c0.3,0,0.7,0,1,0c0.5,0.6,1.7,0.9,0.9,2.1c0.7,0.6-0.3,1.1-0.2,1.7c0,0.5-0.2,1-1,0.7c-0.8-0.3-0.7,0.7-1,1
		c-0.4,0.4,0.2,0.4,0.5,0.6c0.3,0.2,0.4,0.5,0.2,0.7c-0.9,0.7-0.3,1.6-0.1,2.3c0.3,1,0,1.7-1.1,2c-0.3-0.2-0.4-0.4-0.4-0.7
		c0-0.4-0.3-0.6-0.5-0.9c-0.2-0.3-0.9-0.2-0.8-0.7c0.1-0.5,0.1-1.1,0.4-1.5c0.3-0.4,0.4-0.9-0.1-1.2c-0.1-0.1-0.2-0.2-0.2-0.3
		c0.6-1.1-0.3-2.7,1-3.5c0.2-0.1,0.2-0.3,0.1-0.4c-0.5-0.5-0.6-1.1-0.9-1.7c-0.2-0.4-0.4-0.6-0.8-0.4c-0.3,0.1-0.7,0.2-1,0.2
		c0.3,0.3,0.6,1.3,0.3,1.5c-0.5,0.4-1.1,0.5-1.6-0.1c-0.4-0.4-0.7-0.8-0.8-1.4c0-0.8-0.8-1.3-1.6-1.2c-0.3,0-0.3,0.1-0.3,0.4
		c-0.1,0.9,0.4,1.6,0.3,2.5c0,0.2,0.2,0.3,0.3,0.4c0.3,0.1,0.5-0.2,0.7-0.4c0.4-0.9,0.9-0.8,1.4-0.1c0.4,0.9-0.5,1.7-0.3,2.6
		c0,0.1-0.2,0.3-0.4,0.3c-1,0.1-1.9,0.9-3,0.8c-0.5-0.1-1,0.2-1.6,0.3c-0.1,0-0.2,0-0.3,0c-0.4,0-0.8-0.2-1.1,0.1
		c-0.1,0-0.2,0.1-0.3,0.1c-0.6,0.1-1,0.5-1.5,0.8c-0.4,0.2-0.8,0.3-0.7-0.4c0-0.2,0.1-0.4-0.2-0.5c-0.7-0.4-0.3-0.8,0.1-1.1
		c0.5-0.3,0.5-0.7,0.4-1.2c-0.2-1-0.2-1,0.8-1.2c-1.3,0.3-1.4,0.5-1.8,1.7c-0.3,1-2.6,2.7-3.7,2.7c-0.3,0-0.6-0.1-0.5-0.5
		c0-0.2,0.1-0.5,0-0.7c0.6-0.8,1.3-1.5,2-2.2c0.5,0,0.5,0.4,0.6,0.7c0.5-0.6,0.5-1.3,0.9-1.8c0.4-0.4,1.2-0.3,1.2-0.8
		c0.1-0.6,0.4-1,0.8-1.5C65.7,21.6,66.9,20.5,68.2,19.7z"/>
	<path fill="#B53426" d="M148.4,34.8c-0.2,0-0.5-0.1-0.7-0.1c-6.2,0-12.5,0-18.7,0c-0.2,0-0.5,0-0.7,0.1c-0.3,0.3-0.8,0.3-1.2,0.3
		c-2.2,0-4.5,0-6.7,0c-0.2,0-0.4-0.1-0.6-0.2c-0.1-0.1-0.2-0.2-0.1-0.4c0.1-0.2,0.3-0.2,0.5-0.3c0.5,0,1,0,1.6-0.1
		c2.3,0,4.5,0,6.7,0c6,0.1,11.9,0,17.9,0c0.3,0,0.7,0.1,0.9-0.2c0.1-0.3-0.2-0.5-0.3-0.7c-2.6-4-5.3-7.9-7.9-11.9
		c-0.3-0.4-0.6-0.8-0.7-1.3c0-0.1,0-0.2,0.1-0.3c1-0.1,2.1,0.1,3.1-0.1c4.8,3.5,9,7.5,12.5,12.3c-0.1,0.4-0.5,0.4-0.8,0.4
		c-0.3,0-0.5,0.2-0.6,0.7c0.7-0.3,1.3-0.8,2-0.2c0.7,0.9,1,0.6-0.8,2C152.2,35.3,150.3,35.4,148.4,34.8z"/>
	<path fill="#1BA07B" d="M48.6,52.1c0.3,0.3,0.6,0.7,0.9,1c0.4,0.3,0.7,0.6,0.8,1.1c0.4,1.1,0.5,2.1-0.2,3.1
		c-0.2,0.2,0.1,0.4,0.3,0.6c0.4,0.6,1.1,0.9,1.6,1.4c0.2,0.3,0.7,0.3,0.3,0.8c-0.3,0.4-0.8,0.9-1.2,0.5c-0.6-0.6-1.3-0.4-1.7-0.7
		c1.2,0.6,1.6,1.1,1.3,1.7c-0.4,0.9-1.5,1.5-2.1,1.2c-0.3,0.6-0.6,1.2,0.2,1.9c0.4,0.3,0.4,1.1,0.6,1.6c-0.2,1.2-0.3,1.3-1.3,1.1
		c-0.6-0.3-1.2-0.6-1.8-1c0,0.9-0.9,1.3-1.7,1c-1.1-0.4-1.1-0.4-1.1,0.8c0,0.4,0.1,0.9-0.5,1c-0.1-5.6,0.7-11,2.3-16.3
		c0.7,0.7,1.7,0.1,2.5,0.6c0.3,0.2,0.7-0.1,0.8-0.5C48.4,52.7,48.3,52.3,48.6,52.1z"/>
	<path fill="#1A9D75" d="M74.8,114.9c-0.6,1.2-1.4,2.2-2.1,3.3c-0.5,0.1-0.5-0.4-0.6-0.7c-0.1-0.4-0.1-0.9-0.2-1.3
		c0,0.3,0.1,0.6,0,0.9c-0.2,0.3-0.2,0.9-0.7,0.8c-0.5-0.1-0.4-0.6-0.3-1.1c-0.6,1-1.7,0.7-2.5,1c-0.4,0.2-1.8-0.7-1.9-1.2
		c-0.2-0.4,0.1-0.6,0.5-0.8c0.1,0,0.2,0.2,0.3,0c0,0-0.1-0.1-0.1-0.1c-0.1-0.1-0.3-0.2-0.4,0c-0.2,0.2-0.3,0.5-0.4,0.7
		c-0.2,0.5-0.4,1-1,1.2c-3.4-2.7-6.4-5.8-9.1-9.3c-0.9-1.2-1.9-2.3-2.6-3.6c0.1-0.3,0-0.6-0.1-1c0-0.1,0.1-0.2,0.1-0.3
		c0.5-0.3,0.9-0.3,1.3,0.1c0.6,0.7,1.3,1.3,1.4,2.3c0,0.3,0,0.3,0.2,0.2c0.1,0,0.4,0,0.4,0.1c0.1,0.9,1,1,1.4,1.5
		c-0.1-0.4,0-0.8,0.4-1c0.2-0.1,0.5-0.1,0.5,0.1c0,0.9,0.6,1.4,1,2.1c0.2,0.3,0.1,0.5-0.1,0.7c0.5-0.5,0.8-0.9,1-1.6
		c0.2-0.8,1.2-0.7,1.8-0.9c0.4-0.1,0.6,0.4,0.6,0.9c0,0.2,0.1,0,0.2,0c0.7-0.1,1.1,0.2,1.3,0.8c0.1,0.3,0.2,0.5,0.5,0.6
		c0.2,0.1,0.5,0.2,0.4,0.5c-0.1,0.3-0.4,0.3-0.7,0.4c-0.3,0.1-0.5-0.3-0.7-0.3c0.6,0.6,0.8,1.4,0.9,2.2c0,0.4-0.2,0.9-0.8,0.9
		c-0.5,0-0.3-0.4-0.3-0.5c0,0.7,0.2,0.9,1.2,0.5c0.7-0.3,1.2-0.1,1.7,0.3c0.3,0.3,0.5,0.5,0.9,0.6c0.3,0.1,0.6,0.5,1,0.2
		c0.3-0.2,0.1-0.6,0.1-0.9c0-0.9,1.4-2.2,2.1-1.9c0.2,0.1,0.4,0.2,0.4,0.3c-0.5,0.9,0.4,0.8,0.7,1c0.4,0.2,0.8,0.7,1.4,0.5
		c0.5-0.2,1,0,0.9,0.7C74.2,114.7,74.8,114.6,74.8,114.9z"/>
	<path fill="#181648" d="M72.6,87.7c-2.2-3-4.2-6.1-6.2-9.3c0.7-0.8,1.7-1.1,2.6-0.4c-0.2-0.5-0.7-0.8-0.6-1.4c0.1-1,0.3-1.1,1.2-1
		c0.5,0.1,0.8-0.1,1.2-0.4c0.6-0.5,1.2-0.9,2.1-0.7c0.4,0.1,0.8-0.3,1.2-0.5c1-0.5,1.5-0.2,1.5,0.9c0,0.4,0.4,0.5,0.4,0.8
		c0.1,0.5,0.3,1,0.4,1.5C75.7,79.2,75.1,81,75,83c-0.1,1.7-0.9,3.2-1.1,4.9c-0.1,0.6-0.3,0.7-0.8,0.3C72.9,88,72.9,87.8,72.6,87.7z"
		/>
	<path fill="#C7205D" d="M120,34.8c2.8,0,5.5,0,8.3,0c-0.9,1.6-1.9,3.1-3,4.6c-1.2,1.8-2.3,3.6-3.5,5.3c-0.2,0.3-0.3,0.5-0.2,0.9
		c-1.7-1.1-3.4-2-5.1-2.9c-0.2-0.2-0.6-0.1-0.5-0.6c0.1-0.3,0.3-0.6,0.6-0.6c0.5,0,0.9-0.2,1.4-0.2c-0.3-0.2-0.8-0.3-0.7-0.8
		c0.2-0.2,0.4-0.3,0.4-0.7c-0.1-0.4-0.1-0.9,0.5-1c0.6-0.1,0.3-0.5,0.4-0.8c0.2-0.7-0.6-1.1-0.6-1.8c0-0.7,0.2-1.1,0.5-1.6
		c0.1-0.1,0.2-0.1,0.3-0.1C119.2,35,119.6,35.1,120,34.8z"/>
	<path fill="#397E3D" d="M67.3,28.1c0.1,0,0.2,0,0.2,0c0.1,0.1,0.2,0.1,0.4,0.2c0.4,0.2,0.7,0.4,0.6,0.9c-0.1,0.5-0.5,0.3-0.8,0.3
		c-0.2,0-0.4,0.1-0.7,0.2c0.5,0.2,0.8,0.5,0.9,1c0.1,0.4,0.3,1-0.3,1.1c-0.6,0.2-0.9-0.3-1-0.8c-0.2,0.3-0.4,0.6-0.5,1
		c0.2,0,0.3-0.2,0.3-0.2c1.1,0.4,2.3-0.4,3.4,0.2c0.4,0.2,0.3,0.9,0.9,1.2c0.3,0.1,0.5,0.6,0.7,0.9c0.3,0.4,0.1,0.6-0.3,0.7
		c-3.2,0.1-6.5,0.1-9.7,0c-1.4-0.1-2.8-0.1-4.3-0.1c-0.1,0.1-0.2,0.1-0.4,0.1c-0.6,0.2-1.2-0.2-1.8-0.2c-0.6-0.2-0.3-0.6-0.2-0.8
		c0.3-0.5,0.5-1.1,0.8-1.6c0.2-0.2,0.3-0.5,0.5-0.7c0.5,0.3,0.8,0.7,1.5,0.8c-0.8-0.1-0.8-0.7-0.8-1.2c0-0.6,0.2-0.8,0.8-0.6
		c0.6,0.3,0.9,0,1.2-0.5c0.4-0.6,0.8-1,1.6-0.9c0.3,0,0.6-0.1,0.9-0.3c1-0.7,1.7-0.6,2.4,0.4c0.2,0.3,0.4,0.3,0.7,0.2
		c0.7-0.3,1.4-0.6,2-1.1l0,0C66.5,28,67,28.6,67.3,28.1z"/>
	<path fill="#23AD86" d="M42.8,69.2c0.5-0.5,0.2-1.1,0.2-1.6c0-0.7,0.4-0.9,0.9-0.7c0.6,0.3,1,0.6,1.6,0.1c0,0,0.2,0.1,0.3,0.2
		c0.5-0.4-0.7-0.5-0.1-0.9c0.6-0.5,0.7,0.2,1,0.3c0.1,0,0.1,0.1,0.2,0.1c0.4,0.2,0.7,0.4,1.1,0.6c-1,0.7-2,1.2-2.5,2.4
		c-0.3,0.7-1.2,0.3-1.8,0.5c0,0.1,0,0.2,0,0.3c1.1,0.3,1.3,0.9,0.9,1.9c0,0.1-0.2,0.3,0.2,0.3c1.1,0.3,1.6,1.1,1.7,2.2
		c0,0.4,0.4,0.7,0.5,1c0.1,0.1,0.2-0.1,0.1,0c0,0,0,0,0-0.1c-0.5-1.5-0.3-2.2,1.1-2.8c0.2-0.1,0.4-0.1,0.6-0.3
		c0.3-0.2,0.5-0.1,0.7,0.1c0.6,0.6,1.1,0.4,1.4-0.3c0.3-0.6,0.8-1.2,0.4-2c0.9-0.1,1.4,0,1.5,1.1c0.1,0.9,0.8,0.5,1.3,0.3
		c0.2-0.1,0.3-0.4,0.9-0.2c-1.2,0.7-1,2-1.7,2.8c-0.5,0.7-1.1,1.6-2.2,1.4c-0.2-0.4,0.2-0.5,0.3-0.9c-0.8,0.7-1.5,1.3-2.2,1.9
		C48.5,77,48,77,47.6,77.6c-0.3,0.6-0.9,0.3-1.1,0c-0.5-0.7-0.7-0.4-1,0.2c-0.1,0.2-0.1,0.7-0.5,0.6c-1-0.3-1.3,0.3-1.6,1.1
		C42.9,76.1,42.6,72.6,42.8,69.2z"/>
	<path fill="#16123A" d="M72.6,87.7c0.4-0.1,0.4,0.6,0.9,0.5c0.6-2.5,1.4-5,1.5-7.6c0.1-1.3,1.1-1.9,1.1-3.1c0-0.1,0.2-0.2,0.3-0.2
		c0.2,0.8,0.5,1.6,0.7,2.4c-0.6,0.9,0.2,1.2,0.6,1.7c0.1,0.1,0.2,0.3,0.2,0.4c0,0.1,0.1,0.2,0,0.3c-1.3,1-0.3,1.9,0.1,2.7
		c0.3,0.5,0.4,0.8,0.3,1.4c-0.1,0.7,0.1,1.5,0.5,2.1c0.6,0.9,0.5,1.8-0.1,2.7c-0.5,0.7-0.7,1.5-0.7,2.3c0,0.7-0.1,1.3-0.7,1.7
		c-0.6-0.2-0.8-0.8-1.1-1.2c-0.8-1.4-2-2.6-2.5-4.2C73.4,89,73,88.4,72.6,87.7z"/>
	<path fill="#12133D" d="M76.1,75.8c-0.4-0.3-1.1-0.3-0.5-1.1c0.2-0.3-0.6-0.8-1.1-0.5c-0.7,0.4-1.3,1-2.2,0.5
		c-0.3-0.1-0.8,0.4-1.2,0.7c-0.6,0.6-1.4,0.9-2.2,0.1c0.3,0.6-0.9,1.4,0.4,2c0.5,0.2-0.3,0.6-0.4,1.1c-0.5-0.9-1.2-0.9-2.5-0.2
		c-0.9-0.9-1.5-2.2-2.2-3.2c-0.5-0.1-0.6-0.6-0.9-0.9c-0.5-0.8-1.3-1.5-1.5-2.5c0.1-0.4-0.4-0.6-0.4-1c0.8,0.3,1.5,0.5,2.3,0.9
		c0.3,0.2,0.5,0.4,0.9,0.1c0.2-0.2,0.5-0.1,0.6,0.2c0.1,0.2,0.4,0.3,0.5,0.2c0.7-0.7,1.7,0.1,2.4-0.4c0.3-0.2,0.6,0,0.8,0.2
		c0.3,0.3-0.2,0.2-0.2,0.4c-0.2,0.4,0.1,0.4,0.4,0.4c0.5,0,1.1-0.2,1.4,0.7c0.2,0.6,1.3,0.5,1.6-0.2c0.2-0.4,0.4-0.6,0.8-0.8
		c0.2-0.1,0.6-0.4,0.6-0.5c-0.1-1.8,1-0.9,1.8-0.8c0.1,0,0.2,0,0.3,0C75.7,72.7,75.9,74.3,76.1,75.8z"/>
	<path fill="#181648" d="M77.4,94.9c0.7-1,0.4-2.2,0.7-3.3c0.2-0.7,0.9-1,0.9-1.9c0-0.4,0.1-0.7-0.1-0.9c-0.7-0.6-0.5-1.6-0.9-2.3
		c0,0,0-0.1,0-0.1c-0.2-1.6-0.2-1.6-1.1-3c-0.2-0.3-0.1-0.5,0.2-0.7c0.4-0.2,0.7-0.5,0.9-0.9c1.4,2.8,3.1,5.5,5.2,7.9
		c-1.2,2.1-2.1,4.4-3.5,6.5c-0.2,0.4-0.4,0.8-0.8,0.9c-0.6-0.6-0.9-1.4-1.5-2c0,0-0.1,0-0.1-0.1C77.3,95,77.3,95,77.4,94.9z"/>
	<path fill="#111124" d="M78.9,97.2c0.9-1.5,1.7-3.1,2.7-4.6c0.3-0.5,0.3-1.1,0.5-1.6c0.4-0.9,0.4-1,1.1-1.2
		c0.4,0.4,0.9,0.9,1.3,1.3c0.2,1.4-0.6,2.6-1.1,3.8c-0.2,0.6-0.2,1.1,0.1,1.6c0.4,0.9,1,1.6,1.5,2.5c0.1,0.2,0.3,0.3,0.2,0.6
		c-0.7,1.2-1.5,2.4-2.3,3.5c-0.4-0.1-0.6-0.4-0.8-0.6c-0.8-1.2-1.6-2.4-2.4-3.6c-0.2-0.3-0.5-0.5-0.4-0.9
		C79.1,97.6,79,97.4,78.9,97.2z"/>
	<path fill="#1E1C52" d="M85.1,99.5c-1.1-1.1-1.8-2.4-2.2-3.8c-0.2-0.5,0.3-1.4,0.7-2c0.4-0.6,0.8-1,0.5-1.8
		c-0.1-0.3,0.1-0.6,0.5-0.8c1.4,1.1,2.7,2.2,4.1,3.3C87.5,96.1,86.3,97.8,85.1,99.5z"/>
	<path fill="#3AB281" d="M65.1,117.6c0.3-0.8,1.1-1.3,1.1-2.2c0-0.4,0.4-0.3,0.6-0.2c0.3,0.2,0.6,0.4,0.6,0.7c0,0.2-0.3,0.3-0.6,0.1
		c-0.2-0.2-0.4,0-0.5,0.2c-0.2,0.3,0.1,0.4,0.2,0.5c0.6,0.3,1.1,1.4,2,0.4c0.8,0.5,1.3-0.2,1.9-0.6c0.2-0.1,0.4-0.1,0.6,0.1
		c0.3,0.3-0.2,0.3-0.2,0.4c0,0.2,0.1,0.5,0.1,0.7c0.8-0.5,0.3-1.6,1.1-2.2c0.1,1,0,1.9,0.6,2.7c-0.7,1.1-1.5,2.3-2.2,3.4
		C68.6,120.4,66.8,119.1,65.1,117.6z"/>
	<path fill="#83903A" d="M66.2,28.3c0.1,0.7-0.7,0.6-1,1c-0.3,0.3-0.9,0.1-1.3,0.4c-0.2,0.2-0.5-0.1-0.6-0.3c-0.7-1-1.2-1.1-2.1-0.4
		c-0.3,0.2-0.7,0.4-1,0.3c-0.7-0.2-0.9,0.1-1.2,0.6c-0.4,0.7-0.8,1.5-1.8,0.6c-0.1-0.1-0.4,0.1-0.3,0.1c0.3,0.4-0.1,1,0.4,1.3
		c0.3,0.2,0.8,0.3,0.4,1c-0.3-0.8-1.7-0.3-1.8-1.4c0.9-1.2,1.8-2.4,2.9-3.4c0.9,0.1,0.2,0.6,0.3,0.9c1.8,0.3,2.4-1.3,3.5-2.1
		c0.2-0.1,0.2-0.3,0.2-0.6c0.1-0.8,0.5-1.4,1.3-1.4c0.5,0,1-1,1.6-0.2c-0.1,0.5-0.5,0.2-0.6,0.2c-0.9,0-1.1,0.4-0.7,1.2
		c0.3,0.6,0.3,1.1-0.5,1.3c-0.2,0.1-0.4,0.2-0.4,0.4c0,0.4,0.3,0.1,0.4,0.2c0.7,0.3-0.1,0.7,0.1,1.2C64.8,29.1,65.2,28,66.2,28.3z"
		/>
	<path fill="#057E7D" d="M44.1,82.3c0.9,0,1.9-0.3,2.7,0.5c0.8-0.7,0.6,0.1,0.7,0.5c0.6-0.1,0.1-1.3,1.1-1c0.2,0.6,1.1,0.5,1.3,1.2
		c0,0.3-0.2,0.5-0.1,0.7c0.1,0.8-0.5,0.9-1,0.9c-1.3,0.1-2.6,0.2-4,0.1C44.4,84.3,44.1,83.3,44.1,82.3z"/>
	<path fill="#154A6F" d="M44.7,85.3c0.7-0.7,1.5-0.1,2.3-0.3c0.5-0.1,1.1-0.2,1.7-0.1c1.1,0.2,0.4-1,0.9-1.3
		c0.1-0.2,0.2-0.4,0.4-0.4c0.8,0.2,1.7,0.3,2.3,0.9c1.8,0.6,3.2-0.1,4.5-1.3c0.6-0.5,0.6-0.5,1.1-0.1c-0.4,0.7-0.8,1.2-1.6,1.3
		c-0.2,0-0.5,0.1-0.6,0.3c-0.3,1-1.2,0.7-1.8,0.8c-0.7,0.1-1.4,0.2-2-0.3c-0.5-0.4-1.3-0.5-1.9,0c-0.9,0.9-2.2,0.9-3.3,1.4
		c-0.6,0.3-1.3,0.3-2,0.4C45,86.1,44.7,85.8,44.7,85.3z"/>
	<path fill="#186E5D" d="M48.6,52.1c-0.2,0.5,0.6,1.1-0.3,1.6c-0.4,0.2-0.7,0.4-1.1,0.1c-0.3-0.2-0.6-0.5-1.1-0.1
		c-0.2,0.2-0.6-0.5-0.9-0.7c0.3-1.4,0.7-2.8,1.4-4c0.5,0.8,1.4,1.3,1.2,2.4C47.6,51.5,48.3,51.8,48.6,52.1z"/>
	<path fill="#BC2243" d="M148.4,34.8c1.9,0,3.7,0,5.6,0c-1.2,1.1-2.5,2.1-3.8,3C149.9,36.7,148.9,35.9,148.4,34.8z"/>
	<path fill="#27AC82" d="M53.5,103.6c0,0.1,0,0.1,0,0.2c0.1,0.4-0.2,0.4-0.4,0.4c-0.5-0.7-1-1.3-1.3-2.1c0.4-0.3,0.7-1.3,1.4-0.2
		c0.2,0.2,0.9-0.2,1.2-0.4c1.3-0.7,2.4-0.2,3.6,0.4c0.1,0.4-0.2,0.6-0.4,0.6c-0.8-0.1-1.7,0.5-2.5-0.1c-0.2-0.2-0.5,0.1-0.8,0.2
		c-0.3,0.1-0.6,0.5-1,0.2C53.3,103,53.6,103.3,53.5,103.6z"/>
	<path fill="#8E943D" d="M64.4,22.6c0.1,0.6-1.1,1.1-0.1,1.8c0.1,0.1-0.2,0.2-0.5,0.2c-1-0.2-1.5,0.4-1.6,1.2c0,0.4-0.8,0.6-0.3,1.1
		c-0.2,0-0.3,0.1-0.5,0.1c-0.2,0-0.5-0.1-0.3-0.4c0.2-0.4,0-0.5-0.3-0.7C61.9,24.7,63.2,23.7,64.4,22.6z"/>
	<path fill="#924125" d="M139.4,18.2c-1.1,1.2-1.1,1.2-2-0.3c-0.4-0.6-0.8-1.2-1.3-1.8C137.3,16.7,138.4,17.4,139.4,18.2z"/>
	<path fill="#812759" d="M117.4,40.6c0.2,0.4,0.7,0.4,1.2,0.8c-0.7,0-1.1,0.5-1.8,0.3c-0.6-0.1-0.6,0.5-0.2,1
		c-0.6-0.1-1.2-0.4-1.7-0.7c0,0,0-0.1,0-0.1c0.8,0,1-0.6,1.3-1.1C116.5,40.5,116.9,40.5,117.4,40.6z"/>
	<path fill="#612515" d="M154.8,32.8c0,0.1-0.1,0.1-0.1,0.2c-0.6-0.5-1.1-0.2-1.6,0.1c-0.2,0.2-0.4,0.4-0.7,0.1
		c-0.2-0.3,0.1-0.5,0.1-0.7c0.2-1.1,1.1-0.2,1.5-0.6C154.4,32.2,154.7,32.5,154.8,32.8z"/>
	<path fill="#959943" d="M55.4,32.2c0.1,0.9-0.7,1.5-0.7,2.4c-0.3,0.1-0.6,0.2-0.9-0.1C54.2,33.7,54.8,32.9,55.4,32.2z"/>
	<path fill="#181648" d="M77.8,81.4c-0.5-0.1-0.9-0.4-1.1-0.9c-0.3-0.6-0.1-0.8,0.5-0.8C77.4,80.3,77.7,80.8,77.8,81.4z"/>
	<path fill="#9E3C5D" d="M52.4,36.5c0.2,0.3,0.5,0.6,0.2,1l0,0c-0.4-0.1-0.6,0.4-1,0.2C51.9,37.4,52,36.9,52.4,36.5z"/>
	<path fill="#2D402A" d="M53.8,34.5c0.3,0,0.6,0,0.9,0.1c0.6,0,1.2,0,1.8,0c-0.3,0.6-0.6,0.3-1,0.1c-0.6,0-1.2,0-1.8,0
		C53.7,34.7,53.7,34.6,53.8,34.5z"/>
	<path fill="#178966" d="M53.1,104.2c0.1-0.1,0.3-0.2,0.4-0.4c0.2,0.3,0.8,0.6,0,0.9C53.3,104.5,53.2,104.3,53.1,104.2z"/>
	<path fill="#0A5244" d="M82.2,102.3c0.2,0.2,0.4,0.5,0.6,0.7c0,0,0,0.1,0,0.2c-2.5,3.7-5,7.3-7.4,11c-0.1,0.1-0.2,0.3-0.3,0.4
		c-0.4,0.1-0.9,0.4-0.5-0.4c0.2-0.4,0.2-0.8,0.4-1.1c0.2-0.3,0.2-0.7,0.7-0.6c-0.2-0.4-0.6-0.2-0.9-0.3c-0.3-0.1-0.5-0.2-0.5-0.5
		c0-0.3,0.2-0.4,0.5-0.5c0.7-0.2,1.5,0.1,2.2-0.6c-0.9,0.2-1.7,0.5-2.5,0c0.3-0.7-0.6-1.3-0.3-2c-0.1,0.2-0.2,0.3-0.4,0.5
		c-0.1,0-0.2,0-0.3,0c-0.6-0.2-0.9,0.3-1.3,0.6c-0.1,0.1-0.2,0.1-0.2,0.2c-0.5,0.2-1,0.3-1.5,0c-0.5-0.3-1.1-0.6-1.5,0.3
		c-0.2,0.5-0.7,0.2-0.7-0.2c0-0.7-0.5-1.1-0.8-1.5c-0.1-0.1-0.1-0.2-0.2-0.2c-0.5,0.1-1.1,0.2-1-0.5c0.2-1.1-1.1-2.4,0.2-3.4
		c1-0.1,1.9-0.1,2.9,0.4c1,0.6,2.1,0,3.1-0.3c0.6-0.2,1.2-0.5,1.7-1c0.3-0.4,0.9-0.5,1.5-0.4c0.5,0,1,0.4,1.6,0.4
		c0.1,0,0.2,0.1,0.3,0.1c0.8,0,1.5-0.3,1.9-0.9c0.5-0.7,1.3-0.7,1.9-1.1C81.5,101.3,81.8,102,82.2,102.3z"/>
	<path fill="#329847" d="M100.4,19.8c2.5,0,5,0,7.5,0c-0.4,0.9-1.1,0.1-1.7,0.3c0.1,0-0.1,0,0,0c1.6-0.3,1.6,0.9,1.6,1.9
		c0,0.3-0.3,0.5-0.6,0.6c-0.3,0.1-0.8-0.4-0.9,0.5c0,0.8,0.3,1,0.8,1.1c0.1,0,0.1,0.1,0.2,0c-0.6-0.9-0.4-1.5,0.9-1.6
		c1-0.1,1.6-0.5,2.2-1.1c0.4-0.1,0.5,0.3,0.8,0.4c0.5,0.2,1,0.4,0.9,0.9c-0.1,0.5-0.7,0.2-1.2,0.4c0.3,0.3,0.7,0.6,0.2,1
		c-0.5,0.5,0,0.7,0.3,0.6c1.1-0.1,1.4,1,2.1,1.4c0.2,0.1,0.2,0.3,0,0.5c-0.8,0.7-0.2,1.1,0.3,1.5c1.2,0.3,1.7,1,1.8,2.2
		c0,1.1,0.3,2.2,0.8,3.3c0.3,0.6,0.2,1-0.7,1c-7.7,0-15.5,0-23.2,0c-0.2-0.6,0.3-0.5,0.6-0.6c0.4,0,0.9,0,1.3,0
		c1.5,0.2,2.8-0.1,3.6-1.4c0.2-0.3,0.6-0.5,1-0.6c1.1-0.2,1.5,0.1,1.4,1.3c0.3-0.3,0.3-0.6,0.6-1c-0.6-0.1-1-0.6-1.5-0.9
		c-0.6-0.3-1.1-0.7-0.7-1.4c0.4-0.6,1-0.9,1.8-0.6c1,0.3,1.6,0.1,2.2-0.7c-0.2,0.3-0.4,0.5-0.8,0.4c-0.9-0.3-1.7,0.1-2.5,0.2
		c-0.8,0.1-1.3-0.2-1.5-0.8c-0.3-0.7-0.7-1.3-1.4-1.7c-0.6-0.3-0.7-0.9-0.4-1.5c0.2-0.4,0.4-0.7,0.1-1.1c-0.3-0.4-0.7-0.3-1-0.1
		c-0.2,0.1-0.4,0.1-0.6-0.1c-0.2-0.2-0.1-0.5,0.1-0.7c0.1-0.2,0.3-0.3,0.4-0.5c0.7-0.7,1.6-1.3,2.3-2.1c0.5-0.5,1.6-0.5,2.1,0
		c0.4,0.4,0.4,1.3-0.1,1.9c-0.3,0.3-0.5,0.6-0.8,0.8c-1,0.7-1,0.7-0.2,1.9c0.4-0.8,0.9-1,1.5-0.3c0.2,0.3,0.4,0.3,0.6,0
		c0.5-0.7,1.3-0.7,2-0.7c0.3,0,0.7,0.2,0.7-0.3c0-0.4-0.4-0.2-0.6-0.2c-0.9,0.1-1.2-0.6-1.3-1.2c-0.1-0.5-0.2-0.9-0.8-0.9
		c-0.3,0-0.6-0.4-0.4-0.6C100.8,21,100.2,20.3,100.4,19.8z"/>
	<path fill="#CBB32E" d="M128.7,34.6c-2.3,0-4.7,0-7,0c-0.1-0.1-0.2-0.1-0.3-0.1c-0.3-0.2-0.9,0.2-1-0.3c-0.1-0.5,0.4-0.7,0.7-0.7
		c0.6-0.1-0.3-0.9,0.5-0.9c0.4,0,0.8,0.4,1.2,0.3c0.2,0,0.3-0.1,0.2-0.4c-0.3-0.1-0.7,0.4-0.8,0.1c-0.1-0.7-1-0.8-1.1-1.4
		c0-0.1,0-0.2,0-0.3c0.3-0.9,0.2-1.2-0.8-1.4c-0.3-0.1-0.6-0.1-0.7-0.4c-0.2-0.4,0.2-0.5,0.4-0.7c0.1-0.1,0.2-0.1,0.3-0.1
		c0.7-0.1,1.2-0.4,0.7-1.1c-0.5-0.8,0.5-0.9,0.6-1.4c0-0.2,0.6-0.6-0.2-0.5c0-0.7-1.7-0.2-1.1-1.5c0,0-0.1-0.1-0.2-0.1
		c-1.3-1.1-1.3-1.1-0.2-2.6c-0.1-0.1-0.2,0-0.2,0.1c-0.3,0.3-0.3,1.2-0.9,0.8c-0.4-0.2-0.3-1-0.7-1.4c-0.2-0.2,0.2-0.5,0.4-0.7
		c6.6,0,13.2,0,19.8,0c0,0.1,0,0.1,0,0.2c-0.1,0.8-0.6,1.3-1,1.9c-1.8,2.6-3.5,5.4-5.3,8C131,31.4,130.1,33.2,128.7,34.6z"/>
	<path fill="#338A42" d="M93.3,34.4c-0.3,0-0.6-0.1-0.8,0.2c-0.3,0.3-0.8,0.1-1.1,0.1c-4.5,0-9,0-13.5,0c-0.6,0-1.2,0-1.8,0.3
		c-0.2,0-0.4,0-0.6-0.1c-0.3-0.5,0.1-0.6,0.4-0.7c0.5-0.1,1-0.1,1.5,0c0.2-0.1,0.6-0.1,0.5-0.4c-0.2-0.7,0.3-0.5,0.9-0.5
		c-1.1-0.9-0.4-2.2-1.2-3.1c0.2-0.1,0.5-0.1,0.7-0.2c0.1,0,0.3-0.2,0.2-0.3c0-0.2-0.2-0.3-0.4-0.2c-0.6,0.3-0.6-0.3-0.7-0.5
		c-0.1-0.3,0-0.6,0.5-0.6c0.1,0,0.2,0,0.2-0.2c0.1-0.8,0.6-1,1.5-0.5c-0.8-0.3,1-1.1-0.3-1.3c0.3-0.4,0.8-0.3,1.1-0.6
		c-0.3,0-0.5-0.1-0.9-0.1c1.5-1-0.2-1.5-0.3-2.3c0,0,0.1-0.1,0.1-0.1c0.7-0.5,1.6-0.3,2.4-0.7c0,0,0-0.1,0-0.1c0,0,0-0.1-0.1-0.1
		c0,0-0.1-0.1-0.1-0.1c0-0.9,0.5-1.2,1.3-1c0.7,0.2,0.7,0.2,1.3-0.4c-0.7-0.2-1.5-0.2-1.7-1c3.9,0,7.9,0,11.8,0
		c0.6,0.1,1.1,0.5,1.7,0.2c0.3-0.2,0.6,0.2,0.7,0.5c0,0.4-0.1,0.6-0.5,0.8c-1.1,0.4-2.3,0.8-3.3,1.4c-0.1,0.1-0.3,0.2-0.4,0.2
		c-0.8-0.2-1.5-0.1-2.2,0.4c-0.4,0.3-0.5-0.7-1.2-0.5c0.7,0.3,0.8,0.8,0.8,1.4c0,0.3,0.2,0.5,0.4,0.7c1.1,0.7,1.2,1.7,0.3,2.7
		c1.2,0,1.6,0.7,1.6,1.7c0,0.4,0.2,0.6,0.5,0.7c0.4,0.2,0.4,0.6,0.3,0.9c-0.1,0.5-0.5,0.3-0.8,0.3c0.5,0.6,0.8,1.3,1.7,1.4
		c0.3,0,0.6,0.5,0.6,0.9c0,0.4-0.4,0.5-0.7,0.6C93.7,34.2,93.5,34.2,93.3,34.4z"/>
	<path fill="#1D8E45" d="M93.3,34.4c0-0.3,0.2-0.4,0.5-0.4c0.3-0.1,0.8-0.1,0.6-0.6c-0.1-0.3-0.3-0.8-0.9-0.6
		c-0.5,0.2-0.9,0.2-0.8-0.6c0.1-0.2-0.2-0.3-0.4-0.4c-0.3-0.2-0.8-0.3-0.4-0.8c0.3-0.4,0.6,0,1,0.2c-0.1-0.5,0.4-1.1-0.6-1
		c-0.5,0-0.3-0.5-0.3-0.6c0-1-0.3-1.7-1.5-1.6c-0.2,0-0.4,0-0.4-0.2c-0.1-0.2,0.1-0.3,0.3-0.3c0.5-0.1,0.8-0.4,0.7-0.9
		c-0.2-0.5-0.1-1.2-0.9-1.4c-0.4-0.1-0.8-0.1-0.5-0.8c0.1-0.2,0.3-1-0.4-1c-0.5,0-0.4-0.2-0.3-0.6c0.1-0.5,0.4-0.4,0.7-0.3
		c0.5,0.1,0.4,0.5,0.6,0.8c0.5-0.3,0.9-0.6,1.4-1.2c0.3,1.1,0.8,0.9,1.4,0.4c1-0.6,2.1-1,3.2-1.3c0.3-0.1,0.3-0.4,0.3-0.5
		c0-0.2-0.3-0.6-0.5-0.3c-0.8,1.1-1.1-0.2-1.7-0.3c2,0,4,0,6,0c0,0.1,0,0.2,0,0.2c0.7,0.7,1,1.3-0.4,1.5c0.1,0.5,0.4,0.3,0.6,0.3
		c0.6,0,0.8,0.4,0.8,0.9c0,0.9,0.5,1.3,1.3,1.2c0.2-0.1,0.5-0.1,0.5,0.1c0.1,0.3,0.3,0.5,0.1,0.8c-0.1,0.2-0.4,0.4-0.6,0.3
		c-1.3-0.5-2.1,0.1-2.8,1.2c-0.4-0.4-0.3-1.2-1.2-1.1c-0.2,0.2,0.3,0.9-0.4,0.9c-0.5,0-0.6-0.5-0.7-0.8c-0.2-0.7-0.9-1.4,0.6-1.7
		c0.4-0.1,1.3-0.6,1.2-1.6c0-0.4,0.1-0.7-0.4-0.9c-0.5-0.2-1.2-0.3-1.5,0.1c-0.6,0.9-1.6,1.4-2.3,2.2c-0.2,0.2-0.6,0.4-0.6,0.8
		c0.2,0.1,0.4,0,0.5-0.1c0.3-0.2,0.5-0.8,0.9-0.1c0.2,0.4,1,0.6,0.5,1.4c-0.4,0.6-0.7,1.3,0.5,1.6c0.3,0.1,1,0.7,1.1,1.5
		c0,0.6,0.3,0.9,1.2,0.8c0.8-0.1,1.6-0.7,2.6-0.2c0.6,0.3,0.8-0.8,1.5-0.6c-0.4,1.1-1.3,1.4-2.3,1.6c-0.3,0.1-0.4-0.1-0.6-0.3
		c-0.6-0.6-1.2,0-1.5,0.4c-0.4,0.4-0.1,0.8,0.5,1c0.7,0.2,1,1.3,2.2,0.8c-0.4,0.7-1,0.9-0.9,1.6c0,0.3-0.3,0.3-0.6,0.2
		c-0.2-0.1-0.4-0.2-0.3-0.5c0.1-0.3,0.7-0.7,0-0.9c-0.5-0.2-1.3-0.3-1.6,0.3C97.1,34.8,95.2,34.4,93.3,34.4z"/>
	<path fill="#B4AC34" d="M120.4,28.4c0,0.3-0.5,0.3-0.4,0.6c0.2,0.5,0.6,0,0.8,0.1c0.8,0.3,1.2,1,1.5,1.7c-0.2,0.3-0.7-0.3-0.8,0.2
		c0,0.4,0.2,0.6,0.7,0.6c0.7,0-0.5,0.7,0.4,0.9c0.1-0.1,0.3-0.3,0.7-0.6c-0.1,0.5,0.4,1,0.1,1.3c-0.6,0.4-1.2-0.3-1.9-0.4
		c-0.2,0.3,0.8,0.5,0.1,0.8c-0.3,0.1-0.8,0-1,0.6c0.4,0.2,0.9,0,1.2,0.5c-0.5,0-1,0-1.5,0c-0.4-0.1-0.8-0.8-1.3-0.1
		c-0.9,0.4-1.1-0.3-1.2-0.9c-0.2-0.9,0.7-0.7,1.1-0.9c0.1-0.4-0.3-0.3-0.5-0.4c-0.3-0.6-0.2-1.4-1.1-1.5c-0.1-0.2-0.2-0.5,0-0.6
		c1.1-0.5,0.1-2,1.2-2.4c0.1-0.1,0.4,0.3,0.3-0.1c-0.1-0.4-0.4-0.8-0.3-1.4c-0.5,0.5-0.9,1-1.6,0.7c-0.6-0.1-0.7-0.7-0.5-1.1
		c0.4-0.8,0.1-1.4-0.2-2c-0.2-0.6-0.6-0.3-1-0.2c-0.3,0-0.6,0-0.8-0.3c-0.2-0.2-0.1-0.6,0.1-0.7c0.7-0.3,0.5-1,0.4-1.5
		c-0.1-0.6,0.2-0.9,0.5-1.3c1.1,0,2.3,0,3.4,0c0.1,0.3-0.7,0.8,0.3,0.9c0.7,0.1-0.4,0.8,0.2,1.1c0.2-0.4,0.3-0.8,0.5-1.1
		c0.2-0.2,0.5-0.5,0.8-0.2c0.1,0.2,0.3,0.5-0.2,0.8c-0.7,0.4-1.1,1-0.3,1.7c0.2,0.1,0.2,0.4,0.4,0.2c0.3-0.2,0.4,0,0.5,0.2
		c0.2,0.3,0,0.4-0.2,0.5c-0.2,0-0.2,0.1-0.2,0.3c0.1,0.7,0.8-0.6,0.9,0.3c0.1,0.4,0.3,1,0.8,0.2c0.1-0.2,0.3-0.2,0.4,0
		c0.2,0.2,0,0.3-0.2,0.4c-0.6,0.3-0.3,1.4-1.2,1.5c-0.1,0,0,0.2,0.1,0.3C121.9,28,121.7,28.3,120.4,28.4c0-0.5,0.6-0.2,0.7-0.6
		c-0.3,0.1-0.7,0.7-0.7-0.2c0.4-0.7,0-1-0.7-1.1c0.1,0.5,0.8,0.5,0.8,0.9C120.1,27.7,120.2,28,120.4,28.4z"/>
	<path fill="#18773C" d="M113.5,28.4c-0.6-0.6-1-1.3,0-1.8c-0.3-0.7-1.3-0.6-1.4-1.4c0-0.2-0.2-0.1-0.3,0c-0.6,0.4-1.1-0.1-1.3-0.5
		c-0.3-0.5,0.5-0.5,0.8-0.8c-0.5-0.1-0.6-0.5-0.7-0.9c0.4-0.3,0.9,0.3,1.4,0c-0.2-0.8-1.2-0.6-1.5-1.2c-0.3-0.2-0.5-0.5-0.9-0.5
		c-0.3,0-0.6-0.1-0.6-0.5c0-0.3,0.4-0.4,0.7-0.4c0.2,0,0.4,0.1,0.6,0.1c0.1,0.1,0.1-0.2,0,0c0,0,0,0-0.1,0c-0.3-0.1-0.6-0.1-0.4-0.5
		c1,0,2,0,2.9,0c0.2,0.2,0.2,0.4,0.3,0.7c0.2,0.6,0.1,1.2,0.8,1.6c0.4,0.2,0.6,0.8-0.2,0.9c-0.7,0.1-0.7,0.4-0.3,1
		c0.3,0.3,0.4,0.7,0.3,1.2c-0.1,0.3,0.2,0.3,0.4,0.3c0.4,0.1,0.8,0,1.2-0.2c0.3,0,0.8,0.1,0.5,0.5c-0.3,0.4,0.1,0.6-0.1,0.9
		c-0.3,0.4-0.8,0.9,0,1.3c0.2,0.2,0.3,0.5,0.2,0.8c-0.4,0.4-0.7,0.2-1-0.1C114.5,28.2,114,28.2,113.5,28.4z"/>
	<path fill="#1D8E45" d="M109.8,19.8c0,0.6,0.6,0.2,0.9,0.5c-0.4,0.5-1.2-0.1-1.6,0.5c0.5,0.2,1.4-0.2,1.4,0.8
		c-0.4,0.6-0.7,1.4-1.7,1.1c-0.7-0.2-0.9,0.8-1.6,0.6c-0.1,0.4,0.2,0.5,0.4,0.7c0.3,0.2,0.4,0.5,0.2,0.7c-0.2,0.3-0.4,0-0.6-0.2
		c-0.4-0.4-1.1-0.4-1.7-0.7c0.5-0.3,1.1-0.5,0.4-1.1c-0.1-0.1-0.1-0.3,0-0.4c0.3-0.1,0.6-0.4,0.9-0.2c0.4,0.3,0.6,0.1,0.8-0.2
		c0.3-0.4-0.1-0.4-0.4-0.5c-0.2-0.1-0.2-0.3,0-0.4c0.2-0.2,0.7-0.2,0.3-0.6c-0.3-0.2-0.8-0.5-1.2-0.2c-0.1,0.1-0.2,0.4-0.4,0.2
		c-0.1-0.1-0.2-0.3-0.2-0.4c0-0.3,0.3-0.2,0.5-0.3c0.6-0.1,1.2,0.2,1.8-0.2C108.5,19.8,109.2,19.8,109.8,19.8z"/>
	<path fill="#4A9C46" d="M114.2,25.6c-0.8,0-0.8,0-0.6-0.7c0.1-0.3-0.1-0.5-0.2-0.7c-0.8-1.2-0.7-1.4,0.9-1.6
		c-0.8-0.6-1.6-1.2-1.4-2.2c0.1-0.4,0.6-0.7,0.7-0.5c0.5,0.6,0.4-0.1,0.6-0.2c0.3,0.2,0.7-0.1,1.1,0c0,0.2,0.4,0.4-0.1,0.5
		c-0.2,0-0.3,0.4-0.3,0.4c1,0-0.6,1.4,0.7,1.2c-0.1,0.4-0.6,0.3-0.8,0.5c-0.2,0.2-0.6,0.4-0.4,0.8c0.1,0.2,0.5,0.2,0.8,0
		c0.4-0.2,0.9-0.4,0.9,0.4c-0.1,0.4-0.5,0.5-0.7,0.8c-0.2,0.2-0.3,0.4-0.6,0.3c-0.5-0.2,0.2-0.7-0.2-0.9
		C114.7,24.5,114.3,25,114.2,25.6z"/>
	<path fill="#B4AC34" d="M114.1,19.8c-0.1,0.3-0.1,0.7-0.2,1.4c-0.2-1-0.5-1.3-1.1-0.8c-0.3-0.2-0.1-0.4,0-0.6
		C113.2,19.8,113.7,19.8,114.1,19.8z"/>
	<path fill="#178966" d="M53.5,103.6c-0.2-0.3-0.6-0.4-0.5-0.9c0-0.1,0-0.4,0.1-0.3c0.6,0.6,0.9-0.4,1.2-0.3
		c0.4,0.1,1.1-0.8,1.1,0.3c0,0,0.2,0.1,0.2,0c0.6-0.9,1.4,0,2.1-0.3c0.1-0.1,0.2-0.2,0.3-0.3c0.1,0,0.1,0,0.2,0
		c0.7,0.7,1.5,0.5,2.3,0.1c0.4-0.2,0.8-0.3,1.1,0c0.5,0.4,1,0.4,1.5,0c0.5-0.3,0.9-0.4,1.3,0.2c0.2,0.4,0.5,0.3,0.6,0
		c0.1-0.2,0.2-0.5,0.5-0.5c0.3,0.1,0.5,0.4,0.5,0.6c-0.3,0.8,0.9,0.8,0.7,1.5c-0.4,0.2-0.8,0-1.2,0.1c-0.5,0.1-1.1,0.4-1.3-0.1
		c0.2,0.2,0.2,0.6-0.4,0.8c-0.7,0.3-1.4,0.7-1.9,1.3c-0.1,0.1-0.2,0-0.2,0.1c0.1,0,0.3,0,0.4,0c0.1,0,0.1,0.1,0.2,0.2
		c0.2,0.4,0.6,0,0.8,0.1c0.3,0,0.6,0,1-0.1c0.8-0.2,1.5,0.3,1.7,1c0.2,1,1,2,1.8,2.4c0.3,0.1,0.3,0.4,0.3,0.6c0,0.3-0.1,0.6-0.5,0.7
		c-0.3,0.1-0.6-0.1-0.9,0c0.4,0.9,0.3,1.9,0.5,2.8c-0.7-0.9-1.5,0.1-2.2-0.1c-0.3-0.1-0.8,0.3-0.9-0.2c-0.1-0.5-0.3-1.1,0.4-1.4
		c0.2,0.4-0.1,0.8,0,1.3c1.4-1,0-2,0.3-2.8c-0.4-0.1-0.6,0.3-1,0.1c0.4-1.3,1.5-0.1,2.2-0.7c-0.6-0.2-1-0.5-1.2-1.3
		c-0.1-0.7-1.1-0.5-1.7,0c-0.1-0.4,0.2-0.4,0.3-0.5c0.5-0.2,0-0.5,0-0.7c-0.1-0.4-0.3,0-0.5,0c-1.4,0.1-1.3,1.6-2.2,2.2
		c-0.3,0.2-0.5,0.6-1,0.3c1.4-0.9,0-1.4-0.3-2.1c-0.2-0.4-0.7-0.6-0.1-1.2c-0.6,0.3-1,0.5-0.5,1.1c0.1,0.1,0.3,0.3,0.1,0.5
		c-0.1,0.1-0.3,0.1-0.3,0.1c-0.4-0.7-1.3-0.7-1.6-1.4c-0.2-0.4-0.1-1-0.9-0.6c-0.2,0.1-0.4-0.1-0.3-0.4
		C56,104.9,54.8,103.4,53.5,103.6z"/>
	<path fill="#27AC82" d="M66.7,103.8c-0.8-0.3-1.1-1-1.1-1.8c0-0.1-0.1-0.1-0.3-0.3c0.4,0.7-0.1,0.9-0.5,1c-0.6,0.2-0.5-0.2-0.6-0.6
		c-0.1-0.3-0.4-0.4-0.8-0.1c-0.6,0.5-1.2,0.8-1.8,0.1c-0.2-0.2-0.8-0.5-0.9,0.2c-0.1,0.4-0.3,0.2-0.5,0.2c-0.2,0-0.5-0.2-0.6-0.1
		c-0.8,0.9-1,0-1.3-0.5c-0.2-0.7-0.7-1.2-1.2-1.5c-0.6-0.3-0.9-0.4-0.9-1.1c0-0.4,0.3-0.6,0.6-1c0.3,1,1,1,1.8,0.8
		c1.1-0.2,1.8,0.7,2.7,1.1c0.4,0.1,0.6,0.2,1,0.2c1.1,0,2.1,0.1,3.2,0.3c0.5,0.1,1.2-0.1,1.6,0c0.8,0.3,1.3-0.2,2-0.2
		c0.3,0,0.3,0.3,0.5,0.5c0.4,0.4,0.8,1,1.1-0.1c0.1-0.4,0.5-0.8,0.9-0.6c1.1,0.5,2.3,0.2,3.4,0.3c0.5,0.1,0.7,0.1,0.8,0.6
		c0.1,0.4,0.5,0.6,0.9,0.5c0.4-0.1,0.5-0.4,0.1-0.8c-0.1-0.1-0.1-0.3,0.1-0.3c0.2-0.1,0.3,0.1,0.4,0.3c0.1,0.2,0.1,0.7,0.5,0.6
		c0.2-0.1,0.5-0.4,0.3-0.9c-0.1-0.3,0-0.9,0.5-1.1c0.2,0.1,0.3,0.2,0.4,0.4c0.3,0.7-0.7,3.6-1.3,4c-0.1,0.1-0.3,0-0.4-0.1l0,0
		c-0.4,0.1-0.4-0.7-0.9-0.5c-0.9-0.1-1.9-0.6-2.8,0c-0.2,0.1-0.4,0-0.5-0.2c-0.3-0.8-0.8-0.4-0.9,0c-0.3,0.8-0.9,1-1.7,1.1
		c-0.4,0.1-0.9,0.4-1-0.5c0-0.4-1.1-0.2-1.1-0.9c-0.4,0.2-0.4,0.6-0.5,0.9C67.4,103.8,67.2,104.3,66.7,103.8z"/>
	<path fill="#079D84" d="M58.1,82.7c-0.9-0.6-1.2,0.5-1.5,0.8c-1.3,1.2-2.7,1.2-4.3,0.9c-0.4-0.5,0.3-0.6,0.4-0.9
		c-0.8-0.5-0.8-0.8-0.1-2.2c0,0,0.1,0,0.1-0.1c0.4,0,0.8-0.3,0.8-0.7c0-0.7-0.7-0.2-1.1-0.5c0.6-0.2,1.1-0.5,1.5-1
		c0.5-0.6,0.4,0,0.5,0.3h0c-1.2,0.2-0.2,0.9-0.2,1.2c0.1,0.5,0.5,0.5,0.9,0.1c0.5-0.4,1-0.7,1.2,0.3c0,0.1,0.7,0.1,0.8,0.5
		c0.5-0.2-0.2-0.6,0.2-0.7c0.3-0.1,0.3,0.2,0.4,0.5c0.6,1.1,0.9,0.2,1.3-0.3c-1.2,0.9-0.6-0.8-1.4-0.7c1.1-0.3,1.5-0.7,1-1.7
		c-0.3-0.6,0.1-1,0.6-0.7c0.8,0.4,1-0.1,1.4-0.5c0.2-0.2,0.4-0.3,0.7-0.3c0.6,0.3,0.3,0.7,0.1,1.1c-0.2,0.4-0.6,0.7-0.9,1.1l0,0
		c-0.2,0.3-0.6,0.5-0.6,0.8c0.1,1.2-0.7,1.9-1.6,2.5C58.4,82.7,58.2,82.7,58.1,82.7z"/>
	<path fill="#099B6D" d="M73.8,89.7c0.9,1.3,1.8,2.7,2.7,4c0.1,0.6,0.6,1,0.9,1.5l0,0c-0.1,0.6-0.4,1.1-0.8,1.4
		c-0.3,0.3-0.4,0.5-0.1,0.9c0.3,0.5,0.1,0.8-0.4,1c-0.1,0-0.3-0.1-0.4,0.1c-0.2,0.3-0.2,0.9-0.6,0.5c-0.3-0.3-1.1-0.5-0.6-1.2
		c0.1-0.2,0-0.4-0.2-0.5c-0.6-0.8-1.9-1.5-1.1-2.9c-0.6-0.9,0.1-2.1-0.8-2.9c-0.5-0.5,0.3-0.7,0.3-1.2c0-0.4,0.4-0.7,0.1-1.2
		C73.4,89,73.3,89.9,73.8,89.7z"/>
	<path fill="#0F6F53" d="M77.2,103.6c0.5-0.4,1.2-0.7,1-1.7c-0.1-0.4,0.1-1,0.3-1.3c0.3-0.5,0.1-0.9,0-1.3c0.3-0.4,0.2-0.8,0.2-1.2
		c0-0.4,0.2-0.3,0.5-0.3c1.1,1.4,2.1,2.9,3,4.5c-0.3-0.2-0.5-0.3-0.8-0.5c-0.3-0.1-0.6-0.3-0.3,0.2c0,0,0,0.1,0,0.2
		c-1.4-0.4-1.7,1.3-2.7,1.4c-0.1,0-0.2-0.1-0.4,0.1C77.5,104.2,77.5,104.2,77.2,103.6z"/>
	<path fill="#154A6F" d="M60.6,79.3c0.1-0.4,0.3-0.8,0.6-1.2c0.3-0.3,0.4-0.6,0.1-1c0-0.1,0-0.1-0.1-0.2c0.5-1.1,0.9-2.3,2.2-2.9
		c0.2,0.4,0.5,0.8,0.7,1.1c-0.2,0.3-0.1,0.6-0.7,0.6c-0.8,0-1,0.7-0.6,1.4c0.3,0.6,0.5,1-0.5,1.1C61.7,78.3,61.4,79.3,60.6,79.3z"/>
	<path fill="#154A6F" d="M58.5,82.5c0.9-0.8,1.2-1.8,1.7-2.9c0.1-0.2,0.3-0.2,0.5-0.3c0,0.6-0.8,1,0,1.8c0.3,0.3-0.4,0.8-0.8,0.9
		C59.3,82.1,58.9,82.2,58.5,82.5z"/>
	<path fill="#0E6A56" d="M66.8,113.9c-0.3-0.7-0.8-1.3-0.3-2.2c0.3-0.5-0.6-0.2-0.8-0.4c0.2-0.5,0.6-0.7,0.9-0.6
		c0.9,0.3,0.9-0.2,0.9-0.9c-0.5,0.1-1.1,0.5-1.1-0.5c0-0.4-0.6-0.7-1-1.1c-0.2-0.2-0.5-0.4-0.2-0.8c0.1-0.1,0.1-0.4,0-0.3
		c-0.7,0.2-0.4-1.3-1.2-0.6c-0.4,0.4-0.8,0.2-1.2,0.1c-0.2-0.3-0.6,0-0.9-0.2c0-0.1,0-0.1,0-0.2c0.3-0.9,1.2-1.1,2-1.3
		c0.6-0.1,1.1-0.3,1.6-0.6c0.3-0.1,0.6-0.4,0.7,0.1c-0.5,0.7-0.6,1.3-0.1,2c0.1,0.2,0.2,0.4,0.2,0.6c0,0.3-0.5,0.6,0,0.9
		c0.4,0.2,0.6-0.4,1-0.4c-0.1,1,1.5,1.3,0.8,2.7c0.6-0.2,0.4-0.5,0.5-0.7c0.1-0.4,0.3-0.6,0.8-0.3c0.8,0.3,1.5,1,2.5,0.4
		c0.1,0.1,0,0.3,0,0.4c0.1-0.1,0.1-0.3,0-0.4c0.1-0.6,0.7-0.7,1.1-1c0.2-0.2,0.3,0.1,0.4,0.4c-0.2,0.1-0.2,0.3-0.3,0.5
		c0.1-0.2,0.1-0.4,0.3-0.5c0.2-0.2,0.3-0.4,0.6-0.5c0.3-0.1,0.3-0.8,0.7-0.4c0.4,0.4-0.2,0.4-0.4,0.6c-0.2,0.2-0.2,0.4,0,0.5
		c0.6,0.3,0.8,0.5,0.3,1.1c-0.2,0.2,0.2,0.1,0.3,0.2c0.7,0.4,1.5-0.4,2.2,0.1c-0.3,1.2-1.4,0.5-2.1,0.8c-0.2,0.1-0.6-0.1-0.6,0.3
		c0,0.4,0.4,0.4,0.7,0.2c0.6-0.4,0.5,0.6,1,0.5c0.1,0.3-0.2,0.5-0.3,0.4c-0.7-0.3-0.5,0.6-0.9,0.6c0.4,0.5,0,0.7-0.3,0.9
		c-0.1,0.1-0.1,0.1,0.4,0.3c-0.1,0.1-0.2,0.3-0.2,0.4c-0.3-0.1-0.6-0.2-0.9-0.3c0.1-0.3,0.6-0.6,0.1-0.9c-0.3-0.2-0.6-0.2-0.8,0.2
		c-0.1,0.2-0.1,0.3-0.3,0.1c-0.5-0.5-0.9-1-1.7-0.9c-0.2,0-0.4-0.1-0.5-0.4c-0.1-0.4,0.2-0.6,0.5-0.7c-0.7-0.4-1-0.1-1.3,0.5
		c-0.2,0.5-1.3,0.5-0.6,1.5c0.1,0.2,0,0.6-0.4,0.9c-0.3,0.2-0.6,0.3-0.8,0C67.7,114.5,67,114.6,66.8,113.9z"/>
	<path fill="#11133E" d="M50.1,54.2c-0.2-0.4-0.4-0.7-0.6-1.1c1.1-0.5,2.1-1.3,3.2-1.9c0.2-0.1,0.1-0.3,0-0.4
		c-0.4-0.4-0.7-0.9-1.3-1.1c-0.2-0.1-0.5-0.1-0.5-0.4c0-0.3,0.2-0.5,0.4-0.6c0.5-0.1,1.1-0.6,1.6,0.2c0.2,0.4,0.7,0.7,1.1,0.1
		c0.2-0.2,0.4-0.2,0.7-0.1c1,0.2,1.1,0.2,0.9-0.9c0.3-0.6,0.3-1.4,0.9-1.9c0.1-0.5,0.2-1,0.7-1.4c0.6-0.5,0.6-1.4,0.3-2.1
		c-0.2-0.5-0.2-1,0.1-1.4c0.3-0.5,0.8-0.6,1.1-0.3c1.2,1.3,2.1,0.6,3-0.3c-0.1-0.1-0.2-0.4-0.1-0.5c0.6-0.4,0.4-1.1,0.6-1.7
		c0.1-0.4,0.6-0.4,0.8-0.6c0.6,0.1,0.6,0.6,0.5,1c0,0.4-0.1,0.8,0.1,1.3c1-0.7,2.2-0.2,3.3-0.5c-0.5-0.2-0.7-0.6-1.1-0.8
		c-0.3-0.2-0.5-0.4-0.3-0.8c0.2-0.3,0.5-0.5,0.9-0.4c0.7,0.2,1.1-0.1,1.2-0.8c0-0.2,0.1-0.3,0.2-0.5c0.1-0.1-0.1,0-0.1,0
		c-0.4,0.1-0.6-0.1-0.9-0.2c-0.3-0.1-0.8-0.1-0.8-0.6c0-0.5,0.5-0.6,0.9-0.6c1.2,0,2.5,0,3.7,0c0.3,0,0.4,0.2,0.2,0.4
		c-0.5,0.5-0.4,1-0.2,1.5c0.7,1.9-0.1,3.3-1.3,4.5c-0.2,0.2-0.4,0.4-0.4,0.7c0,0.2,0,0.4-0.1,0.5c-1.2,0.6-0.9,1.8-1.3,2.8
		c-0.4,0.9,0.2,1.9,1.1,1.6c1.2-0.5,2.1,0,2.9,0.8c0.1,0.1,0.3,0.2,0.4,0.3c0.5,0.4,0.9,0.9,0.7,1.6c-0.1,0.2-0.1,0.5-0.5,0.4
		c-0.1-1-1.1-1.3-1.5-2.1c-0.1-0.2-0.2-0.1-0.4-0.1C70,47.8,70,47.9,70.1,48c0.4,0.7-0.1,0.7-0.6,0.7c-0.9,0-1.6,0.3-2.4,0.6
		c-1.3,0.5-1.9,1.8-1.6,3.2c0,0.2,0,0.4-0.1,0.5c-0.7,0.8-1.2,1.7-1.2,2.8c0,0.4-0.3,0.7-0.6,1c-0.5,0.6-1.3,1-1.2,1.9
		c0,0.4-0.5,0.6-0.8,0.3c-0.3-0.3-0.6-0.3-1-0.4c-0.4,0-0.8-0.3-1,0.2c-0.2,0.5,0.3,0.4,0.6,0.6c0.2,0.1,0.2,0.4,0.1,0.4
		c-0.6,0-0.4,1-0.9,0.7c-0.6-0.4-1-0.1-1.3,0.3c-0.3-0.2-0.2-0.3-0.1-0.4c0.1-0.3,0.9-0.2,0.4-0.7c-0.3-0.3-0.9-0.3-1.3,0.1
		c-0.4,0.5-0.6,1.1-1.3,1.5c-0.4,0.2,0.1,0.7,0.2,1.1c0.2,0.5,1,0.7,0.7,1.5c0,0-0.1,0-0.1,0l-0.1,0c-0.3-0.1-0.5-0.3-0.6-0.6
		c-1.9-2.9-4-5.8-5.8-8.8C50.1,54.5,50,54.4,50.1,54.2z"/>
	<path fill="#111137" d="M72,49.8c0.2-0.1,0.2-0.3,0.2-0.4c1-1.2,1.3,0.3,2.1,0.5c-1-0.8-0.3-1.8-0.4-2.7c-0.1-0.4,0.4-0.4,0.8-0.4
		c0.6,0,0.8-0.2,1-0.9c0.2-1,0.2-1.7-0.5-2.4c-0.1,0-0.1-0.1-0.1-0.2c0-1.7-0.6-3.5,0.1-5.2c0.1-0.2,0.2-0.4,0.2-0.6
		c0.2-1.1,0.2-1.1-0.9-1.1c-0.2,0-0.4,0.1-0.5,0c-1.1-0.5-1.5,0.2-1.9,0.9c0.1,0.1,0.1,0.1,0.2,0.2c0.4,0.1,0.9-0.1,0.9,0.5
		c0,0.5-0.5,0.4-0.8,0.5c-1.1,0.3-1.1,1.2-1.2,2.1c0,0.7,0.1,1.5-0.6,2c-0.5,0.4,0,1,0.3,1.2c0.8,0.5,0.4,0.9-0.1,1.2
		c-0.8,0.5-0.6,0.7,0,1.2c0.5,0.4,1.4,0.8,0.9,1.8c-0.4,0-0.6-0.3-0.9-0.6c-0.6-0.6-1.1-0.9-2-0.4c-0.5,0.3-1.4,0.3-1.5-0.3
		c-0.1-0.5-0.8-1.2-0.1-1.9c0.1-0.1,0.3-0.4,0.3-0.6c-0.2-0.9-0.1-1.5,0.9-1.8c0.2,0,0.3-0.3,0.2-0.5c-0.3-0.7,0.1-1,0.7-1.2
		c0.1,0,0.2-0.1,0.3-0.2c0.5-1.3,1.5-2.4,0.8-3.9c-0.3-0.7-0.7-1.5,0.5-1.9c0.3-0.2,0.7-0.1,1-0.3c1.3,0,2.6-0.3,3.8,0.2
		c0.1,0,0.2,0,0.4,0c0.1-0.1,0.2-0.1,0.3,0c0.5,0.5,0.7,1.1,0.1,1.7c-0.1,1.3-0.6,2.5-0.4,3.9c0.3,0.2,0.6,0.4,0.4,0.9
		c-0.1,0.3-0.3,0.7-0.4,1c-0.2,0.6-0.2,0.9,0.6,1.2c1.3,0.5,2.7,0.6,4.1,1c0.4,0.1,0.6,0.3,0.8,0.7c0.4,0.7,0.8,1.4,1.4,2
		c0.6,0.7-0.3,1.1-0.5,1.6c-0.4,1-1.2,1.9-1.5,3c-0.5,0.4-0.5,1.4-1.4,1.2c0,0-0.2,0.1-0.2,0.1c-0.6,2-2.5,2.7-3.7,4.1
		c-0.3,0.4-0.7,0.8-0.4,1.5c0.3,0.8-0.6,1-1.2,1.3c-0.2-1.4,0.8-2.5,0.9-3.8c0.1-1.3-0.2-2.6-1.3-3.7C72.7,51.9,71.9,51,72,49.8z"/>
	<path fill="#91205A" d="M61.6,66.3c0.1,0.4-0.3,0.4-0.5,0.5c-0.4,0.1-0.5-0.3-0.6-0.6c-0.1-0.2,0.3-0.5,0.5-0.5
		C61.5,65.6,61.4,66.1,61.6,66.3z"/>
	<path fill="#11133E" d="M63.6,60.6c-0.4,0.1-0.3,0.6-0.7,0.7c0,0-0.2-0.3-0.1-0.4C62.8,60.6,63.1,60.3,63.6,60.6z"/>
	<path fill="#2D402A" d="M76.1,34.8c-0.1,0-0.2,0-0.3,0c1.6-0.4,3.2-0.1,4.8-0.2c3.9-0.1,7.8,0,11.7-0.1c6.2,0,12.3,0,18.5,0
		c1.8,0,3.6,0,5.4,0c-0.2-1.3-1.2-2.3-0.7-3.6c-0.9-0.2-0.1-0.7-0.2-1.1c-0.2-1-1.1-1.2-1.9-1.5c0.6-0.8,1.2-0.3,1.7,0.1
		c0.2,0.2,0.4,0.3,0.7,0.4c1,0.5,0.7,1.3,0.6,2.1c-0.1,0.6-0.2,1.1,0.5,1.2c0.1,0.2,0,0.4,0,0.6c-0.2,1.4,0.3,1.9,2.1,1.7
		c0.3,0,0.5-0.1,0.7,0.2c0,0-0.1,0.1-0.1,0.1c-0.2,0.3-0.5,0.2-0.8,0c-0.1,0-0.2,0-0.3,0c-10,0-20,0-30,0c-3.9,0-7.9,0-11.8,0
		C76.5,35,76.3,35,76.1,34.8z"/>
	<path fill="#85205B" d="M118.6,38.2c0.2,0.3,0.6,0.3,0.6,0.7c-0.1,0.4-0.5,0.4-0.8,0.3c-0.7-0.1-0.4,0.5-0.7,0.7
		c0.2-0.4-1.4-0.8,0.1-1.3c0.5-0.2-0.5-0.6-0.6-1.1C118.1,37,118.1,38,118.6,38.2z"/>
	<path fill="#23AD86" d="M50.1,54.2c2.2,3.3,4.4,6.6,6.6,9.9c0,0.1,0,0.3-0.1,0.4l0,0c-0.3-0.1-0.5,0.4-0.9,0.2
		c-0.3-0.1-0.5,0.1-0.3,0.4c0.4,0.5,0.2,1-0.2,1.2c-0.4,0.2-0.3-0.5-0.5-0.7c-0.2-0.1-0.3-0.3-0.5-0.5c0,1,0.1,1.8,0.1,2.7
		c-0.5,0.1-0.4-0.3-0.5-0.5c-0.2-0.8-1.2-1.2-1.9-0.8c-0.3,0.2-0.7,0.4-0.2,0.8c0.3,0.4,0.2,0.8,0.3,1.2c0.1,1.1-0.6,1.6-1.5,1.1
		c-0.4-0.2-0.7-0.3-1,0C49,70,49.7,70,49.7,70.2c0,0.2,0,0.5-0.1,0.7c-0.5,0.3-0.5,0.3-0.8-0.2c-0.1,0.3,0.6,0.8-0.1,1.2
		c-0.2,0.1-0.6-0.3-0.7,0.2c-0.9,0.2-0.9-0.5-1-1c-0.1-0.4,0-0.9-0.7-1c-0.5-0.1-0.3-0.6,0-0.7c0.8-0.5,1.6-1,2.6-1.3
		c0.3-0.1,0.6,0,0.9,0.3c0.3,0.3,0.3-0.3,0.5-0.2c0.1-0.2-0.1-0.1-0.2-0.1c0-0.1-0.1-0.1-0.1-0.2c0.3-1-0.5-1.2-1.1-1.6
		c-0.6-0.5-0.3-1.6-1.2-2.1c-0.3-0.2,0.2-1.9,0.6-2c0.1,0,0.2,0,0.3,0c0.2,0.2,0.4,1.1,0.7,0.2c0.2-0.7,2.3-1.2,0.3-2.3
		c-0.4-0.2-1-0.3-1-1.1c0.6,0.3,1.1,0.8,1.7,0.5c0.2-0.1,0.3,0,0.3,0.1c0.5,1.4,1,0.2,1.5,0c-1-0.7-1.8-1.5-2.6-2.4
		c-0.2-0.2,0-0.5,0.2-0.6c0.3-0.1,0.3-0.2,0.4-0.5C50.5,55.5,50,54.9,50.1,54.2z"/>
	<path fill="#06837B" d="M49,66.4c0.5,0.4,1.1,0.2,1.6,0.1c0.1,0.4-0.2,0.6-0.4,0.8c0.5-0.1-0.6,1,0.5,0.6c0.4-0.1,0.4,0.3,0.4,0.6
		c0,0.3-0.2,0.3-0.4,0.2c-0.5-0.3-0.9,0.4-1.5-0.2c-0.4-0.3-1.3,0.6-1.9,0.9c-0.3,0.2-0.9-0.1-0.9,0.6c0.8-0.1,1.2,0.1,1,1
		c-0.1,0.4,0,1.1,0.8,1.2c0,0.3,0.1,0.4,0.4,0.4c0,0.2-0.1,0.4-0.3,0.4c-1.2,0.2-1.3,1.1-1.3,2.1c0,0.2-0.1,0.3,0.1,0.4
		c0.2,0.1,0.7,0,0.4,0.5c-0.3,0.4-0.6,0-1-0.1c0.2-0.6-0.8-0.7-0.5-1.5c0.2-0.5-0.8-1.1-1.3-1.6c-0.3-0.3-0.3,0.4-0.7,0.3
		c0-0.7,0.1-1.4,0.5-2.2c-1,0.1-1.5-0.2-1.6-1.2c0.3-0.2,0.5,0,0.7,0.1c1.3,0.4,1.6-0.7,2.1-1.4c0.5-0.8,1.2-1,2.1-1.2
		C48.9,67.8,48.7,66.8,49,66.4z"/>
	<path fill="#079D84" d="M50.1,83.4c-0.1,0.1-0.3,0.2-0.4,0.2c0-0.2-0.1-0.4-0.3-0.4c-0.7,0.1-0.8-0.4-0.8-0.9
		c-0.1-1.1,1-0.6,1.3-1.3c-0.5-0.5-1.2,0-1.8-0.4c0.2-0.1,0.5-0.3,0.5-0.5c0.1-0.8,0.4-0.4,0.6-0.2c0.4,0.4,0.8,0.8,1.3,0.1
		c0.2-0.3,0.3-0.1,0.4,0.2c0.1,0.4,0.3,0.4,0.6,0.2c0.7-0.4,0.9,0.1,1.1,0.6l0,0c-0.1,0.1,0-0.1-0.1,0.1
		C52.3,82.6,51.2,83,50.1,83.4z"/>
	<path fill="#0A9880" d="M63.4,74c-0.7,1-1.4,1.9-2.2,2.9c-0.3-0.1-0.7-0.7-1.1-0.1c-0.1,0.2-0.2,0.1-0.3,0c-0.1-0.2-0.2-0.3,0-0.5
		c0.2-0.3,0.5-0.6,0.7-0.9c0.1-0.2,0.9-0.5,0.1-0.8c-0.2-0.1,0-0.2,0.1-0.3c0.3-0.6,0.5-1.2,0.4-1.8c0-0.4-0.1-0.8,0.5-0.7
		C62.5,72.4,62.8,73.3,63.4,74z"/>
	<path fill="#007F7E" d="M49,76.9c-0.1-0.2-0.6-0.1-0.6-0.4c0-0.4,0.4-0.3,0.6-0.2c0.4,0.2,0.8-0.2,0.9-0.4c0.3-0.8,1.1-1,1.8-1.6
		c-0.1,0.7-0.6,1-0.8,1.5C50.1,75.9,50,77,49,76.9z"/>
	<path fill="#079D84" d="M57.9,79.2c0,0.9-0.5,0.8-0.7,0.8c-0.1,0-0.8,0.1-0.6-0.5c0.1-0.2-0.1-0.8,0.2-0.6
		C57.2,79.2,57.8,78.9,57.9,79.2z"/>
	<path fill="#06837B" d="M48.8,72c0.1-0.5,0.1-0.9-0.3-1.3c-0.2-0.2-0.3-0.5,0-0.6c0.4-0.2,0.4,0.2,0.5,0.4c0.1,0.3,0.1,0.7,0.6,0.4
		c-0.1,0.2-0.1,0.4-0.2,0.6C49.4,71.9,49.3,72.2,48.8,72L48.8,72z"/>
	<path fill="#23AD86" d="M56.5,64.5c0.2,0.3,0.4,0.6,0.7,0.9C56.2,65.2,56.2,65.2,56.5,64.5L56.5,64.5z"/>
	<path fill="#23AD86" d="M52.8,69.3c-0.1,0.2-0.3,0.4-0.6,0.4c-0.2,0-0.2-0.2-0.1-0.3c0.1-0.2,0.2-0.3,0.5-0.3
		C52.7,69,52.8,69.1,52.8,69.3z"/>
	<path fill="#23AD86" d="M48.8,72c0.3,0,0.4-0.3,0.7-0.4c0.2,0.1,0.6-0.1,0.4,0.2C49.7,72.1,49.2,72.4,48.8,72z"/>
	<path fill="#079D84" d="M54.4,79.3c0.2-0.1,0.5-0.3,0.7,0c0.1,0.3-0.2,0.3-0.3,0.4C54.3,79.9,54.4,79.5,54.4,79.3L54.4,79.3z"/>
	<path fill="#11133E" d="M76.1,34.8c0.2,0,0.4,0,0.6,0c0.1,0.3,1.9,0.3,0.2,1c-0.3,0.1-0.1,0.8-0.6,0.7
		C76.7,35.9,76.3,35.4,76.1,34.8z"/>
	<path fill="#11133E" d="M76.3,41.2c-0.1-0.3-0.3-0.6-0.4-0.9c0.3,0.1,0.6-0.3,0.8,0C76.8,40.7,76.6,41,76.3,41.2z"/>
	<path fill="#411344" d="M66.4,34.8c-0.4,0.6-0.3,0.4,0.1,0.7c0.8,0.5,1.3,0.3,1.9-0.4c-0.1,0.6-0.7,0.8-0.6,1
		c0.1,0.8-0.1,1.2-0.8,1.7c-0.4,0.2-0.2,0.5-0.6,0.1c-0.2-0.2-0.2-0.5-0.6-0.3c-0.1,0.1-0.3,0.2-0.3,0.4c0,0.3,0.3,0.4,0.5,0.4
		c0.4,0.1,0.5,0.8,1.2,0.5c0.2-0.1-0.3,0.4-0.3,0.7c0,0.2,0,0.5-0.4,0.3c-1.1-0.5-2.2-0.2-3.1,0.3c-0.8-0.8,0.2-1.9-0.5-2.7
		c-0.1-0.3-0.1-0.7-0.3-1c-0.4-0.5-0.8-0.9-1.6-0.3c0.9-1-0.1-1.1-0.4-1.5C62.4,34.6,64.4,34.6,66.4,34.8z"/>
	<path fill="#881C4D" d="M62,38.2c0.2,0.6,0.7,1.3-0.4,1.6c-0.1,0-0.1,0.3-0.1,0.5c-1-0.1-1.3-1.1-2-1.7c-0.3,0.2-0.2,0.5-0.2,0.7
		c-0.1,0.2-0.2,0.4-0.5,0.3c-0.1,0-0.3,0-0.3,0c-0.1-0.3,0.1-0.4,0.3-0.4C59,39.3,59,39.1,59,39c0.1-1.1,0.4-1.4,1.5-1.4
		c0.2,0,0.3,0,0.3,0.2c0.1,0.3,0.1,0.6,0.5,0.1C61.6,37.5,61.8,37.9,62,38.2z"/>
	<path fill="#781D54" d="M55.4,34.8c0.3,0,0.7-0.1,1-0.1c0.1,0,0.3,0,0.4,0c0.1,0,0.2,0.1,0.2,0.1c-0.5,1-0.4,1.2,0.7,1
		c0.8-0.1,0.2,0.7,0.7,0.8c0.1,0-0.2,0.4-0.4,0.3c-0.8-0.1,0,0.7-0.5,0.8c-0.4-0.3-0.4-1.3-1.4-0.7c-0.2,0.1-0.8-0.6-0.6-0.7
		C55.9,35.7,55.5,35.3,55.4,34.8z"/>
	<path fill="#2D402A" d="M57.1,34.8c-0.1,0-0.1-0.1-0.2-0.1c3.5,0,7,0,10.5-0.1c1.3,0,2.6,0,4,0c0.2-0.1,0.3,0,0.3,0.2
		c-0.3,0-0.6,0-0.9,0c-1.4,0-2.9,0-4.3,0c-2,0-4,0-6,0C59.3,34.8,58.2,34.8,57.1,34.8z"/>
	<path fill="#791B4D" d="M56.3,46c-0.3,0.6-0.2,1.5-0.9,1.9c-0.5,0.4-1,0.8-1.8,0.4c-0.2-0.1-0.4-0.1-0.4-0.4
		c0.1-0.3,0.3-0.3,0.5-0.2c1,0.4,1-1,1.7-0.9c0-0.1,0-0.3,0-0.3C55,46.4,55,46,55.3,45.7C55.6,45.4,56,45.9,56.3,46z"/>
	<path fill="#8B1E52" d="M54.5,43.5c1,0.4,0.9-0.9,1.7-0.7c0-0.3,0.3-0.5,0.3-0.3c0,0.5,0.9,0.8,0.2,1.4
		C55.8,44.7,55.6,44.6,54.5,43.5z"/>
	<path fill="#B52058" d="M52.7,37.6c0.3,0,0.4-0.2,0.6-0.4c0.3-0.3,0.6-0.6,1-0.3c0.1,0.1,1.1,0.4,0.1,0.9c-0.1,0,0.6,0.6,0,0.6
		c-0.6,0-1.1-0.4-1.7-0.6C52.6,37.7,52.6,37.6,52.7,37.6L52.7,37.6z"/>
	<path fill="#801C51" d="M54.5,44.9c-0.1,0.3-0.1,0.7-0.5,0.6c-0.2,0-0.8,0.5-0.5-0.4c0.1-0.2-0.2-0.1-0.3-0.1
		c-0.4,0.1-0.7-0.1-0.6-0.5c0.1-0.4,0.6-0.4,0.8-0.3C53.7,44.6,54.3,44.2,54.5,44.9z"/>
	<path fill="#215C2E" d="M71.6,34.8c-0.1-0.1-0.2-0.1-0.3-0.2c-0.3-0.5-0.9-0.6-1-1.3c-0.1-0.4-0.6,0-0.9-0.3
		c-0.1-0.4,0.6-0.3,0.4-0.8c-0.7,0.3-1.4-0.8-2.2-0.1c-0.1,0.1,0,0.4,0,0.6c-0.6,0-0.5-0.9-1.2-0.8c-0.3,0.1-0.1,0.4-0.3,0.6
		c-0.4-0.1-0.7-0.6-0.5-0.8c0.4-0.4,0.5-1,0.9-1.4c0.2-0.1,0.3,0,0.4,0.1c0.1,0.1,0.3,0.3,0.1,0.4c-0.2,0.2-0.4,0.3,0,0.5
		c0.2,0.1,0.4,0.4,0.5,0.2c0.1-0.1,0.1-0.4,0.1-0.6c-0.1-0.7-0.4-1.2-1.2-1.1c0.2-0.6,0.8-0.6,1.2-0.8c0.3-0.1,0.5,0.5,0.7,0
		c0.1-0.4-0.3-0.5-0.5-0.7c-0.1-0.1-0.2-0.2-0.3-0.3c0.8-0.2,1.6-0.4,2.5-0.5c0.8-0.1,1.4-0.8,2.3-0.7c0.1,0,0.2-0.2,0.2-0.2
		c-0.7-1,0.6-1.6,0.4-2.5l0,0c0.1,0,0.1,0.1,0.2,0.1c0.5,0.1,1.1,0.3,1.3-0.2c0.1-0.2,0.2-1.2-0.8-1.2c0.7-0.5,1.4-0.3,1.9-0.7
		c0.3-0.2,0.4,0.1,0.6,0.3c0.3,0.7,0.5,1.5,1.1,2.2c0.2,0.3,0.4,0.6-0.2,0.8c-0.6,0.2-0.8,1.4-0.5,1.9c0.2,0.4-0.1,0.6-0.3,0.8
		c-0.3,0.3-0.5,0.6,0.1,0.7c0.3,0.1,0.5,0.4,0.3,0.7c-0.5,0.7-0.3,1.6-0.9,2.3c0.8,0,1.4,0.8,1.4,1.5c0,0.2,0.1,0.4,0.2,0.6
		c-0.4,0.2-0.8,0.2-1.2,0.2c-0.3,0-0.7-0.1-0.7,0.4C74.2,34.8,72.9,34.8,71.6,34.8z"/>
	<path fill="#165229" d="M72.9,24.3c-0.5-0.1-1.1-0.5-1.2,0.5c0,0.2-0.6,0.9-0.9,0.5c-0.2-0.2-1-0.5-0.5-1.3
		c0.2-0.4-0.3-1.3-0.3-2.1c0-0.1-0.2-0.3,0-0.4c0.3-0.2,0.7-0.2,1,0c0.5,0.3,1.4-0.1,1.4,0.8C72.3,23,72.6,23.6,72.9,24.3L72.9,24.3
		z"/>
	<path fill="#15401F" d="M68.8,24.4c0,0.7-0.9,1.4-1.6,1.4c-0.5,0-0.9-0.4-0.8-0.7c0.4-0.7,0.8-1.4,1.4-1.8
		C68.1,23.1,68.6,23.9,68.8,24.4z"/>
	<path fill="#338A42" d="M79.3,23.2c-0.5,0-1,0-1.6,0.2c0.2-0.5,0.5-0.4,0.8-0.4c0.3,0,0.6,0,0.7-0.2c0.3-1.4,1.2-1.1,2.1-0.7
		c0.1,0.1,0.3,0,0.4,0l0,0c0.2,0.6-0.2,0.6-0.5,0.5C80.5,22.6,79.9,22.8,79.3,23.2L79.3,23.2z"/>
	<path fill="#83903A" d="M67.3,28.1c-0.2,0.9-0.7,0.1-1.1,0.2C66.4,27.5,66.9,28.4,67.3,28.1z"/>
	<path fill="#FDCF1A" d="M128.7,34.6c0.9-1.5,1.9-3,2.9-4.5c1.6-2.4,3.1-4.8,4.7-7.2c0.7-1,1.4-2,2.1-3c3.2,4.8,6.5,9.7,9.8,14.6
		C141.6,34.6,135.1,34.6,128.7,34.6z"/>
	<path fill="#CBB32E" d="M119.7,34.6c-0.3,0-0.6,0-0.9-0.1c-0.1,0-0.1-0.1-0.1-0.1c0,0,0-0.1,0.1-0.1c-0.1-0.2-0.2-0.4-0.3-0.6
		c0.6,0.1,1.3,0.1,1.6,0.8C120,34.6,119.9,34.6,119.7,34.6z"/>
	<path fill="#1E184E" d="M118.9,34.8c0.3,0,0.5,0,0.8,0c0.1,0,0.3,0,0.4,0C119.2,35.4,119.1,35.4,118.9,34.8z"/>
	<path fill="#055762" d="M44.9,55.1c0.8-0.4,0.9-0.4,1.1-0.1c0.1,0.2,0,0.4-0.1,0.6c-0.2,0.2-0.3,0.1-0.4-0.1
		C45.3,55.4,45.1,55.2,44.9,55.1z"/>
	<path fill="#23AD86" d="M48.7,57.3c0.4,0.3,0.9,0.3,0.9,0.8c0,0.1-0.2,0.3-0.2,0.3C48.9,58.4,48.7,58,48.7,57.3z"/>
	<path fill="#40BA94" d="M77.4,95.2c-0.5-0.4-1-0.8-0.9-1.5c0.3,0.4,0.6,0.9,1,1.3C77.4,95,77.4,95.1,77.4,95.2z"/>
	<path fill="#181648" d="M66.5,76.7c0.4-0.1,0.6-0.2,0.9-0.3c0.3-0.1,0.6,0,0.6,0.2c0.1,0.5-0.3,0.2-0.5,0.2
		C67.2,76.8,66.9,77.3,66.5,76.7z"/>
	<path fill="#057E7D" d="M50.1,83.4c0-0.2-0.3-0.6,0-0.5c1.2,0.2,1.8-0.4,2.2-1.4c0-0.1,0.3-0.1,0.5-0.2c-0.2,0.9-0.7,1.9,0.7,2.4
		c-0.5,0.2-1.1,0.1-1,0.7C51.7,83.6,50.8,83.7,50.1,83.4z"/>
	<path fill="#0F7F62" d="M66.4,104.4c-0.3-0.3-0.5,0-0.7,0.1c-0.4-0.1-0.4-0.5-0.4-0.9c0.5-0.1,0.9-0.1,1.3,0.2
		c0.5,0.3,0.9-0.2,0.8-0.3c-0.2-0.6,0.4-0.8,0.5-1.4c0.1,1,1.6,0.6,1.5,1.7c0,0,0.1,0.2,0.1,0.1c0.6-0.4,1.7,0,1.9-0.7
		c0.3-1.1,1-1.1,1.9-1.1c0.2,0.4-0.3,0.5-0.2,0.9c1-0.9,2.1-0.3,3.1-0.1c-0.1,0.6-0.7,0.1-0.9,0.4c-0.5-0.2-1-0.2-1.2,0.2
		c-0.4,0.7-1.3,1.3-1.7,1.2c-1.2-0.1-2.4,1.1-3.7-0.1C68.2,104.2,67.2,104.5,66.4,104.4z"/>
	<path fill="#0F6F53" d="M75.4,103.3c0.2-0.3,0.7-0.1,0.9-0.4c0.2-0.1,0.3-0.2,0.5-0.2c0.2,0,0.4,0,0.5,0.1c0.2,0.3-0.2,0.3-0.3,0.4
		c-0.1,0.2,0.2,0.2,0.2,0.4C76.5,104,76.1,103.2,75.4,103.3z"/>
	<path fill="#1D8E45" d="M100.5,26.8c0.4-0.4,0.4-0.9,0.9-0.9c0.2,0,0.3,0.2,0.2,0.4C101.5,26.9,101.1,26.9,100.5,26.8z"/>
	<path fill="#1D8E45" d="M99.8,27c-0.2,0.2,0,0.6-0.4,0.6c-0.2,0-0.4-0.2-0.4-0.4c0-0.3,0.3-0.5,0.6-0.5
		C99.8,26.6,99.9,26.8,99.8,27z"/>
	<path fill="#2D763A" d="M89.9,32.4c-0.1,0-0.2,0-0.2-0.1c-1-1.4-1.6,0.4-2.5,0.3c0,0.2-0.1,0.2-0.3,0.2c-0.8-0.3-1.7-2.1-1.4-2.9
		c0.1-0.2,0.3-0.2,0.4-0.3c0.5-0.4,1.2-0.7,0.5-1.5c-0.2-0.2-0.2-0.6,0.1-0.8c0.5-0.3,0.3,0.3,0.5,0.5c0.2,0.1,0.3,0.3,0.5,0.4
		c0.1,0.2,0.2,0.4,0.5,0.3c0.3-0.1,0.3-0.3,0.3-0.6c-0.1-0.3-0.1-0.5,0.3-0.5c0.3,0,0.4,0.2,0.5,0.5c0.1,0.4,0.1,0.8,0.2,1.3
		c0.1,0.4,0.1,0.9,0.8,0.8c0.4,0,0.8,0.2,0.5,0.8c-0.2,0.4-0.5,0.8-0.3,1.4C90.3,32.2,90.1,32.3,89.9,32.4z"/>
	<path fill="#337E3E" d="M79.3,23.2c0.2-0.2,0.5-0.4,0.5-0.6c0.1-0.6,0.3-0.4,0.6-0.2c0.5,0.3,1,0.5,1.3-0.2c0.2,0,0.5-0.1,0.8-0.2
		C81.7,23.2,80.3,22.8,79.3,23.2z"/>
	<path fill="#89A83F" d="M116.9,32.3c-0.9,0-1-0.2-0.8-1.1c0.2-0.8,0.5-1.7-0.3-2.4c0-0.3,0-0.6-0.2-0.9c0.2-0.3,0.8-0.2,0.8-0.7
		c0.1-0.1,0.2-0.2,0.4-0.3c0.4,0.1,0.8-0.1,1.1,0.1c0.4,0.2,0.8,0.4,0.5,0.9c-0.8,0.5-0.6,1,0,1.7c-0.9,0-1.2,0.5-1.3,1.1
		c0,0,0,0.1,0,0.1C116.9,31.3,117.4,31.9,116.9,32.3z"/>
	<path fill="#72A242" d="M118.8,34.4c0,0.1,0,0.1,0,0.2c-0.3,0-0.6,0-0.9,0c-1.2,0-1.7-0.8-1.2-2c0.6-0.1,0.7-0.4,0.5-0.9
		c-0.1-0.3-0.4-0.6-0.1-0.9l0,0c0.2,0,0.4,0,0.6,0c0.4,0.1,1.1,0.2,0.5,0.9c-0.1,0.2,0,0.4,0.1,0.6c0.3,0.1,0.3,0.4,0.4,0.6
		c0.2,0.3,0,0.4-0.2,0.3c-0.4-0.1-0.9-0.4-0.9,0.2c0,0.3,0.1,1.1,0.9,1C118.7,34.4,118.8,34.4,118.8,34.4z"/>
	<path fill="#69A444" d="M116.7,27.1c-0.1,0.1-0.1,0.2-0.2,0.2c-0.6,0.1-1,0.1-0.9-0.7c0-0.3-0.4-0.6,0-1c0.3-0.3-0.2-0.2-0.4-0.2
		c-0.4-0.4,0.1-0.7,0-1.1c0-0.6,0.6-0.4,0.8-0.7c0.1,0.2,0.3,0.5,0.4,0.7c0.2,0.4,0.6,0.7,0,1.1c-0.2,0.1-0.4,0.9,0.3,1.2
		C116.8,26.8,116.8,26.9,116.7,27.1z"/>
	<path fill="#CBB32E" d="M116.7,27.1c0-0.1,0-0.3,0-0.4c0.4,0,0.9,0.2,1.1-0.5c0.1-0.3,0.4-0.3,0.7-0.2c0.5,0.2,0,0.4,0.1,0.5
		c0.1,0.6,0.4,1.1,1,1.6c-0.4-0.1-0.8-0.1-1.1-0.1C118.3,26.7,117.2,27.4,116.7,27.1z"/>
	<path fill="#CBB32E" d="M120.4,27.5c-0.2-0.5-1.2-0.4-1-1.3c0.4,0.3,1.1-0.2,1.4,0.5C120.8,27,120.9,27.4,120.4,27.5L120.4,27.5z"
		/>
	<path fill="#CBB32E" d="M120.4,27.5c0.4,1,0.5-0.2,0.9-0.1c0.1,0.7-0.6,0.6-0.9,1l0,0C119.9,28.1,119.6,27.8,120.4,27.5L120.4,27.5
		z"/>
	<path fill="#CBB32E" d="M119.8,26c0-0.5,0.1-0.9-0.5-1.3C120.4,25.1,120.4,25.1,119.8,26z"/>
	<path fill="#CBB32E" d="M119.7,30.3c0.7,0,0.7,0.7,1.1,1C120.1,31.3,119.9,30.8,119.7,30.3L119.7,30.3z"/>
	<path fill="#CBB32E" d="M119.7,30.3c-0.2,0.5-0.4,0.8-1,0.3C119.1,30.4,119.3,29.9,119.7,30.3L119.7,30.3z"/>
	<path fill="#CBB32E" d="M119.6,29.3c-0.3,0-0.6,0.3-0.8-0.1c-0.1-0.1,0.1-0.4,0.2-0.5C119.4,28.6,119.3,29.2,119.6,29.3z"/>
	<path fill="#CBB32E" d="M118.9,32.8c-0.3-0.1-0.4-0.3-0.4-0.6c0.3-0.4,0.5-0.1,0.7,0.1C119.3,32.6,118.9,32.7,118.9,32.8z"/>
	<path fill="#B4AC34" d="M115.2,24.3c0.8,0.4-0.4,0.7,0,1.1c-0.3,0.3-0.6,0.5-1,0.2c-0.1-0.2-0.6-0.3-0.1-0.6
		c0.4-0.2,0.2-0.5,0.4-0.8c0.1-0.2-0.5-0.2-0.1-0.5c0.1-0.1,0.4-0.1,0.5,0c0.4,0.2,0,0.4,0,0.6c0,0.1,0,0.2,0,0.3
		C115,24.7,115.1,24.5,115.2,24.3z"/>
	<path fill="#B4AC34" d="M115.6,26.6c0.1,0.5,0.5,0.6,0.9,0.7c0.3,1-0.6,0.4-0.9,0.6c-0.4,0-0.8-0.1-0.9-0.5
		C115.2,27.5,115,26.6,115.6,26.6z"/>
	<path fill="#0A5244" d="M65.3,103.6c0.4,0.1,0.3,0.5,0.4,0.9c-0.3,0.3-0.9,0.4-0.3,1.2c-1.5-1.2-2.3,0-3.3,0.5
		c-0.3,0.1-0.7,0.1-1,0.2c0.8-0.6,1.3-1.6,2.3-1.8c1.2-0.3,0.7-0.5,0.1-0.9c-0.1,0-0.1-0.2-0.2-0.3C64,103.1,64.5,104.4,65.3,103.6z
		"/>
	<path fill="#1A9D75" d="M59.9,108.2c-0.4-0.2-0.7-0.5-0.6-0.9c0-0.2,0.3-0.3,0.4-0.2C60.1,107.4,60,107.8,59.9,108.2z"/>
	<path fill="#0A5244" d="M62.1,106.3c0.3-0.1,0.7-0.5,0.9,0.2c-0.3,0.1-0.6,0.1-0.9,0.2c-0.1,0-0.3,0-0.3-0.2
		C61.8,106.5,62,106.4,62.1,106.3z"/>
	<path fill="#1A9D75" d="M60.4,107.9c0.2,0.1,0.3,0.3,0.3,0.5c0,0.2-0.1,0.4-0.3,0.3c-0.3-0.1-0.3-0.2-0.2-0.5
		C60.2,108.1,60.2,108,60.4,107.9z"/>
	<path fill="#0A5244" d="M72,109.6c0.4,0.7,0.4,0.7-0.6,0.9C71.5,110.1,71.9,109.9,72,109.6L72,109.6z"/>
	<path fill="#0A5244" d="M73.5,108.9c0,0.4-0.1,0.8-0.8,1C73.1,109.5,72.9,109,73.5,108.9L73.5,108.9z"/>
	<path fill="#121029" d="M71.6,47.9c0.1-0.9-0.5-1.3-1.2-1.7c-0.3-0.2-0.7-0.2-0.7-0.6c0-0.4,0.3-0.6,0.7-0.7
		c0.3-0.1,0.6-0.2,0.7-0.6c-0.2-0.4-0.9,0-0.8-0.1c0.5-0.7-0.4-1-0.4-1.5c0-0.1,0.1-0.3,0.2-0.3c1,0,0.8-0.8,0.8-1.3
		c0-2.2,0.1-2.3,2-3c0-0.2-0.2-0.2-0.3-0.2c-0.4-0.1-1,0.4-1.1-0.2c-0.1-0.3,0.4-1.2,0.6-1.2c0.6,0,0.9-1.5,1.6-0.2
		c0.1,0.2,0.7,0,1-0.1c0.9-0.2,1.2,0,0.8,0.9c-0.8,1.9-0.4,3.9-0.5,5.9c0,0.2,0.2,0.5,0.4,0.7c0.5,0.6,0.6,1.1,0.4,2
		c-0.2,1.4-0.6,1.7-1.7,1.5c-0.1,0-0.2,0.1-0.2,0.1c0,0.1,0,0.4,0,0.4c0.8,0.5-0.8,1.6,0.5,1.9c0.2,0.1,0.6,0.1,0.4,0.5
		c-0.1,0.2-0.4,0.4-0.7,0.3c-0.2-0.1-0.5-0.3-0.6-0.5c-0.2-1-0.8-0.6-1.4-0.4C72.4,48.7,71.9,48.4,71.6,47.9z"/>
	<path fill="#CBB32E" d="M117.1,30.7c0,0.3,0,0.6,0.3,0.8c0.3,0.2,0,1.4-0.3,1.4c-0.2,0.1-0.4-0.2-0.4-0.4c0.1-0.1,0.1-0.2,0.2-0.3
		C117.2,31.8,116.3,31.1,117.1,30.7z"/>
	<path fill="#095670" d="M50.9,64.2c0,0.3-0.3,0.3-0.5,0.4c-0.1,0-0.3-0.1-0.3-0.3c0-0.3,0.2-0.5,0.5-0.5
		C50.8,63.8,50.9,63.9,50.9,64.2z"/>
	<path fill="#11133E" d="M65.2,36.7c0.2,0.7,0,1.1-0.4,1.5c0,0-0.2-0.1-0.2-0.1C64.5,37.5,64.8,37.2,65.2,36.7z"/>
</g>
<g display="none">
	<path display="inline" fill="#231F20" d="M189.6,81.2c-59.7,12.4-121.3,12.3-181,0C11,69.5,13.4,57.7,15.9,46
		c54.9,11.4,111.5,11.4,166.4,0C184.7,57.7,187.1,69.5,189.6,81.2z"/>
	<g display="inline">
		<path fill="#FFFFFF" d="M38,73.5c0.1-0.1,0.3,0,0.4,0.1c0.7,0.8,1.3,1.6,2,2.5c0.1,0.1,0.1,0.3,0,0.3c-2,1.4-4.7,2.1-7.5,1.7
			c-5.6-0.8-9.5-5.4-8.4-11.2c1-5.6,5.7-9,11.4-8.1c2.7,0.4,4.9,1.8,6.4,3.7c0.1,0.1,0.1,0.3,0,0.3c-0.8,0.6-1.7,1.2-2.5,1.8
			c-0.1,0.1-0.3,0-0.4-0.1c-1-1.2-2.4-2.1-4-2.3c-3.7-0.6-6.4,1.8-7,5.3c-0.6,3.8,1.7,6.6,5.1,7.1C35.1,74.9,36.7,74.4,38,73.5z"/>
		<path fill="#FFFFFF" d="M63.6,71.8c-0.4,4.8-4.2,9.5-10.8,8.8c-6.8-0.7-9.4-6.1-8.8-10.9c0.6-4.8,4.4-9.2,10.9-8.5
			C61.1,61.9,64,67,63.6,71.8z M59.7,71.5c0.3-3.2-1.4-6.5-5.3-6.9c-3.9-0.4-6.3,2.5-6.7,5.6c-0.4,3.1,1.3,6.5,5.3,6.9
			C57.1,77.6,59.5,74.7,59.7,71.5z"/>
		<path fill="#FFFFFF" d="M83.6,82.3c0,0.1-0.1,0.2-0.3,0.2c-1.1,0-2.2-0.1-3.3-0.1c-0.1,0-0.2,0-0.2-0.1c-2.9-4.3-5.7-8.7-8.5-13.1
			c-0.3,4.2-0.5,8.3-0.8,12.5c0,0.1-0.1,0.2-0.3,0.2c-1.1-0.1-2.2-0.1-3.3-0.2c-0.2,0-0.3-0.1-0.2-0.2c0.5-6.2,0.9-12.3,1.4-18.5
			c0-0.1,0.1-0.2,0.3-0.2c1.1,0.1,2.1,0.2,3.2,0.2c0.1,0,0.2,0,0.2,0.1c2.7,4.4,5.5,8.8,8.4,13.2c0.2-4.2,0.4-8.4,0.6-12.6
			c0-0.1,0.1-0.2,0.3-0.2c1,0,2.1,0.1,3.1,0.1c0.2,0,0.3,0.1,0.3,0.2C84.1,69.9,83.8,76.1,83.6,82.3z"/>
		<path fill="#FFFFFF" d="M98.6,67c0,0.1-0.1,0.2-0.3,0.2c-1.2,0-2.5,0-3.7,0c-0.1,5.1-0.1,10.2-0.2,15.4c0,0.1-0.1,0.2-0.3,0.2
			c-1.1,0-2.2,0-3.3,0c-0.2,0-0.3-0.1-0.3-0.2c0.1-5.1,0.2-10.2,0.3-15.4c-1.2,0-2.5-0.1-3.7-0.1c-0.2,0-0.3-0.1-0.3-0.2
			c0-0.9,0.1-1.9,0.1-2.8c0-0.1,0.1-0.2,0.3-0.2C91,63.9,94.7,64,98.3,64c0.2,0,0.3,0.1,0.3,0.2C98.6,65.2,98.6,66.1,98.6,67z"/>
		<path fill="#FFFFFF" d="M107.1,75.1c-0.7,0-1.4,0-2.1,0c0,2.5,0.1,5,0.1,7.5c0,0.1-0.1,0.2-0.3,0.2c-1.1,0-2.2,0-3.3,0
			c-0.1,0-0.3-0.1-0.3-0.2c0-6.2-0.1-12.4-0.1-18.5c0-0.1,0.1-0.2,0.2-0.2c2.1,0,4.2,0,6.3-0.1c1.1,0,6.6-0.1,6.8,5.4
			c0.1,2.9-1.5,4.5-3.5,5.2c1.3,2.6,2.8,5.2,4.1,7.8c0.1,0.2,0,0.3-0.2,0.3c-1.2,0-2.4,0.1-3.6,0.1c-0.1,0-0.2-0.1-0.3-0.1
			C109.7,80,108.4,77.5,107.1,75.1z M104.9,71.6c1,0,1.9,0,2.9,0c0.8,0,2.9-0.2,2.9-2.3c-0.1-2.1-2.4-2.1-3-2.1c-1,0-1.9,0-2.9,0
			C104.9,68.7,104.9,70.2,104.9,71.6z"/>
		<path fill="#FFFFFF" d="M120.7,82.1c0,0.1-0.1,0.1-0.3,0.1c-1.2,0.1-2.4,0.1-3.6,0.2c-0.2,0-0.4-0.1-0.3-0.3
			c2.4-6.5,4.7-12.9,6.8-19.4c0.1-0.2,0.4-0.2,0.5,0c2.9,6.2,5.9,12.4,9.1,18.5c0.1,0.2,0,0.3-0.2,0.3c-1.2,0.1-2.4,0.2-3.6,0.3
			c-0.1,0-0.2,0-0.2-0.1c-0.3-0.6-0.7-1.3-1-1.9"/>
		<path fill="#FFFFFF" d="M137.1,62.1c4.7-0.4,11.4-0.1,12.4,8.2c1,8-5.6,10.3-10.7,10.7c-1.1,0.1-2.2,0.2-3.3,0.3
			c-0.2,0-0.3-0.1-0.3-0.2c-0.5-6.2-1-12.3-1.5-18.5c0-0.1,0.1-0.2,0.3-0.2C135,62.3,136.1,62.2,137.1,62.1z M138.8,77.6
			c2.4-0.1,7.5-1.1,6.9-6.9c-0.6-5-3.8-5.9-8-5.3C138.1,69.5,138.4,73.5,138.8,77.6z"/>
		<path fill="#FFFFFF" d="M172.1,67c0.8,4.8-1.7,10.2-8.3,11.2c-6.8,1-10.7-3.5-11.3-8.3c-0.6-4.8,2-10,8.4-11
			C167.2,58,171.2,62.3,172.1,67z M168.3,67.7c-0.5-3.1-3-5.9-6.9-5.3c-3.9,0.6-5.4,4-5,7.1c0.4,3.1,2.8,6,6.9,5.4
			C167.3,74.3,168.8,70.8,168.3,67.7z"/>
	</g>
</g>
<g>
</g>
<g>
</g>
<g>
</g>
<g>
</g>
<g>
</g>
<g>
</g>
</svg>
